SplineFontDB: 3.0
FontName: Volkhov-Bold
FullName: Volkhov Bold
FamilyName: Volkhov
Weight: Bold
Copyright: Copyright (c) 2011, Cyreal (www.cyreal.org)\nwith Reserved Font Name "Volkhov" and "Volkhov Bold".\n\nThis Font Software is licensed under the SIL Open Font License,\nVersion 1.1. This license is available with a FAQ at:\nhttp://scripts.sil.org/OFL
Version: 1.001
ItalicAngle: 0
UnderlinePosition: -50
UnderlineWidth: 50
Ascent: 800
Descent: 200
sfntRevision: 0x00010041
LayerCount: 2
Layer: 0 1 "Back"  1
Layer: 1 1 "Fore"  0
XUID: [1021 288 713564382 13324829]
FSType: 0
OS2Version: 3
OS2_WeightWidthSlopeOnly: 0
OS2_UseTypoMetrics: 1
CreationTime: 1312462200
ModificationTime: 1313068581
PfmFamily: 17
TTFWeight: 700
TTFWidth: 5
LineGap: 0
VLineGap: 0
Panose: 2 0 5 3 0 0 0 2 0 4
OS2TypoAscent: 171
OS2TypoAOffset: 1
OS2TypoDescent: -119
OS2TypoDOffset: 1
OS2TypoLinegap: 0
OS2WinAscent: 39
OS2WinAOffset: 1
OS2WinDescent: 0
OS2WinDOffset: 1
HheadAscent: 39
HheadAOffset: 1
HheadDescent: 0
HheadDOffset: 1
OS2SubXSize: 700
OS2SubYSize: 650
OS2SubXOff: 0
OS2SubYOff: 140
OS2SupXSize: 700
OS2SupYSize: 650
OS2SupXOff: 0
OS2SupYOff: 477
OS2StrikeYSize: 50
OS2StrikeYPos: 250
OS2Vendor: 'PYRS'
OS2CodePages: 00000003.00000000
OS2UnicodeRanges: 800000a7.1000004b.00000000.00000000
Lookup: 258 0 0 "'kern' Horizontal Kerning in Latin lookup 0"  {"'kern' Horizontal Kerning in Latin lookup 0 subtable"  } ['kern' ('DFLT' <'dflt' > 'latn' <'dflt' > ) ]
DEI: 91125
TtTable: prep
PUSHW_1
 511
SCANCTRL
PUSHB_1
 4
SCANTYPE
EndTTInstrs
TtTable: fpgm
PUSHB_1
 0
FDEF
PUSHB_1
 0
SZP0
MPPEM
PUSHB_1
 42
LT
IF
PUSHB_1
 74
SROUND
EIF
PUSHB_1
 0
SWAP
MIAP[rnd]
RTG
PUSHB_1
 6
CALL
IF
RTDG
EIF
MPPEM
PUSHB_1
 42
LT
IF
RDTG
EIF
DUP
MDRP[rp0,rnd,grey]
PUSHB_1
 1
SZP0
MDAP[no-rnd]
RTG
ENDF
PUSHB_1
 1
FDEF
DUP
MDRP[rp0,min,white]
PUSHB_1
 12
CALL
ENDF
PUSHB_1
 2
FDEF
MPPEM
GT
IF
RCVT
SWAP
EIF
POP
ENDF
PUSHB_1
 3
FDEF
ROUND[Black]
RTG
DUP
PUSHB_1
 64
LT
IF
POP
PUSHB_1
 64
EIF
ENDF
PUSHB_1
 4
FDEF
PUSHB_1
 6

StartChar: exclam
Encoding: 33 33 4
Width: 299
Flags: W
LayerCount: 2
Fore
SplineSet
90 131.5 m 128,-1,1
 116 156 116 156 150.5 156 c 128,-1,2
 185 156 185 156 210 131 c 128,-1,3
 235 106 235 106 235 80 c 0,4,5
 235 37 235 37 210 11 c 0,6,7
 184 -16 184 -16 153 -16 c 0,8,9
 136 -16 136 -16 117 -8 c 0,10,11
 64 16 64 16 64 61.5 c 128,-1,0
 64 107 64 107 90 131.5 c 128,-1,1
75 700 m 1,12,-1
 223 700 l 1,13,-1
 203 208 l 1,14,-1
 95 208 l 1,15,-1
 75 700 l 1,12,-1
EndSplineSet
EndChar

StartChar: quotedbl
Encoding: 34 34 5
Width: 375
Flags: W
LayerCount: 2
Fore
SplineSet
38 715 m 1,0,-1
 164 715 l 1,1,-1
 134 480 l 1,2,-1
 68 480 l 1,3,-1
 38 715 l 1,0,-1
212 715 m 1,4,-1
 337 715 l 1,5,-1
 307 480 l 1,6,-1
 241 480 l 1,7,-1
 212 715 l 1,4,-1
EndSplineSet
EndChar

StartChar: numbersign
Encoding: 35 35 6
Width: 609
Flags: W
LayerCount: 2
Fore
SplineSet
226 274 m 1,0,-1
 341 274 l 1,1,-1
 374 446 l 1,2,-1
 259 446 l 1,3,-1
 226 274 l 1,0,-1
73 529 m 1,4,-1
 189 529 l 1,5,-1
 223 715 l 1,6,-1
 309 715 l 1,7,-1
 274 529 l 1,8,-1
 389 529 l 1,9,-1
 424 715 l 1,10,-1
 510 715 l 1,11,-1
 474 529 l 1,12,-1
 564 529 l 1,13,-1
 564 446 l 1,14,-1
 459 446 l 1,15,-1
 426 274 l 1,16,-1
 537 274 l 1,17,-1
 537 191 l 1,18,-1
 410 191 l 1,19,-1
 375 0 l 1,20,-1
 290 0 l 1,21,-1
 325 191 l 1,22,-1
 211 191 l 1,23,-1
 175 0 l 1,24,-1
 90 0 l 1,25,-1
 125 191 l 1,26,-1
 46 191 l 1,27,-1
 46 274 l 1,28,-1
 141 274 l 1,29,-1
 174 446 l 1,30,-1
 73 446 l 1,31,-1
 73 529 l 1,4,-1
EndSplineSet
EndChar

StartChar: dollar
Encoding: 36 36 7
Width: 616
Flags: W
LayerCount: 2
Fore
SplineSet
195 562 m 0,0,1
 195 506 195 506 277 462 c 1,2,-1
 277 643 l 1,3,4
 195 624 195 624 195 562 c 0,0,1
438 166 m 0,5,6
 438 204 438 204 413.5 228 c 128,-1,7
 389 252 389 252 351 272 c 1,8,-1
 351 65 l 1,9,10
 438 95 438 95 438 166 c 0,5,6
55 216 m 1,11,-1
 111 216 l 1,12,-1
 162 68 l 1,13,14
 209 53 209 53 273 53 c 2,15,-1
 277 53 l 1,16,-1
 277 304 l 1,17,-1
 248 317 l 1,18,19
 63 394 63 394 63 534 c 0,20,21
 63 651 63 651 190 696 c 0,22,23
 230 710 230 710 277 714 c 1,24,-1
 277 777 l 1,25,-1
 351 777 l 1,26,-1
 351 714 l 1,27,28
 456 708 456 708 525 684 c 1,29,-1
 525 500 l 1,30,-1
 469 500 l 1,31,-1
 420 641 l 1,32,33
 397 646 397 646 351 648 c 1,34,-1
 351 429 l 1,35,36
 362 424 362 424 383 416 c 0,37,38
 449 393 449 393 506.5 341 c 128,-1,39
 564 289 564 289 569 210 c 1,40,41
 569 61 569 61 439 9 c 0,42,43
 399 -7 399 -7 351 -12 c 1,44,-1
 351 -83 l 1,45,-1
 277 -83 l 1,46,-1
 277 -15 l 1,47,48
 148 -11 148 -11 55 32 c 1,49,-1
 55 216 l 1,11,-1
EndSplineSet
EndChar

StartChar: percent
Encoding: 37 37 8
Width: 746
Flags: W
LayerCount: 2
Fore
SplineSet
707 156.5 m 128,-1,1
 707 121 707 121 697 90 c 128,-1,2
 687 59 687 59 667 35.5 c 128,-1,3
 647 12 647 12 617.5 -1.5 c 128,-1,4
 588 -15 588 -15 550 -15 c 0,5,6
 476 -15 476 -15 434.5 33.5 c 128,-1,7
 393 82 393 82 393 137 c 128,-1,8
 393 192 393 192 403 223.5 c 128,-1,9
 413 255 413 255 433 278.5 c 128,-1,10
 453 302 453 302 482.5 315.5 c 128,-1,11
 512 329 512 329 550 329 c 128,-1,12
 588 329 588 329 617.5 315.5 c 128,-1,13
 647 302 647 302 667 278.5 c 128,-1,14
 687 255 687 255 697 223.5 c 128,-1,0
 707 192 707 192 707 156.5 c 128,-1,1
601 156.5 m 128,-1,16
 601 279 601 279 550 279 c 128,-1,17
 499 279 499 279 499 156.5 c 128,-1,18
 499 34 499 34 550 34 c 128,-1,15
 601 34 601 34 601 156.5 c 128,-1,16
352 543 m 128,-1,20
 352 507 352 507 342 476 c 128,-1,21
 332 445 332 445 312.5 421.5 c 128,-1,22
 293 398 293 398 263.5 384.5 c 128,-1,23
 234 371 234 371 196 371 c 128,-1,24
 158 371 158 371 128.5 384.5 c 128,-1,25
 99 398 99 398 79 421.5 c 128,-1,26
 59 445 59 445 49 476 c 128,-1,27
 39 507 39 507 39 543 c 128,-1,28
 39 579 39 579 49 610 c 128,-1,29
 59 641 59 641 79 664.5 c 128,-1,30
 99 688 99 688 128.5 701.5 c 128,-1,31
 158 715 158 715 196 715 c 128,-1,32
 234 715 234 715 263.5 701.5 c 128,-1,33
 293 688 293 688 312.5 664.5 c 128,-1,34
 332 641 332 641 342 610 c 128,-1,19
 352 579 352 579 352 543 c 128,-1,20
241 0 m 1,35,-1
 155 0 l 1,36,-1
 504 700 l 1,37,-1
 589 700 l 1,38,-1
 241 0 l 1,35,-1
145 543 m 128,-1,40
 145 420 145 420 195.5 420 c 128,-1,41
 246 420 246 420 246 543 c 128,-1,42
 246 666 246 666 195.5 666 c 128,-1,39
 145 666 145 666 145 543 c 128,-1,40
EndSplineSet
EndChar

StartChar: ampersand
Encoding: 38 38 9
Width: 772
Flags: W
LayerCount: 2
Fore
SplineSet
380 562 m 0,0,1
 380 603 380 603 359 625.5 c 128,-1,2
 338 648 338 648 303 648 c 128,-1,3
 268 648 268 648 247 626.5 c 128,-1,4
 226 605 226 605 226 574 c 0,5,6
 226 514 226 514 280 458 c 1,7,-1
 310 428 l 1,8,9
 380 484 380 484 380 562 c 0,0,1
173 173 m 0,10,11
 173 121 173 121 206 90.5 c 128,-1,12
 239 60 239 60 288 60 c 0,13,14
 384 60 384 60 442 118 c 1,15,-1
 241 310 l 1,16,17
 173 253 173 253 173 173 c 0,10,11
476 400 m 1,18,-1
 691 400 l 1,19,-1
 691 345 l 1,20,-1
 606 323 l 1,21,22
 593 237 593 237 562 176 c 1,23,-1
 662 81 l 1,24,-1
 773 55 l 1,25,-1
 773 0 l 1,26,-1
 565 0 l 1,27,-1
 491 71 l 1,28,29
 405 -15 405 -15 284.5 -15 c 128,-1,30
 164 -15 164 -15 100 31.5 c 128,-1,31
 36 78 36 78 36 166 c 0,32,33
 36 292 36 292 188 365 c 1,34,35
 98 465 98 465 98 547 c 128,-1,36
 98 629 98 629 152 672 c 128,-1,37
 206 715 206 715 280 715 c 0,38,39
 399 715 399 715 453.5 669.5 c 128,-1,40
 508 624 508 624 508 558 c 0,41,42
 508 450 508 450 362 372 c 1,43,-1
 510 226 l 1,44,45
 526 265 526 265 536 323 c 1,46,-1
 476 345 l 1,47,-1
 476 400 l 1,18,-1
EndSplineSet
EndChar

StartChar: quotesingle
Encoding: 39 39 10
Width: 212
Flags: W
LayerCount: 2
Fore
SplineSet
38 715 m 1,0,-1
 174 715 l 1,1,-1
 144 480 l 1,2,-1
 68 480 l 1,3,-1
 38 715 l 1,0,-1
EndSplineSet
EndChar

StartChar: parenleft
Encoding: 40 40 11
Width: 344
Flags: W
LayerCount: 2
Fore
SplineSet
148 250 m 0,0,1
 148 102 148 102 199.5 -34.5 c 128,-1,2
 251 -171 251 -171 345 -263 c 1,3,-1
 309 -307 l 1,4,5
 118 -178 118 -178 50 79 c 0,6,7
 27 168 27 168 27 255 c 0,8,9
 27 420 27 420 111 578 c 0,10,11
 188 723 188 723 309 807 c 1,12,-1
 344 761 l 1,13,14
 202 619 202 619 161 394 c 0,15,16
 148 323 148 323 148 250 c 0,0,1
EndSplineSet
EndChar

StartChar: parenright
Encoding: 41 41 12
Width: 344
Flags: W
LayerCount: 2
Fore
SplineSet
195 250 m 0,0,1
 195 395 195 395 144 532 c 128,-1,2
 93 669 93 669 -1 761 c 1,3,-1
 34 807 l 1,4,5
 227 671 227 671 292 424 c 0,6,7
 314 341 314 341 314 249 c 0,8,9
 314 73 314 73 236.5 -75 c 128,-1,10
 159 -223 159 -223 34 -307 c 1,11,-1
 -1 -263 l 1,12,13
 140 -125 140 -125 182 104 c 0,14,15
 195 176 195 176 195 250 c 0,0,1
EndSplineSet
EndChar

StartChar: asterisk
Encoding: 42 42 13
Width: 477
Flags: W
LayerCount: 2
Fore
SplineSet
401 680 m 1,0,-1
 433 583 l 1,1,-1
 286 555 l 1,2,-1
 390 449 l 1,3,-1
 307 388 l 1,4,-1
 238 520 l 1,5,-1
 169 387 l 1,6,-1
 84 452 l 1,7,-1
 191 556 l 1,8,-1
 44 583 l 1,9,-1
 76 681 l 1,10,-1
 209 612 l 1,11,-1
 186 760 l 1,12,-1
 290 760 l 1,13,-1
 267 612 l 1,14,-1
 401 680 l 1,0,-1
EndSplineSet
EndChar

StartChar: plus
Encoding: 43 43 14
Width: 545
Flags: W
LayerCount: 2
Fore
SplineSet
315 586 m 1,0,-1
 315 400 l 1,1,-1
 502 400 l 1,2,-1
 502 313 l 1,3,-1
 315 313 l 1,4,-1
 315 127 l 1,5,-1
 229 127 l 1,6,-1
 229 313 l 1,7,-1
 43 313 l 1,8,-1
 43 400 l 1,9,-1
 229 400 l 1,10,-1
 229 586 l 1,11,-1
 315 586 l 1,0,-1
EndSplineSet
EndChar

StartChar: comma
Encoding: 44 44 15
Width: 265
Flags: W
LayerCount: 2
Fore
SplineSet
129 141 m 0,0,1
 222 141 222 141 222 43 c 0,2,3
 222 -14 222 -14 174 -78 c 128,-1,4
 126 -142 126 -142 72 -177 c 1,5,-1
 25 -135 l 1,6,7
 86 -73 86 -73 118 -5 c 1,8,-1
 37 46 l 1,9,10
 37 86 37 86 64 114 c 1,11,12
 92 141 92 141 129 141 c 0,0,1
EndSplineSet
EndChar

StartChar: hyphen
Encoding: 45 45 16
Width: 335
Flags: W
LayerCount: 2
Fore
SplineSet
58 322 m 1,0,-1
 277 322 l 1,1,-1
 277 226 l 1,2,-1
 58 226 l 1,3,-1
 58 322 l 1,0,-1
EndSplineSet
EndChar

StartChar: period
Encoding: 46 46 17
Width: 253
Flags: W
LayerCount: 2
Fore
SplineSet
67 123.5 m 128,-1,1
 93 148 93 148 127.5 148 c 128,-1,2
 162 148 162 148 187 123 c 128,-1,3
 212 98 212 98 212 72 c 0,4,5
 212 29 212 29 188 3 c 1,6,7
 161 -24 161 -24 130 -24 c 0,8,9
 113 -24 113 -24 94 -16 c 0,10,11
 41 8 41 8 41 53.5 c 128,-1,0
 41 99 41 99 67 123.5 c 128,-1,1
EndSplineSet
EndChar

StartChar: slash
Encoding: 47 47 18
Width: 462
Flags: W
LayerCount: 2
Fore
SplineSet
124 0 m 1,0,-1
 29 0 l 1,1,-1
 340 700 l 1,2,-1
 434 700 l 1,3,-1
 124 0 l 1,0,-1
EndSplineSet
EndChar

StartChar: zero
Encoding: 48 48 19
Width: 632
Flags: W
LayerCount: 2
Fore
SplineSet
214 350 m 128,-1,1
 214 54 214 54 316 54 c 128,-1,2
 418 54 418 54 418 350 c 128,-1,3
 418 646 418 646 316 646 c 128,-1,0
 214 646 214 646 214 350 c 128,-1,1
48 350 m 128,-1,5
 48 503 48 503 118 609 c 128,-1,6
 188 715 188 715 316 715 c 128,-1,7
 444 715 444 715 514 609 c 128,-1,8
 584 503 584 503 584 350 c 128,-1,9
 584 197 584 197 514 91 c 128,-1,10
 444 -15 444 -15 316 -15 c 128,-1,11
 188 -15 188 -15 118 91 c 128,-1,4
 48 197 48 197 48 350 c 128,-1,5
EndSplineSet
EndChar

StartChar: one
Encoding: 49 49 20
Width: 442
Flags: W
LayerCount: 2
Fore
SplineSet
409 0 m 1,0,-1
 47 0 l 1,1,-1
 47 53 l 1,2,-1
 162 73 l 1,3,-1
 162 589 l 1,4,-1
 42 538 l 1,5,-1
 26 589 l 1,6,-1
 237 700 l 1,7,-1
 324 700 l 1,8,-1
 324 69 l 1,9,-1
 409 53 l 1,10,-1
 409 0 l 1,0,-1
EndSplineSet
EndChar

StartChar: two
Encoding: 50 50 21
Width: 544
Flags: W
LayerCount: 2
Fore
SplineSet
467 548 m 0,0,1
 467 366 467 366 204 127 c 1,2,-1
 413 127 l 1,3,-1
 452 205 l 1,4,-1
 506 205 l 1,5,-1
 478 0 l 1,6,-1
 31 0 l 1,7,-1
 31 70 l 1,8,9
 216 255 216 255 282 435 c 0,10,11
 300 486 300 486 300 522 c 0,12,13
 300 583 300 583 278.5 619.5 c 128,-1,14
 257 656 257 656 221 656 c 1,15,-1
 103 538 l 1,16,17
 49 588 49 588 46 665 c 1,18,19
 142 715 142 715 272.5 715 c 128,-1,20
 403 715 403 715 450 624 c 0,21,22
 467 593 467 593 467 548 c 0,0,1
EndSplineSet
EndChar

StartChar: three
Encoding: 51 51 22
Width: 546
Flags: W
LayerCount: 2
Fore
SplineSet
218 715 m 0,0,1
 357 715 357 715 411 670 c 128,-1,2
 465 625 465 625 465 561 c 0,3,4
 465 426 465 426 305 379 c 1,5,6
 403 364 403 364 452.5 313.5 c 128,-1,7
 502 263 502 263 502 201 c 0,8,9
 502 90 502 90 424 37.5 c 128,-1,10
 346 -15 346 -15 230.5 -15 c 128,-1,11
 115 -15 115 -15 21 26 c 1,12,-1
 42 85 l 1,13,14
 120 57 120 57 170 57 c 0,15,16
 252 57 252 57 293.5 95 c 128,-1,17
 335 133 335 133 335 197 c 128,-1,18
 335 261 335 261 285.5 298 c 128,-1,19
 236 335 236 335 157 335 c 1,20,-1
 157 400 l 1,21,22
 253 400 253 400 288 485 c 0,23,24
 299 512 299 512 299 542 c 0,25,26
 299 594 299 594 271.5 626 c 128,-1,27
 244 658 244 658 214 658 c 1,28,-1
 102 546 l 1,29,30
 75 564 75 564 62.5 608.5 c 128,-1,31
 50 653 50 653 49 667 c 1,32,33
 134 715 134 715 218 715 c 0,0,1
EndSplineSet
EndChar

StartChar: four
Encoding: 52 52 23
Width: 582
Flags: W
LayerCount: 2
Fore
SplineSet
319 207 m 1,0,-1
 319 455 l 1,1,-1
 132 207 l 1,2,-1
 319 207 l 1,0,-1
466 700 m 1,3,-1
 466 207 l 1,4,-1
 545 207 l 1,5,-1
 545 128 l 1,6,-1
 466 128 l 1,7,-1
 466 -15 l 1,8,-1
 319 -15 l 1,9,-1
 319 128 l 1,10,-1
 12 128 l 1,11,-1
 12 187 l 1,12,-1
 393 700 l 1,13,-1
 466 700 l 1,3,-1
EndSplineSet
EndChar

StartChar: five
Encoding: 53 53 24
Width: 538
Flags: W
LayerCount: 2
Fore
SplineSet
277.5 96.5 m 128,-1,1
 325 137 325 137 325 216.5 c 128,-1,2
 325 296 325 296 285 334.5 c 128,-1,3
 245 373 245 373 194.5 373 c 128,-1,4
 144 373 144 373 97 362 c 1,5,-1
 75 376 l 1,6,-1
 104 700 l 1,7,-1
 389 700 l 1,8,-1
 456 771 l 1,9,-1
 507 747 l 1,10,-1
 437 574 l 1,11,-1
 169 574 l 1,12,-1
 156 440 l 1,13,14
 209 451 209 451 261 451 c 0,15,16
 368 451 368 451 429 389 c 128,-1,17
 490 327 490 327 490 219.5 c 128,-1,18
 490 112 490 112 405.5 48.5 c 128,-1,19
 321 -15 321 -15 208 -15 c 128,-1,20
 95 -15 95 -15 21 27 c 1,21,-1
 45 81 l 1,22,23
 102 56 102 56 166 56 c 128,-1,0
 230 56 230 56 277.5 96.5 c 128,-1,1
EndSplineSet
EndChar

StartChar: six
Encoding: 54 54 25
Width: 580
Flags: W
LayerCount: 2
Fore
SplineSet
199 291 m 2,0,1
 199 50 199 50 288 50 c 0,2,3
 331 50 331 50 358 94 c 128,-1,4
 385 138 385 138 385 203.5 c 128,-1,5
 385 269 385 269 354.5 309 c 128,-1,6
 324 349 324 349 278 349 c 128,-1,7
 232 349 232 349 200 327 c 1,8,9
 199 318 199 318 199 309 c 2,10,-1
 199 291 l 2,0,1
331 440 m 128,-1,12
 394 440 394 440 433 421.5 c 128,-1,13
 472 403 472 403 498 371.5 c 128,-1,14
 524 340 524 340 536.5 299 c 128,-1,15
 549 258 549 258 549 212 c 0,16,17
 549 116 549 116 485 50.5 c 128,-1,18
 421 -15 421 -15 303 -15 c 128,-1,19
 185 -15 185 -15 115.5 72.5 c 128,-1,20
 46 160 46 160 46 300 c 0,21,22
 46 481 46 481 159 594 c 128,-1,23
 272 707 272 707 457 707 c 2,24,-1
 465 707 l 1,25,-1
 463 639 l 1,26,27
 303 639 303 639 236 489 c 0,28,29
 216 443 216 443 207 388 c 1,30,11
 268 440 268 440 331 440 c 128,-1,12
EndSplineSet
EndChar

StartChar: seven
Encoding: 55 55 26
Width: 497
Flags: W
LayerCount: 2
Fore
SplineSet
496 700 m 1,0,-1
 496 656 l 1,1,2
 297 387 297 387 259 0 c 1,3,-1
 99 0 l 1,4,5
 124 203 124 203 262 452 c 0,6,7
 300 521 300 521 336 573 c 1,8,-1
 117 573 l 1,9,-1
 80 495 l 1,10,-1
 26 495 l 1,11,-1
 54 700 l 1,12,-1
 496 700 l 1,0,-1
EndSplineSet
EndChar

StartChar: eight
Encoding: 56 56 27
Width: 589
Flags: W
LayerCount: 2
Fore
SplineSet
393 543 m 0,0,1
 393 646 393 646 305 646 c 0,2,3
 255 646 255 646 234 600 c 0,4,5
 228 586 228 586 228 566 c 0,6,7
 228 511 228 511 302 462 c 1,8,-1
 348 433 l 1,9,10
 393 489 393 489 393 543 c 0,0,1
176 162 m 0,11,12
 176 112 176 112 205.5 81.5 c 128,-1,13
 235 51 235 51 279 51 c 128,-1,14
 323 51 323 51 352.5 78.5 c 128,-1,15
 382 106 382 106 382 145 c 128,-1,16
 382 184 382 184 366.5 214.5 c 128,-1,17
 351 245 351 245 300 282 c 2,18,-1
 252 317 l 1,19,20
 176 239 176 239 176 162 c 0,11,12
188 361 m 1,21,22
 74 450 74 450 74 539 c 128,-1,23
 74 628 74 628 136.5 671.5 c 128,-1,24
 199 715 199 715 291.5 715 c 128,-1,25
 384 715 384 715 447.5 673 c 128,-1,26
 511 631 511 631 511 548 c 128,-1,27
 511 465 511 465 418 389 c 1,28,29
 537 305 537 305 537 189 c 0,30,31
 537 99 537 99 466 42 c 128,-1,32
 395 -15 395 -15 286 -15 c 128,-1,33
 177 -15 177 -15 116.5 32 c 128,-1,34
 56 79 56 79 56 172.5 c 128,-1,35
 56 266 56 266 188 361 c 1,21,22
EndSplineSet
EndChar

StartChar: nine
Encoding: 57 57 28
Width: 580
Flags: W
LayerCount: 2
Fore
SplineSet
286 650 m 0,0,1
 249 650 249 650 222 605.5 c 128,-1,2
 195 561 195 561 195 495.5 c 128,-1,3
 195 430 195 430 225.5 390 c 128,-1,4
 256 350 256 350 301 350 c 128,-1,5
 346 350 346 350 380 372 c 1,6,-1
 381 409 l 1,7,8
 381 650 381 650 286 650 c 0,0,1
250 259 m 128,-1,10
 186 259 186 259 147 277.5 c 128,-1,11
 108 296 108 296 82 327.5 c 128,-1,12
 56 359 56 359 43.5 400 c 128,-1,13
 31 441 31 441 31 487 c 0,14,15
 31 583 31 583 95 649 c 128,-1,16
 159 715 159 715 277 715 c 128,-1,17
 395 715 395 715 464.5 627.5 c 128,-1,18
 534 540 534 540 534 400 c 0,19,20
 534 218 534 218 421 101.5 c 128,-1,21
 308 -15 308 -15 123 -15 c 2,22,-1
 115 -15 l 1,23,-1
 116 53 l 1,24,25
 276 53 276 53 344 208 c 0,26,27
 364 256 364 256 373 312 c 1,28,9
 314 259 314 259 250 259 c 128,-1,10
EndSplineSet
EndChar

StartChar: colon
Encoding: 58 58 29
Width: 285
Flags: W
LayerCount: 2
Fore
SplineSet
83 463.5 m 128,-1,1
 109 488 109 488 143.5 488 c 128,-1,2
 178 488 178 488 203 463 c 128,-1,3
 228 438 228 438 228 412 c 0,4,5
 228 369 228 369 203.5 343 c 128,-1,6
 179 317 179 317 152.5 317 c 128,-1,7
 126 317 126 317 110.5 324 c 128,-1,8
 95 331 95 331 83 343 c 0,9,10
 57 369 57 369 57 404 c 128,-1,0
 57 439 57 439 83 463.5 c 128,-1,1
83 130.5 m 128,-1,12
 109 155 109 155 143.5 155 c 128,-1,13
 178 155 178 155 203 130 c 128,-1,14
 228 105 228 105 228 79 c 0,15,16
 228 36 228 36 204 10 c 1,17,18
 177 -17 177 -17 146 -17 c 0,19,20
 129 -17 129 -17 110 -9 c 0,21,22
 57 15 57 15 57 60.5 c 128,-1,11
 57 106 57 106 83 130.5 c 128,-1,12
EndSplineSet
EndChar

StartChar: semicolon
Encoding: 59 59 30
Width: 294
Flags: W
LayerCount: 2
Fore
SplineSet
85 463.5 m 128,-1,1
 111 488 111 488 145.5 488 c 128,-1,2
 180 488 180 488 205 463 c 128,-1,3
 230 438 230 438 230 412 c 0,4,5
 230 369 230 369 205.5 343 c 128,-1,6
 181 317 181 317 154.5 317 c 128,-1,7
 128 317 128 317 112.5 324 c 128,-1,8
 97 331 97 331 85 343 c 0,9,10
 59 369 59 369 59 404 c 128,-1,0
 59 439 59 439 85 463.5 c 128,-1,1
147 141 m 0,11,12
 240 141 240 141 240 43 c 0,13,14
 240 -14 240 -14 192 -78 c 128,-1,15
 144 -142 144 -142 90 -177 c 1,16,-1
 43 -135 l 1,17,18
 104 -73 104 -73 136 -5 c 1,19,-1
 55 46 l 1,20,21
 55 86 55 86 82.5 113.5 c 128,-1,22
 110 141 110 141 147 141 c 0,11,12
EndSplineSet
EndChar

StartChar: less
Encoding: 60 60 31
Width: 541
Flags: W
LayerCount: 2
Fore
SplineSet
39 391 m 1,0,-1
 469 622 l 1,1,-1
 469 522 l 1,2,-1
 163 357 l 1,3,-1
 469 193 l 1,4,-1
 469 93 l 1,5,-1
 39 324 l 1,6,-1
 39 391 l 1,0,-1
EndSplineSet
EndChar

StartChar: equal
Encoding: 61 61 32
Width: 589
Flags: W
LayerCount: 2
Fore
SplineSet
65 483 m 1,0,-1
 524 483 l 1,1,-1
 524 396 l 1,2,-1
 65 396 l 1,3,-1
 65 483 l 1,0,-1
65 317 m 1,4,-1
 524 317 l 1,5,-1
 524 231 l 1,6,-1
 65 231 l 1,7,-1
 65 317 l 1,4,-1
EndSplineSet
EndChar

StartChar: greater
Encoding: 62 62 33
Width: 541
Flags: W
LayerCount: 2
Fore
SplineSet
502 324 m 1,0,-1
 72 93 l 1,1,-1
 72 193 l 1,2,-1
 378 357 l 1,3,-1
 72 522 l 1,4,-1
 72 622 l 1,5,-1
 502 391 l 1,6,-1
 502 324 l 1,0,-1
EndSplineSet
EndChar

StartChar: question
Encoding: 63 63 34
Width: 491
Flags: W
LayerCount: 2
Fore
SplineSet
150 131.5 m 128,-1,1
 176 156 176 156 210.5 156 c 128,-1,2
 245 156 245 156 270 131 c 128,-1,3
 295 106 295 106 295 80 c 0,4,5
 295 37 295 37 270 11 c 0,6,7
 244 -16 244 -16 213 -16 c 0,8,9
 196 -16 196 -16 177 -8 c 0,10,11
 124 16 124 16 124 61.5 c 128,-1,0
 124 107 124 107 150 131.5 c 128,-1,1
236 715 m 128,-1,13
 347 715 347 715 398.5 669 c 128,-1,14
 450 623 450 623 450 544 c 0,15,16
 450 442 450 442 332 345 c 1,17,-1
 255 285 l 1,18,-1
 240 192 l 1,19,-1
 180 192 l 1,20,-1
 165 314 l 1,21,-1
 217 374 l 1,22,23
 293 465 293 465 293 554 c 0,24,25
 293 601 293 601 266 632 c 128,-1,26
 239 663 239 663 201 663 c 1,27,-1
 83 550 l 1,28,29
 42 591 42 591 36 667 c 1,30,12
 125 715 125 715 236 715 c 128,-1,13
EndSplineSet
EndChar

StartChar: at
Encoding: 64 64 35
Width: 918
Flags: W
LayerCount: 2
Fore
SplineSet
407 175 m 0,0,1
 447 175 447 175 498 256 c 0,2,3
 513 278 513 278 524 301 c 1,4,-1
 570 480 l 1,5,6
 560 482 560 482 537.5 482 c 128,-1,7
 515 482 515 482 485.5 456.5 c 128,-1,8
 456 431 456 431 434 392 c 0,9,10
 386 308 386 308 386 213 c 0,11,12
 386 175 386 175 407 175 c 0,0,1
52 285.5 m 128,-1,14
 52 472 52 472 182 593.5 c 128,-1,15
 312 715 312 715 492 715 c 128,-1,16
 672 715 672 715 775 627 c 128,-1,17
 878 539 878 539 878 404.5 c 128,-1,18
 878 270 878 270 775.5 184.5 c 128,-1,19
 673 99 673 99 530 99 c 0,20,21
 484 99 484 99 484 137 c 0,22,23
 484 157 484 157 492 181 c 1,24,25
 422 99 422 99 344 99 c 0,26,27
 251 99 251 99 251 225 c 128,-1,28
 251 351 251 351 337.5 443 c 128,-1,29
 424 535 424 535 525.5 535 c 128,-1,30
 627 535 627 535 703 496 c 1,31,-1
 620 174 l 1,32,33
 743 206 743 206 782 326 c 0,34,35
 794 365 794 365 794 414 c 0,36,37
 794 516 794 516 712 583 c 128,-1,38
 630 650 630 650 500.5 650 c 128,-1,39
 371 650 371 650 268 550.5 c 128,-1,40
 165 451 165 451 165 291.5 c 128,-1,41
 165 132 165 132 263.5 45 c 128,-1,42
 362 -42 362 -42 508 -42 c 0,43,44
 606 -42 606 -42 694 -5 c 1,45,-1
 714 -51 l 1,46,47
 610 -110 610 -110 499 -110 c 0,48,49
 288 -110 288 -110 170 -5.5 c 128,-1,13
 52 99 52 99 52 285.5 c 128,-1,14
EndSplineSet
EndChar

StartChar: A
Encoding: 65 65 36
Width: 732
Flags: W
LayerCount: 2
Fore
SplineSet
240 262 m 1,0,-1
 398 262 l 1,1,-1
 320 475 l 1,2,-1
 240 262 l 1,0,-1
734 0 m 1,3,-1
 395 0 l 1,4,-1
 395 56 l 1,5,-1
 466 73 l 1,6,-1
 423 193 l 1,7,-1
 213 193 l 1,8,-1
 168 76 l 1,9,-1
 252 56 l 1,10,-1
 252 0 l 1,11,-1
 -10 0 l 1,12,-1
 -10 56 l 1,13,-1
 88 79 l 1,14,-1
 327 705 l 1,15,-1
 414 705 l 1,16,-1
 638 79 l 1,17,-1
 734 56 l 1,18,-1
 734 0 l 1,3,-1
EndSplineSet
EndChar

StartChar: B
Encoding: 66 66 37
Width: 676
Flags: W
LayerCount: 2
Fore
SplineSet
428 521 m 0,0,1
 428 629 428 629 296 629 c 2,2,-1
 288 629 l 1,3,-1
 288 399 l 1,4,-1
 302 399 l 2,5,6
 386 399 386 399 418 468 c 0,7,8
 428 491 428 491 428 521 c 0,0,1
323 71 m 2,9,10
 478 71 478 71 478 198.5 c 128,-1,11
 478 326 478 326 328 326 c 2,12,-1
 288 326 l 1,13,-1
 288 71 l 1,14,-1
 323 71 l 2,9,10
339 700 m 2,15,16
 594 700 594 700 594 530 c 0,17,18
 594 477 594 477 555.5 433 c 128,-1,19
 517 389 517 389 463 376 c 1,20,-1
 463 373 l 1,21,22
 545 358 545 358 594.5 312 c 128,-1,23
 644 266 644 266 644 209 c 0,24,25
 644 108 644 108 567.5 54 c 128,-1,26
 491 0 491 0 376 0 c 2,27,-1
 33 0 l 1,28,-1
 33 56 l 1,29,-1
 125 78 l 1,30,-1
 125 622 l 1,31,-1
 33 644 l 1,32,-1
 33 700 l 1,33,-1
 339 700 l 2,15,16
EndSplineSet
EndChar

StartChar: C
Encoding: 67 67 38
Width: 656
Flags: W
LayerCount: 2
Fore
SplineSet
414.5 715 m 128,-1,1
 510 715 510 715 605 676 c 1,2,-1
 605 491 l 1,3,-1
 549 491 l 1,4,-1
 505 632 l 1,5,6
 466 638 466 638 448 638 c 0,7,8
 322 638 322 638 265.5 568 c 128,-1,9
 209 498 209 498 209 349.5 c 128,-1,10
 209 201 209 201 262.5 131.5 c 128,-1,11
 316 62 316 62 431 62 c 0,12,13
 452 62 452 62 487 67 c 1,14,-1
 561 218 l 1,15,-1
 617 218 l 1,16,-1
 591 34 l 1,17,18
 509 -15 509 -15 393 -15 c 0,19,20
 224 -15 224 -15 133.5 80.5 c 128,-1,21
 43 176 43 176 43 350 c 0,22,23
 43 617 43 617 250 690 c 0,24,0
 319 715 319 715 414.5 715 c 128,-1,1
EndSplineSet
EndChar

StartChar: D
Encoding: 68 68 39
Width: 751
Flags: W
LayerCount: 2
Fore
SplineSet
542 350 m 0,0,1
 542 498 542 498 477.5 560.5 c 128,-1,2
 413 623 413 623 318 623 c 2,3,-1
 288 623 l 1,4,-1
 288 77 l 1,5,-1
 318 77 l 2,6,7
 470 77 470 77 522 215 c 0,8,9
 542 268 542 268 542 350 c 0,0,1
33 700 m 1,10,-1
 333 700 l 2,11,12
 515 700 515 700 611.5 603.5 c 128,-1,13
 708 507 708 507 708 351 c 128,-1,14
 708 195 708 195 612 97.5 c 128,-1,15
 516 0 516 0 333 0 c 2,16,-1
 33 0 l 1,17,-1
 33 56 l 1,18,-1
 125 78 l 1,19,-1
 125 622 l 1,20,-1
 33 644 l 1,21,-1
 33 700 l 1,10,-1
EndSplineSet
EndChar

StartChar: E
Encoding: 69 69 40
Width: 630
Flags: W
LayerCount: 2
Fore
SplineSet
288 77 m 1,0,-1
 467 77 l 1,1,-1
 535 216 l 1,2,-1
 594 216 l 1,3,-1
 564 0 l 1,4,-1
 33 0 l 1,5,-1
 33 56 l 1,6,-1
 125 78 l 1,7,-1
 125 622 l 1,8,-1
 33 644 l 1,9,-1
 33 700 l 1,10,-1
 564 700 l 1,11,-1
 564 495 l 1,12,-1
 505 495 l 1,13,-1
 465 623 l 1,14,-1
 288 623 l 1,15,-1
 288 391 l 1,16,-1
 474 408 l 1,17,-1
 474 309 l 1,18,-1
 288 324 l 1,19,-1
 288 77 l 1,0,-1
EndSplineSet
EndChar

StartChar: F
Encoding: 70 70 41
Width: 582
Flags: W
LayerCount: 2
Fore
SplineSet
400 0 m 1,0,-1
 33 0 l 1,1,-1
 33 56 l 1,2,-1
 125 78 l 1,3,-1
 125 622 l 1,4,-1
 33 644 l 1,5,-1
 33 700 l 1,6,-1
 559 700 l 1,7,-1
 559 495 l 1,8,-1
 503 495 l 1,9,-1
 463 623 l 1,10,-1
 288 623 l 1,11,-1
 288 393 l 1,12,-1
 474 408 l 1,13,-1
 474 309 l 1,14,-1
 288 323 l 1,15,-1
 288 78 l 1,16,-1
 400 56 l 1,17,-1
 400 0 l 1,0,-1
EndSplineSet
EndChar

StartChar: G
Encoding: 71 71 42
Width: 729
Flags: W
LayerCount: 2
Fore
SplineSet
208 350 m 0,0,1
 208 57 208 57 447 57 c 2,2,-1
 460 57 l 2,3,4
 467 57 467 57 476 58 c 1,5,-1
 476 248 l 1,6,-1
 362 283 l 1,7,-1
 362 329 l 1,8,-1
 713 329 l 1,9,-1
 713 283 l 1,10,-1
 639 248 l 1,11,-1
 639 34 l 1,12,13
 550 -15 550 -15 390.5 -15 c 128,-1,14
 231 -15 231 -15 136.5 80.5 c 128,-1,15
 42 176 42 176 42 349.5 c 128,-1,16
 42 523 42 523 142 619 c 128,-1,17
 242 715 242 715 429 715 c 0,18,19
 533 715 533 715 624 676 c 1,20,-1
 624 491 l 1,21,-1
 568 491 l 1,22,-1
 522 639 l 1,23,24
 496 643 496 643 452 643 c 0,25,26
 347 643 347 643 277.5 568.5 c 128,-1,27
 208 494 208 494 208 350 c 0,0,1
EndSplineSet
EndChar

StartChar: H
Encoding: 72 72 43
Width: 825
Flags: W
LayerCount: 2
Fore
SplineSet
792 0 m 1,0,-1
 445 0 l 1,1,-1
 445 56 l 1,2,-1
 537 78 l 1,3,-1
 537 315 l 1,4,-1
 288 315 l 1,5,-1
 288 78 l 1,6,-1
 380 56 l 1,7,-1
 380 0 l 1,8,-1
 33 0 l 1,9,-1
 33 56 l 1,10,-1
 125 78 l 1,11,-1
 125 622 l 1,12,-1
 33 644 l 1,13,-1
 33 700 l 1,14,-1
 380 700 l 1,15,-1
 380 644 l 1,16,-1
 288 622 l 1,17,-1
 288 392 l 1,18,-1
 537 392 l 1,19,-1
 537 622 l 1,20,-1
 445 644 l 1,21,-1
 445 700 l 1,22,-1
 792 700 l 1,23,-1
 792 644 l 1,24,-1
 700 622 l 1,25,-1
 700 78 l 1,26,-1
 792 56 l 1,27,-1
 792 0 l 1,0,-1
EndSplineSet
EndChar

StartChar: I
Encoding: 73 73 44
Width: 413
Flags: W
LayerCount: 2
Fore
SplineSet
380 0 m 1,0,-1
 33 0 l 1,1,-1
 33 56 l 1,2,-1
 125 78 l 1,3,-1
 125 622 l 1,4,-1
 33 644 l 1,5,-1
 33 700 l 1,6,-1
 380 700 l 1,7,-1
 380 644 l 1,8,-1
 288 622 l 1,9,-1
 288 78 l 1,10,-1
 380 56 l 1,11,-1
 380 0 l 1,0,-1
EndSplineSet
EndChar

StartChar: J
Encoding: 74 74 45
Width: 393
Flags: W
LayerCount: 2
Fore
SplineSet
117 150 m 2,0,-1
 117 622 l 1,1,-1
 25 644 l 1,2,-1
 25 700 l 1,3,-1
 372 700 l 1,4,-1
 372 644 l 1,5,-1
 280 622 l 1,6,-1
 280 150 l 2,7,8
 280 45 280 45 210.5 -42.5 c 128,-1,9
 141 -130 141 -130 63 -163 c 1,10,-1
 4 -103 l 1,11,12
 117 -24 117 -24 117 150 c 2,0,-1
EndSplineSet
EndChar

StartChar: K
Encoding: 75 75 46
Width: 761
Flags: W
LayerCount: 2
Fore
SplineSet
465 700 m 1,0,-1
 725 700 l 1,1,-1
 725 644 l 1,2,-1
 630 622 l 1,3,-1
 462 413 l 1,4,-1
 676 98 l 1,5,-1
 770 56 l 1,6,-1
 770 0 l 1,7,-1
 538 0 l 1,8,-1
 310 349 l 1,9,-1
 526 624 l 1,10,-1
 465 644 l 1,11,-1
 465 700 l 1,0,-1
33 700 m 1,12,-1
 380 700 l 1,13,-1
 380 644 l 1,14,-1
 288 622 l 1,15,-1
 288 78 l 1,16,-1
 380 56 l 1,17,-1
 380 0 l 1,18,-1
 33 0 l 1,19,-1
 33 56 l 1,20,-1
 125 78 l 1,21,-1
 125 622 l 1,22,-1
 33 644 l 1,23,-1
 33 700 l 1,12,-1
EndSplineSet
EndChar

StartChar: L
Encoding: 76 76 47
Width: 604
Flags: W
LayerCount: 2
Fore
SplineSet
33 0 m 1,0,-1
 33 56 l 1,1,-1
 125 78 l 1,2,-1
 125 622 l 1,3,-1
 33 644 l 1,4,-1
 33 700 l 1,5,-1
 380 700 l 1,6,-1
 380 644 l 1,7,-1
 288 622 l 1,8,-1
 288 77 l 1,9,-1
 470 77 l 1,10,-1
 538 216 l 1,11,-1
 594 216 l 1,12,-1
 564 0 l 1,13,-1
 33 0 l 1,0,-1
EndSplineSet
EndChar

StartChar: M
Encoding: 77 77 48
Width: 1021
Flags: W
LayerCount: 2
Fore
SplineSet
966 700 m 1,0,-1
 966 644 l 1,1,-1
 877 623 l 1,2,-1
 912 78 l 1,3,-1
 1008 56 l 1,4,-1
 1008 0 l 1,5,-1
 657 0 l 1,6,-1
 657 56 l 1,7,-1
 745 77 l 1,8,-1
 718 497 l 1,9,-1
 494 -5 l 1,10,-1
 429 -5 l 1,11,-1
 212 500 l 1,12,-1
 189 77 l 1,13,-1
 278 56 l 1,14,-1
 278 0 l 1,15,-1
 16 0 l 1,16,-1
 16 56 l 1,17,-1
 111 79 l 1,18,-1
 142 623 l 1,19,-1
 54 644 l 1,20,-1
 56 700 l 1,21,-1
 304 700 l 1,22,-1
 510 223 l 1,23,-1
 724 700 l 1,24,-1
 966 700 l 1,0,-1
EndSplineSet
EndChar

StartChar: N
Encoding: 78 78 49
Width: 833
Flags: W
LayerCount: 2
Fore
SplineSet
717 0 m 1,0,-1
 620 0 l 1,1,-1
 205 454 l 1,2,-1
 205 78 l 1,3,-1
 297 56 l 1,4,-1
 297 0 l 1,5,-1
 33 0 l 1,6,-1
 33 56 l 1,7,-1
 125 78 l 1,8,-1
 125 622 l 1,9,-1
 33 644 l 1,10,-1
 33 700 l 1,11,-1
 205 700 l 1,12,-1
 634 230 l 1,13,-1
 634 622 l 1,14,-1
 542 644 l 1,15,-1
 542 700 l 1,16,-1
 809 700 l 1,17,-1
 809 644 l 1,18,-1
 717 622 l 1,19,-1
 717 0 l 1,0,-1
EndSplineSet
EndChar

StartChar: O
Encoding: 79 79 50
Width: 774
Flags: W
LayerCount: 2
Fore
SplineSet
386.5 54 m 128,-1,1
 434 54 434 54 467.5 76.5 c 128,-1,2
 501 99 501 99 522.5 138.5 c 128,-1,3
 544 178 544 178 554 232.5 c 128,-1,4
 564 287 564 287 564 350 c 0,5,6
 564 485 564 485 520.5 565.5 c 128,-1,7
 477 646 477 646 387 646 c 0,8,9
 210 646 210 646 210 350 c 0,10,11
 210 141 210 141 306 76 c 0,12,0
 339 54 339 54 386.5 54 c 128,-1,1
386.5 -15 m 128,-1,14
 298 -15 298 -15 233 14 c 128,-1,15
 168 43 168 43 125.5 92.5 c 128,-1,16
 83 142 83 142 62.5 208.5 c 128,-1,17
 42 275 42 275 42 350 c 0,18,19
 42 510 42 510 130 612.5 c 128,-1,20
 218 715 218 715 386.5 715 c 128,-1,21
 555 715 555 715 643.5 613 c 128,-1,22
 732 511 732 511 732 350 c 0,23,24
 732 100 732 100 540 14 c 0,25,13
 475 -15 475 -15 386.5 -15 c 128,-1,14
EndSplineSet
EndChar

StartChar: P
Encoding: 80 80 51
Width: 643
Flags: W
LayerCount: 2
Fore
SplineSet
288 329 m 1,0,-1
 309 329 l 2,1,2
 407 329 407 329 442 412 c 0,3,4
 455 441 455 441 455 480 c 0,5,6
 455 552 455 552 415.5 589.5 c 128,-1,7
 376 627 376 627 316 627 c 2,8,-1
 288 627 l 1,9,-1
 288 329 l 1,0,-1
316 700 m 2,10,11
 621 700 621 700 621 481 c 0,12,13
 621 365 621 365 533.5 310.5 c 128,-1,14
 446 256 446 256 314 256 c 2,15,-1
 288 256 l 1,16,-1
 288 78 l 1,17,-1
 410 56 l 1,18,-1
 410 0 l 1,19,-1
 33 0 l 1,20,-1
 33 56 l 1,21,-1
 125 78 l 1,22,-1
 125 622 l 1,23,-1
 33 644 l 1,24,-1
 33 700 l 1,25,-1
 316 700 l 2,10,11
EndSplineSet
EndChar

StartChar: Q
Encoding: 81 81 52
Width: 774
Flags: W
LayerCount: 2
Fore
SplineSet
386.5 54 m 128,-1,1
 434 54 434 54 467.5 76.5 c 128,-1,2
 501 99 501 99 522.5 138.5 c 128,-1,3
 544 178 544 178 554 232.5 c 128,-1,4
 564 287 564 287 564 350 c 0,5,6
 564 485 564 485 520.5 565.5 c 128,-1,7
 477 646 477 646 387 646 c 0,8,9
 210 646 210 646 210 350 c 0,10,11
 210 141 210 141 306 76 c 0,12,0
 339 54 339 54 386.5 54 c 128,-1,1
42 350 m 0,13,14
 42 601 42 601 233 686 c 0,15,16
 298 715 298 715 386 715 c 0,17,18
 555 715 555 715 643.5 613 c 128,-1,19
 732 511 732 511 732 339 c 128,-1,20
 732 167 732 167 624 68 c 0,21,22
 587 34 587 34 538 13 c 1,23,24
 618 -57 618 -57 755 -68 c 1,25,-1
 718 -140 l 1,26,27
 497 -140 497 -140 360 -14 c 1,28,29
 204 -6 204 -6 123 95.5 c 128,-1,30
 42 197 42 197 42 350 c 0,13,14
EndSplineSet
EndChar

StartChar: R
Encoding: 82 82 53
Width: 714
Flags: W
LayerCount: 2
Fore
SplineSet
461 503 m 128,-1,1
 461 560 461 560 424.5 593.5 c 128,-1,2
 388 627 388 627 316 627 c 2,3,-1
 288 627 l 1,4,-1
 288 373 l 1,5,-1
 317 373 l 2,6,7
 389 373 389 373 425 409.5 c 128,-1,0
 461 446 461 446 461 503 c 128,-1,1
725 0 m 1,8,-1
 482 0 l 1,9,-1
 323 303 l 1,10,-1
 288 303 l 1,11,-1
 288 78 l 1,12,-1
 375 56 l 1,13,-1
 375 0 l 1,14,-1
 33 0 l 1,15,-1
 33 56 l 1,16,-1
 125 78 l 1,17,-1
 125 622 l 1,18,-1
 33 644 l 1,19,-1
 33 700 l 1,20,-1
 346 700 l 2,21,22
 488 700 488 700 556 648.5 c 128,-1,23
 624 597 624 597 624 520 c 0,24,25
 624 370 624 370 489 330 c 1,26,-1
 629 77 l 1,27,-1
 725 53 l 1,28,-1
 725 0 l 1,8,-1
EndSplineSet
EndChar

StartChar: S
Encoding: 83 83 54
Width: 603
Flags: W
LayerCount: 2
Fore
SplineSet
49 216 m 1,0,-1
 105 216 l 1,1,-1
 156 76 l 1,2,3
 202 58 202 58 252 58 c 0,4,5
 278 58 278 58 306 64 c 1,6,7
 385 78 385 78 406.5 104.5 c 128,-1,8
 428 131 428 131 428 156 c 128,-1,9
 428 181 428 181 409 208 c 128,-1,10
 390 235 390 235 318 268 c 2,11,-1
 242 304 l 1,12,13
 142 353 142 353 99.5 405 c 128,-1,14
 57 457 57 457 57 537 c 128,-1,15
 57 617 57 617 125 666 c 128,-1,16
 193 715 193 715 313 715 c 128,-1,17
 433 715 433 715 519 684 c 1,18,-1
 519 500 l 1,19,-1
 463 500 l 1,20,-1
 414 634 l 1,21,22
 376 643 376 643 342 643 c 0,23,24
 276 643 276 643 234 623 c 128,-1,25
 192 603 192 603 192 564.5 c 128,-1,26
 192 526 192 526 223.5 505.5 c 128,-1,27
 255 485 255 485 288 470 c 2,28,-1
 365 434 l 1,29,30
 563 344 563 344 563 208 c 0,31,32
 563 86 563 86 486.5 35.5 c 128,-1,33
 410 -15 410 -15 284.5 -15 c 128,-1,34
 159 -15 159 -15 49 32 c 1,35,-1
 49 216 l 1,0,-1
EndSplineSet
EndChar

StartChar: T
Encoding: 84 84 55
Width: 659
Flags: W
LayerCount: 2
Fore
SplineSet
22 488 m 1,0,-1
 22 700 l 1,1,-1
 637 700 l 1,2,-1
 637 488 l 1,3,-1
 576 488 l 1,4,-1
 535 623 l 1,5,-1
 411 623 l 1,6,-1
 411 78 l 1,7,-1
 503 56 l 1,8,-1
 503 0 l 1,9,-1
 156 0 l 1,10,-1
 156 56 l 1,11,-1
 248 78 l 1,12,-1
 248 623 l 1,13,-1
 123 623 l 1,14,-1
 82 488 l 1,15,-1
 22 488 l 1,0,-1
EndSplineSet
EndChar

StartChar: U
Encoding: 85 85 56
Width: 769
Flags: W
LayerCount: 2
Fore
SplineSet
260 262 m 2,0,1
 260 70 260 70 419 70 c 0,2,3
 541 70 541 70 579 176 c 0,4,5
 592 212 592 212 592 262 c 2,6,-1
 592 622 l 1,7,-1
 500 644 l 1,8,-1
 500 700 l 1,9,-1
 766 700 l 1,10,-1
 766 644 l 1,11,-1
 674 622 l 1,12,-1
 674 262 l 2,13,14
 674 128 674 128 593 56 c 0,15,16
 513 -15 513 -15 390 -15 c 0,17,18
 189 -15 189 -15 120 140 c 0,19,20
 97 192 97 192 97 262 c 2,21,-1
 97 622 l 1,22,-1
 5 644 l 1,23,-1
 5 700 l 1,24,-1
 352 700 l 1,25,-1
 352 644 l 1,26,-1
 260 622 l 1,27,-1
 260 262 l 2,0,1
EndSplineSet
EndChar

StartChar: V
Encoding: 86 86 57
Width: 713
Flags: W
LayerCount: 2
Fore
SplineSet
-7 700 m 1,0,-1
 339 700 l 1,1,-1
 339 644 l 1,2,-1
 257 627 l 1,3,-1
 408 213 l 1,4,-1
 545 622 l 1,5,-1
 466 644 l 1,6,-1
 466 700 l 1,7,-1
 718 700 l 1,8,-1
 718 644 l 1,9,-1
 626 622 l 1,10,-1
 408 -7 l 1,11,-1
 311 -7 l 1,12,-1
 82 622 l 1,13,-1
 -7 644 l 1,14,-1
 -7 700 l 1,0,-1
EndSplineSet
EndChar

StartChar: W
Encoding: 87 87 58
Width: 1048
Flags: W
LayerCount: 2
Fore
SplineSet
-10 700 m 1,0,-1
 334 700 l 1,1,-1
 334 644 l 1,2,-1
 250 626 l 1,3,-1
 375 260 l 1,4,-1
 497 700 l 1,5,-1
 630 700 l 1,6,-1
 778 259 l 1,7,-1
 875 622 l 1,8,-1
 794 644 l 1,9,-1
 794 700 l 1,10,-1
 1046 700 l 1,11,-1
 1046 644 l 1,12,-1
 954 622 l 1,13,-1
 784 -7 l 1,14,-1
 687 -7 l 1,15,-1
 519 499 l 1,16,-1
 376 -7 l 1,17,-1
 285 -7 l 1,18,-1
 77 623 l 1,19,-1
 -10 644 l 1,20,-1
 -10 700 l 1,0,-1
EndSplineSet
EndChar

StartChar: X
Encoding: 88 88 59
Width: 742
Flags: W
LayerCount: 2
Fore
SplineSet
470 700 m 1,0,-1
 716 700 l 1,1,-1
 716 644 l 1,2,-1
 624 622 l 1,3,-1
 453 387 l 1,4,-1
 662 76 l 1,5,-1
 747 56 l 1,6,-1
 747 0 l 1,7,-1
 410 0 l 1,8,-1
 410 56 l 1,9,-1
 468 67 l 1,10,-1
 330 275 l 1,11,-1
 189 76 l 1,12,-1
 253 56 l 1,13,-1
 253 0 l 1,14,-1
 7 0 l 1,15,-1
 7 56 l 1,16,-1
 99 78 l 1,17,-1
 287 338 l 1,18,-1
 102 621 l 1,19,-1
 10 644 l 1,20,-1
 10 700 l 1,21,-1
 347 700 l 1,22,-1
 347 644 l 1,23,-1
 289 631 l 1,24,-1
 410 447 l 1,25,-1
 534 624 l 1,26,-1
 470 644 l 1,27,-1
 470 700 l 1,0,-1
EndSplineSet
EndChar

StartChar: Y
Encoding: 89 89 60
Width: 701
Flags: W
LayerCount: 2
Fore
SplineSet
451 700 m 1,0,-1
 706 700 l 1,1,-1
 706 644 l 1,2,-1
 614 622 l 1,3,-1
 434 336 l 1,4,-1
 434 78 l 1,5,-1
 526 56 l 1,6,-1
 526 0 l 1,7,-1
 179 0 l 1,8,-1
 179 56 l 1,9,-1
 271 78 l 1,10,-1
 271 337 l 1,11,-1
 72 624 l 1,12,-1
 -9 644 l 1,13,-1
 -9 700 l 1,14,-1
 319 700 l 1,15,-1
 319 644 l 1,16,-1
 254 631 l 1,17,-1
 397 421 l 1,18,-1
 525 624 l 1,19,-1
 451 644 l 1,20,-1
 451 700 l 1,0,-1
EndSplineSet
EndChar

StartChar: Z
Encoding: 90 90 61
Width: 664
Flags: W
LayerCount: 2
Fore
SplineSet
51 480 m 1,0,-1
 51 700 l 1,1,-1
 609 700 l 1,2,-1
 609 638 l 1,3,-1
 250 77 l 1,4,-1
 507 77 l 1,5,-1
 577 216 l 1,6,-1
 632 216 l 1,7,-1
 603 0 l 1,8,-1
 42 0 l 1,9,-1
 42 62 l 1,10,-1
 402 623 l 1,11,-1
 151 623 l 1,12,-1
 108 480 l 1,13,-1
 51 480 l 1,0,-1
EndSplineSet
EndChar

StartChar: bracketleft
Encoding: 91 91 62
Width: 322
Flags: W
LayerCount: 2
Fore
SplineSet
82 -128 m 1,0,-1
 82 760 l 1,1,-1
 295 760 l 1,2,-1
 295 695 l 1,3,-1
 201 695 l 1,4,-1
 201 -63 l 1,5,-1
 295 -63 l 1,6,-1
 295 -128 l 1,7,-1
 82 -128 l 1,0,-1
EndSplineSet
EndChar

StartChar: backslash
Encoding: 92 92 63
Width: 462
Flags: W
LayerCount: 2
Fore
SplineSet
28 700 m 1,0,-1
 122 700 l 1,1,-1
 433 0 l 1,2,-1
 338 0 l 1,3,-1
 28 700 l 1,0,-1
EndSplineSet
EndChar

StartChar: bracketright
Encoding: 93 93 64
Width: 322
Flags: W
LayerCount: 2
Fore
SplineSet
27 -128 m 1,0,-1
 27 -63 l 1,1,-1
 121 -63 l 1,2,-1
 121 695 l 1,3,-1
 27 695 l 1,4,-1
 27 760 l 1,5,-1
 240 760 l 1,6,-1
 240 -128 l 1,7,-1
 27 -128 l 1,0,-1
EndSplineSet
EndChar

StartChar: asciicircum
Encoding: 94 94 65
Width: 604
Flags: W
LayerCount: 2
Fore
SplineSet
300 601 m 1,0,-1
 150 267 l 1,1,-1
 56 267 l 1,2,-1
 266 715 l 1,3,-1
 336 715 l 1,4,-1
 547 267 l 1,5,-1
 452 267 l 1,6,-1
 300 601 l 1,0,-1
EndSplineSet
EndChar

StartChar: underscore
Encoding: 95 95 66
Width: 727
Flags: W
LayerCount: 2
Fore
SplineSet
593 -142 m 1,0,-1
 134 -142 l 1,1,-1
 134 -68 l 1,2,-1
 593 -68 l 1,3,-1
 593 -142 l 1,0,-1
EndSplineSet
EndChar

StartChar: grave
Encoding: 96 96 67
Width: 221
Flags: W
LayerCount: 2
Fore
SplineSet
113 594 m 1,0,-1
 52 564 l 1,1,-1
 -107 715 l 1,2,3
 -63 755 -63 755 11 767 c 1,4,-1
 113 594 l 1,0,-1
EndSplineSet
EndChar

StartChar: a
Encoding: 97 97 68
Width: 572
Flags: W
LayerCount: 2
Fore
SplineSet
191 133 m 0,0,1
 191 70 191 70 268 70 c 0,2,3
 304 70 304 70 333 103 c 1,4,-1
 333 240 l 1,5,6
 242 240 242 240 204 178 c 0,7,8
 191 158 191 158 191 133 c 0,0,1
30 124 m 0,9,10
 30 302 30 302 333 302 c 1,11,-1
 333 332 l 2,12,13
 333 403 333 403 324 421 c 0,14,15
 308 456 308 456 257 456 c 1,16,-1
 130 346 l 1,17,18
 62 385 62 385 62 467 c 1,19,20
 169 515 169 515 273 515 c 0,21,22
 488 515 488 515 488 343 c 2,23,-1
 488 75 l 1,24,-1
 566 75 l 1,25,-1
 566 32 l 1,26,27
 519 -15 519 -15 446.5 -15 c 128,-1,28
 374 -15 374 -15 338 36 c 1,29,30
 276 -15 276 -15 179.5 -15 c 128,-1,31
 83 -15 83 -15 44 61 c 0,32,33
 30 87 30 87 30 124 c 0,9,10
EndSplineSet
EndChar

StartChar: b
Encoding: 98 98 69
Width: 608
Flags: W
LayerCount: 2
Fore
SplineSet
313 430 m 0,0,1
 272 430 272 430 221 400 c 1,2,-1
 221 53 l 1,3,4
 230 51 230 51 238 51 c 2,5,-1
 255 51 l 2,6,7
 362 51 362 51 401 170 c 0,8,9
 414 210 414 210 414 265 c 0,10,11
 414 430 414 430 313 430 c 0,0,1
365 515 m 0,12,13
 510 515 510 515 557 380 c 0,14,15
 573 333 573 333 573 266 c 0,16,17
 573 135 573 135 480.5 60 c 128,-1,18
 388 -15 388 -15 268.5 -15 c 128,-1,19
 149 -15 149 -15 67 36 c 1,20,-1
 67 709 l 1,21,-1
 -18 709 l 1,22,-1
 -18 762 l 1,23,-1
 142 800 l 1,24,-1
 221 800 l 1,25,-1
 221 464 l 1,26,27
 283 515 283 515 365 515 c 0,12,13
EndSplineSet
EndChar

StartChar: c
Encoding: 99 99 70
Width: 492
Flags: W
LayerCount: 2
Fore
SplineSet
34 250 m 0,0,1
 34 370 34 370 110.5 442.5 c 128,-1,2
 187 515 187 515 281 515 c 128,-1,3
 375 515 375 515 462 473 c 1,4,5
 459 389 459 389 389 351 c 1,6,-1
 303 450 l 1,7,-1
 297 450 l 1,8,9
 228 430 228 430 201 334 c 0,10,11
 191 299 191 299 191 250 c 0,12,13
 191 58 191 58 345 58 c 0,14,15
 395 58 395 58 461 78 c 1,16,-1
 473 19 l 1,17,18
 385 -17 385 -17 310 -17 c 0,19,20
 259 -17 259 -17 214 -1 c 0,21,22
 101 39 101 39 56 138 c 0,23,24
 34 188 34 188 34 250 c 0,0,1
EndSplineSet
EndChar

StartChar: d
Encoding: 100 100 71
Width: 634
Flags: W
LayerCount: 2
Fore
SplineSet
333 450 m 0,0,1
 272 450 272 450 232.5 398 c 128,-1,2
 193 346 193 346 193 249.5 c 128,-1,3
 193 153 193 153 228 111.5 c 128,-1,4
 263 70 263 70 305.5 70 c 128,-1,5
 348 70 348 70 387 107 c 1,6,-1
 387 443 l 1,7,8
 359 450 359 450 333 450 c 0,0,1
392 48 m 1,9,10
 338 -15 338 -15 252 -15 c 128,-1,11
 166 -15 166 -15 100.5 48.5 c 128,-1,12
 35 112 35 112 35 239 c 128,-1,13
 35 366 35 366 120 440.5 c 128,-1,14
 205 515 205 515 329 515 c 0,15,16
 360 515 360 515 387 509 c 1,17,-1
 387 709 l 1,18,-1
 302 709 l 1,19,-1
 302 762 l 1,20,-1
 462 800 l 1,21,-1
 542 800 l 1,22,-1
 542 75 l 1,23,-1
 620 75 l 1,24,-1
 620 32 l 1,25,26
 559 -15 559 -15 502 -15 c 128,-1,27
 445 -15 445 -15 406 28 c 0,28,29
 396 39 396 39 392 48 c 1,9,10
EndSplineSet
EndChar

StartChar: e
Encoding: 101 101 72
Width: 545
Flags: W
LayerCount: 2
Fore
SplineSet
213 410 m 0,0,1
 189 372 189 372 189 312 c 0,2,3
 189 308 189 308 189 303 c 1,4,-1
 358 314 l 1,5,6
 358 320 358 320 358 325 c 0,7,8
 358 369 358 369 344 396 c 0,9,10
 315 450 315 450 277 450 c 128,-1,11
 239 450 239 450 213 410 c 0,0,1
35 256 m 0,12,13
 35 374 35 374 101.5 444.5 c 128,-1,14
 168 515 168 515 283 515 c 128,-1,15
 398 515 398 515 457.5 436 c 128,-1,16
 517 357 517 357 517 241 c 1,17,-1
 189 241 l 1,18,19
 199 122 199 122 292 76 c 1,20,21
 322 60 322 60 368.5 60 c 128,-1,22
 415 60 415 60 476 83 c 1,23,-1
 497 26 l 1,24,25
 400 -17 400 -17 315 -17 c 0,26,27
 253 -17 253 -17 197 6 c 0,28,29
 93 47 93 47 54 148 c 0,30,31
 35 197 35 197 35 256 c 0,12,13
EndSplineSet
EndChar

StartChar: f
Encoding: 102 102 73
Width: 425
Flags: W
LayerCount: 2
Fore
SplineSet
266 574 m 2,0,-1
 266 509 l 1,1,-1
 403 518 l 1,2,-1
 403 436 l 1,3,-1
 266 436 l 1,4,-1
 266 73 l 1,5,-1
 384 53 l 1,6,-1
 384 0 l 1,7,-1
 27 0 l 1,8,-1
 27 53 l 1,9,-1
 112 73 l 1,10,-1
 112 436 l 1,11,-1
 28 436 l 1,12,-1
 28 493 l 1,13,-1
 112 499 l 1,14,-1
 112 574 l 2,15,16
 112 692 112 692 165.5 753.5 c 128,-1,17
 219 815 219 815 313.5 815 c 128,-1,18
 408 815 408 815 503 782 c 1,19,20
 503 778 503 778 503 774 c 0,21,22
 503 723 503 723 466 685 c 0,23,24
 455 673 455 673 442 666 c 1,25,-1
 359 750 l 1,26,27
 316 750 316 750 299 726 c 0,28,29
 266 681 266 681 266 574 c 2,0,-1
EndSplineSet
EndChar

StartChar: g
Encoding: 103 103 74
Width: 611
Flags: W
LayerCount: 2
Fore
SplineSet
287.5 225 m 128,-1,1
 314 225 314 225 332.5 234 c 128,-1,2
 351 243 351 243 362.5 258 c 128,-1,3
 374 273 374 273 379.5 293 c 128,-1,4
 385 313 385 313 385 334 c 128,-1,5
 385 355 385 355 380 375 c 128,-1,6
 375 395 375 395 363.5 410.5 c 128,-1,7
 352 426 352 426 333.5 435.5 c 128,-1,8
 315 445 315 445 288 445 c 128,-1,9
 261 445 261 445 243 435.5 c 128,-1,10
 225 426 225 426 214 410.5 c 128,-1,11
 203 395 203 395 198 375 c 128,-1,12
 193 355 193 355 193 334 c 128,-1,13
 193 313 193 313 198 293 c 128,-1,14
 203 273 203 273 214 258 c 128,-1,15
 225 243 225 243 243 234 c 128,-1,0
 261 225 261 225 287.5 225 c 128,-1,1
160 -130 m 0,16,17
 160 -222 160 -222 288 -222 c 0,18,19
 377 -222 377 -222 419.5 -192.5 c 128,-1,20
 462 -163 462 -163 462 -127 c 128,-1,21
 462 -91 462 -91 436.5 -75 c 128,-1,22
 411 -59 411 -59 341 -59 c 2,23,-1
 182 -59 l 1,24,25
 160 -91 160 -91 160 -130 c 0,16,17
530 338 m 0,26,27
 530 260 530 260 464.5 210.5 c 128,-1,28
 399 161 399 161 288 161 c 2,29,-1
 261 161 l 2,30,31
 248 161 248 161 235 162 c 1,32,-1
 191 101 l 1,33,34
 203 81 203 81 224.5 76.5 c 128,-1,35
 246 72 246 72 281 72 c 2,36,-1
 368 72 l 2,37,38
 468 72 468 72 521 28 c 128,-1,39
 574 -16 574 -16 574 -94.5 c 128,-1,40
 574 -173 574 -173 499.5 -230 c 128,-1,41
 425 -287 425 -287 291 -287 c 0,42,43
 8 -287 8 -287 8 -152 c 0,44,45
 8 -72 8 -72 97 -25 c 1,46,47
 42 13 42 13 42 70 c 0,48,49
 42 77 42 77 43 85 c 1,50,-1
 158 184 l 1,51,52
 48 232 48 232 48 334 c 0,53,54
 48 407 48 407 116 457 c 128,-1,55
 184 507 184 507 281.5 507 c 128,-1,56
 379 507 379 507 444 467 c 1,57,-1
 600 525 l 1,58,59
 612 501 612 501 612 471 c 128,-1,60
 612 441 612 441 608 421 c 1,61,-1
 498 421 l 1,62,63
 530 378 530 378 530 338 c 0,26,27
EndSplineSet
EndChar

StartChar: h
Encoding: 104 104 75
Width: 666
Flags: W
LayerCount: 2
Fore
SplineSet
342 427 m 128,-1,1
 309 427 309 427 254 383 c 1,2,-1
 254 73 l 1,3,-1
 319 53 l 1,4,-1
 319 0 l 1,5,-1
 15 0 l 1,6,-1
 15 53 l 1,7,-1
 100 73 l 1,8,-1
 100 709 l 1,9,-1
 15 709 l 1,10,-1
 15 762 l 1,11,-1
 175 800 l 1,12,-1
 254 800 l 1,13,-1
 254 451 l 1,14,15
 318 515 318 515 405 515 c 0,16,17
 524 515 524 515 562 420 c 0,18,19
 574 392 574 392 574 358 c 2,20,-1
 574 73 l 1,21,-1
 659 53 l 1,22,-1
 659 0 l 1,23,-1
 355 0 l 1,24,-1
 355 53 l 1,25,-1
 420 73 l 1,26,-1
 420 330 l 2,27,28
 420 383 420 383 411 399 c 128,-1,29
 402 415 402 415 388.5 421 c 128,-1,0
 375 427 375 427 342 427 c 128,-1,1
EndSplineSet
EndChar

StartChar: i
Encoding: 105 105 76
Width: 369
Flags: W
LayerCount: 2
Fore
SplineSet
99 653.5 m 128,-1,1
 99 693 99 693 126 719.5 c 128,-1,2
 153 746 153 746 192.5 746 c 128,-1,3
 232 746 232 746 258.5 719.5 c 128,-1,4
 285 693 285 693 285 653.5 c 128,-1,5
 285 614 285 614 258.5 587 c 128,-1,6
 232 560 232 560 192.5 560 c 128,-1,7
 153 560 153 560 126 587 c 128,-1,0
 99 614 99 614 99 653.5 c 128,-1,1
115 409 m 1,8,-1
 30 409 l 1,9,-1
 30 462 l 1,10,-1
 190 500 l 1,11,-1
 269 500 l 1,12,-1
 269 73 l 1,13,-1
 354 53 l 1,14,-1
 354 0 l 1,15,-1
 30 0 l 1,16,-1
 30 53 l 1,17,-1
 115 73 l 1,18,-1
 115 409 l 1,8,-1
EndSplineSet
EndChar

StartChar: j
Encoding: 106 106 77
Width: 325
Flags: W
LayerCount: 2
Fore
SplineSet
84 653.5 m 128,-1,1
 84 693 84 693 111 719.5 c 128,-1,2
 138 746 138 746 177.5 746 c 128,-1,3
 217 746 217 746 243.5 719.5 c 128,-1,4
 270 693 270 693 270 653.5 c 128,-1,5
 270 614 270 614 243.5 587 c 128,-1,6
 217 560 217 560 177.5 560 c 128,-1,7
 138 560 138 560 111 587 c 128,-1,0
 84 614 84 614 84 653.5 c 128,-1,1
100 0 m 2,8,-1
 100 409 l 1,9,-1
 15 409 l 1,10,-1
 15 462 l 1,11,-1
 175 500 l 1,12,-1
 254 500 l 1,13,-1
 254 0 l 2,14,15
 254 -200 254 -200 36 -319 c 1,16,-1
 -5 -262 l 1,17,18
 100 -174 100 -174 100 0 c 2,8,-1
EndSplineSet
EndChar

StartChar: k
Encoding: 107 107 78
Width: 646
Flags: W
LayerCount: 2
Fore
SplineSet
638 0 m 1,0,-1
 418 0 l 1,1,-1
 272 241 l 1,2,-1
 448 432 l 1,3,-1
 388 447 l 1,4,-1
 388 500 l 1,5,-1
 623 500 l 1,6,-1
 623 447 l 1,7,-1
 532 428 l 1,8,-1
 417 301 l 1,9,-1
 558 72 l 1,10,-1
 638 53 l 1,11,-1
 638 0 l 1,0,-1
100 709 m 1,12,-1
 15 709 l 1,13,-1
 15 762 l 1,14,-1
 175 800 l 1,15,-1
 254 800 l 1,16,-1
 254 73 l 1,17,-1
 319 53 l 1,18,-1
 319 0 l 1,19,-1
 15 0 l 1,20,-1
 15 53 l 1,21,-1
 100 73 l 1,22,-1
 100 709 l 1,12,-1
EndSplineSet
EndChar

StartChar: l
Encoding: 108 108 79
Width: 354
Flags: W
LayerCount: 2
Fore
SplineSet
100 709 m 1,0,-1
 15 709 l 1,1,-1
 15 762 l 1,2,-1
 175 800 l 1,3,-1
 254 800 l 1,4,-1
 254 73 l 1,5,-1
 339 53 l 1,6,-1
 339 0 l 1,7,-1
 15 0 l 1,8,-1
 15 53 l 1,9,-1
 100 73 l 1,10,-1
 100 709 l 1,0,-1
EndSplineSet
EndChar

StartChar: m
Encoding: 109 109 80
Width: 999
Flags: W
LayerCount: 2
Fore
SplineSet
754 345 m 2,0,1
 754 427 754 427 685 427 c 0,2,3
 639 427 639 427 586 387 c 1,4,5
 589 372 589 372 589 358 c 2,6,-1
 589 73 l 1,7,-1
 654 53 l 1,8,-1
 654 0 l 1,9,-1
 369 0 l 1,10,-1
 369 53 l 1,11,-1
 434 73 l 1,12,-1
 434 345 l 2,13,14
 434 393 434 393 415 410 c 128,-1,15
 396 427 396 427 358 427 c 128,-1,16
 320 427 320 427 269 391 c 1,17,-1
 269 73 l 1,18,-1
 334 53 l 1,19,-1
 334 0 l 1,20,-1
 30 0 l 1,21,-1
 30 53 l 1,22,-1
 115 73 l 1,23,-1
 115 409 l 1,24,-1
 30 409 l 1,25,-1
 30 462 l 1,26,-1
 190 500 l 1,27,-1
 269 500 l 1,28,-1
 269 459 l 1,29,30
 339 515 339 515 428 515 c 128,-1,31
 517 515 517 515 565 443 c 1,32,33
 643 515 643 515 749.5 515 c 128,-1,34
 856 515 856 515 896 420 c 0,35,36
 908 392 908 392 908 358 c 2,37,-1
 908 73 l 1,38,-1
 993 53 l 1,39,-1
 993 0 l 1,40,-1
 689 0 l 1,41,-1
 689 53 l 1,42,-1
 754 73 l 1,43,-1
 754 345 l 2,0,1
EndSplineSet
EndChar

StartChar: n
Encoding: 110 110 81
Width: 681
Flags: W
LayerCount: 2
Fore
SplineSet
357 427 m 128,-1,1
 324 427 324 427 269 383 c 1,2,-1
 269 73 l 1,3,-1
 334 53 l 1,4,-1
 334 0 l 1,5,-1
 30 0 l 1,6,-1
 30 53 l 1,7,-1
 115 73 l 1,8,-1
 115 409 l 1,9,-1
 30 409 l 1,10,-1
 30 462 l 1,11,-1
 190 500 l 1,12,-1
 269 500 l 1,13,-1
 269 451 l 1,14,15
 333 515 333 515 420 515 c 0,16,17
 539 515 539 515 578 420 c 0,18,19
 589 392 589 392 589 358 c 2,20,-1
 589 73 l 1,21,-1
 674 53 l 1,22,-1
 674 0 l 1,23,-1
 370 0 l 1,24,-1
 370 53 l 1,25,-1
 435 73 l 1,26,-1
 435 330 l 2,27,28
 435 383 435 383 426 399 c 128,-1,29
 417 415 417 415 403.5 421 c 128,-1,0
 390 427 390 427 357 427 c 128,-1,1
EndSplineSet
EndChar

StartChar: o
Encoding: 111 111 82
Width: 605
Flags: W
LayerCount: 2
Fore
SplineSet
33 251.5 m 128,-1,1
 33 367 33 367 110.5 441 c 128,-1,2
 188 515 188 515 302.5 515 c 128,-1,3
 417 515 417 515 494.5 441 c 128,-1,4
 572 367 572 367 572 251.5 c 128,-1,5
 572 136 572 136 495 60.5 c 128,-1,6
 418 -15 418 -15 303 -15 c 0,7,8
 187 -15 187 -15 110 60.5 c 128,-1,0
 33 136 33 136 33 251.5 c 128,-1,1
194 274 m 0,9,10
 194 50 194 50 303 50 c 128,-1,11
 412 50 412 50 412 250 c 0,12,13
 412 393 412 393 352 436 c 0,14,15
 331 450 331 450 303 450 c 0,16,17
 249 450 249 450 221.5 396 c 128,-1,18
 194 342 194 342 194 274 c 0,9,10
EndSplineSet
EndChar

StartChar: p
Encoding: 112 112 83
Width: 641
Flags: W
LayerCount: 2
Fore
SplineSet
306 50 m 0,0,1
 367 50 367 50 407 104.5 c 128,-1,2
 447 159 447 159 447 254 c 0,3,4
 447 424 447 424 342 424 c 0,5,6
 287 424 287 424 254 389 c 1,7,-1
 254 60 l 1,8,9
 280 50 280 50 306 50 c 0,0,1
359 -300 m 1,10,-1
 15 -300 l 1,11,-1
 15 -247 l 1,12,-1
 100 -227 l 1,13,-1
 100 409 l 1,14,-1
 15 409 l 1,15,-1
 15 462 l 1,16,-1
 175 500 l 1,17,-1
 254 500 l 1,18,-1
 254 452 l 1,19,20
 315 515 315 515 399.5 515 c 128,-1,21
 484 515 484 515 545 451 c 128,-1,22
 606 387 606 387 606 260 c 128,-1,23
 606 133 606 133 520.5 59 c 128,-1,24
 435 -15 435 -15 321 -15 c 0,25,26
 274 -15 274 -15 254 -9 c 1,27,-1
 254 -227 l 1,28,-1
 359 -247 l 1,29,-1
 359 -300 l 1,10,-1
EndSplineSet
EndChar

StartChar: q
Encoding: 113 113 84
Width: 608
Flags: W
LayerCount: 2
Fore
SplineSet
353 450 m 0,0,1
 193 450 193 450 193 236 c 0,2,3
 193 118 193 118 269 86 c 0,4,5
 291 76 291 76 323 76 c 128,-1,6
 355 76 355 76 386 99 c 1,7,-1
 386 447 l 1,8,9
 369 450 369 450 353 450 c 0,0,1
386 31 m 1,10,11
 340 -15 340 -15 254 -15 c 128,-1,12
 168 -15 168 -15 102 49 c 1,13,14
 35 112 35 112 35 239 c 0,15,16
 35 365 35 365 127 440 c 128,-1,17
 219 515 219 515 339 515 c 128,-1,18
 459 515 459 515 541 464 c 1,19,-1
 541 -227 l 1,20,-1
 626 -247 l 1,21,-1
 626 -300 l 1,22,-1
 281 -300 l 1,23,-1
 281 -247 l 1,24,-1
 386 -227 l 1,25,-1
 386 31 l 1,10,11
EndSplineSet
EndChar

StartChar: r
Encoding: 114 114 85
Width: 467
Flags: W
LayerCount: 2
Fore
SplineSet
374 0 m 1,0,-1
 30 0 l 1,1,-1
 30 53 l 1,2,-1
 115 73 l 1,3,-1
 115 409 l 1,4,-1
 30 409 l 1,5,-1
 30 462 l 1,6,-1
 190 500 l 1,7,-1
 269 500 l 1,8,-1
 269 440 l 1,9,10
 344 515 344 515 447 515 c 1,11,12
 453 495 453 495 453 459 c 128,-1,13
 453 423 453 423 443 387 c 1,14,-1
 317 408 l 1,15,16
 297 399 297 399 269 376 c 1,17,-1
 269 73 l 1,18,-1
 374 53 l 1,19,-1
 374 0 l 1,0,-1
EndSplineSet
EndChar

StartChar: s
Encoding: 115 115 86
Width: 481
Flags: W
LayerCount: 2
Fore
SplineSet
281.5 515 m 128,-1,1
 348 515 348 515 415 496 c 1,2,-1
 415 360 l 1,3,-1
 363 360 l 1,4,-1
 332 448 l 1,5,6
 310 453 310 453 272 453 c 0,7,8
 176 453 176 453 176 406 c 0,9,10
 176 370 176 370 256 336 c 1,11,-1
 292 320 l 1,12,13
 383 278 383 278 415 240.5 c 128,-1,14
 447 203 447 203 447 151 c 0,15,16
 447 -15 447 -15 225 -15 c 0,17,18
 124 -15 124 -15 42 8 c 1,19,-1
 42 151 l 1,20,-1
 98 151 l 1,21,-1
 134 52 l 1,22,23
 162 50 162 50 191 50 c 0,24,25
 308 50 308 50 308 101 c 0,26,27
 308 128 308 128 274 147 c 128,-1,28
 240 166 240 166 172.5 195 c 128,-1,29
 105 224 105 224 74 262 c 128,-1,30
 43 300 43 300 43 350.5 c 128,-1,31
 43 401 43 401 59.5 430 c 128,-1,32
 76 459 76 459 105.5 477.5 c 128,-1,33
 135 496 135 496 175 505.5 c 128,-1,0
 215 515 215 515 281.5 515 c 128,-1,1
EndSplineSet
EndChar

StartChar: t
Encoding: 116 116 87
Width: 378
Flags: W
LayerCount: 2
Fore
SplineSet
81 139 m 2,0,-1
 81 430 l 1,1,-1
 28 430 l 1,2,-1
 28 470 l 1,3,-1
 198 591 l 1,4,-1
 235 591 l 1,5,-1
 235 495 l 1,6,-1
 359 500 l 1,7,-1
 359 430 l 1,8,-1
 235 430 l 1,9,-1
 235 144 l 2,10,11
 235 99 235 99 245 77 c 128,-1,12
 255 55 255 55 285.5 55 c 128,-1,13
 316 55 316 55 358 73 c 1,14,-1
 374 17 l 1,15,16
 313 -15 313 -15 247 -15 c 0,17,18
 81 -15 81 -15 81 139 c 2,0,-1
EndSplineSet
EndChar

StartChar: u
Encoding: 117 117 88
Width: 667
Flags: W
LayerCount: 2
Fore
SplineSet
94 142 m 2,0,-1
 94 427 l 1,1,-1
 9 447 l 1,2,-1
 9 500 l 1,3,-1
 248 500 l 1,4,-1
 248 155 l 2,5,6
 248 107 248 107 259.5 86 c 128,-1,7
 271 65 271 65 311 65 c 0,8,9
 379 65 379 65 421 120 c 1,10,-1
 421 427 l 1,11,-1
 356 447 l 1,12,-1
 356 500 l 1,13,-1
 576 500 l 1,14,-1
 576 75 l 1,15,-1
 654 75 l 1,16,-1
 654 32 l 1,17,18
 589 -15 589 -15 532 -15 c 128,-1,19
 475 -15 475 -15 451.5 7.5 c 128,-1,20
 428 30 428 30 421 50 c 1,21,22
 351 -15 351 -15 247 -15 c 0,23,24
 94 -15 94 -15 94 142 c 2,0,-1
EndSplineSet
EndChar

StartChar: v
Encoding: 118 118 89
Width: 580
Flags: W
LayerCount: 2
Fore
SplineSet
368 500 m 1,0,-1
 585 500 l 1,1,-1
 585 447 l 1,2,-1
 501 425 l 1,3,-1
 323 -7 l 1,4,-1
 253 -7 l 1,5,-1
 68 426 l 1,6,-1
 -4 447 l 1,7,-1
 -4 500 l 1,8,-1
 302 500 l 1,9,-1
 302 447 l 1,10,-1
 234 431 l 1,11,-1
 335 192 l 1,12,-1
 434 430 l 1,13,-1
 368 447 l 1,14,-1
 368 500 l 1,0,-1
EndSplineSet
EndChar

StartChar: w
Encoding: 119 119 90
Width: 831
Flags: W
LayerCount: 2
Fore
SplineSet
-3 500 m 1,0,-1
 299 500 l 1,1,-1
 299 447 l 1,2,-1
 228 429 l 1,3,-1
 310 209 l 1,4,-1
 408 500 l 1,5,-1
 510 500 l 1,6,-1
 613 213 l 1,7,-1
 687 429 l 1,8,-1
 607 447 l 1,9,-1
 607 500 l 1,10,-1
 834 500 l 1,11,-1
 834 447 l 1,12,-1
 753 425 l 1,13,-1
 609 -7 l 1,14,-1
 527 -7 l 1,15,-1
 413 312 l 1,16,-1
 306 -7 l 1,17,-1
 224 -7 l 1,18,-1
 64 429 l 1,19,-1
 -3 447 l 1,20,-1
 -3 500 l 1,0,-1
EndSplineSet
EndChar

StartChar: x
Encoding: 120 120 91
Width: 615
Flags: W
LayerCount: 2
Fore
SplineSet
602 0 m 1,0,-1
 279 0 l 1,1,-1
 279 53 l 1,2,-1
 333 61 l 1,3,-1
 265 171 l 1,4,-1
 177 67 l 1,5,-1
 230 53 l 1,6,-1
 230 0 l 1,7,-1
 9 0 l 1,8,-1
 9 53 l 1,9,-1
 96 70 l 1,10,-1
 229 228 l 1,11,-1
 101 430 l 1,12,-1
 22 447 l 1,13,-1
 22 500 l 1,14,-1
 337 500 l 1,15,-1
 337 447 l 1,16,-1
 285 437 l 1,17,-1
 350 336 l 1,18,-1
 430 431 l 1,19,-1
 375 447 l 1,20,-1
 375 500 l 1,21,-1
 599 500 l 1,22,-1
 599 447 l 1,23,-1
 512 428 l 1,24,-1
 386 279 l 1,25,-1
 520 68 l 1,26,-1
 602 53 l 1,27,-1
 602 0 l 1,0,-1
EndSplineSet
EndChar

StartChar: y
Encoding: 121 121 92
Width: 613
Flags: W
LayerCount: 2
Fore
SplineSet
-5 500 m 1,0,-1
 304 500 l 1,1,-1
 304 447 l 1,2,-1
 238 435 l 1,3,-1
 367 178 l 1,4,-1
 461 428 l 1,5,-1
 385 447 l 1,6,-1
 385 500 l 1,7,-1
 617 500 l 1,8,-1
 617 447 l 1,9,-1
 534 424 l 1,10,-1
 255 -299 l 1,11,-1
 237 -299 l 2,12,13
 207 -299 207 -299 180.5 -286 c 128,-1,14
 154 -273 154 -273 143 -254 c 1,15,-1
 288 -23 l 1,16,-1
 70 426 l 1,17,-1
 -5 447 l 1,18,-1
 -5 500 l 1,0,-1
EndSplineSet
EndChar

StartChar: z
Encoding: 122 122 93
Width: 509
Flags: W
LayerCount: 2
Fore
SplineSet
470 500 m 1,0,-1
 470 451 l 1,1,-1
 219 65 l 1,2,-1
 369 65 l 1,3,-1
 421 176 l 1,4,-1
 470 176 l 1,5,-1
 460 0 l 1,6,-1
 28 0 l 1,7,-1
 28 50 l 1,8,-1
 281 436 l 1,9,-1
 145 436 l 1,10,-1
 97 335 l 1,11,-1
 51 335 l 1,12,-1
 62 500 l 1,13,-1
 470 500 l 1,0,-1
EndSplineSet
EndChar

StartChar: braceleft
Encoding: 123 123 94
Width: 413
Flags: W
LayerCount: 2
Fore
SplineSet
284 193 m 2,0,-1
 284 35 l 2,1,2
 284 -16 284 -16 302.5 -43 c 128,-1,3
 321 -70 321 -70 366 -70 c 2,4,-1
 396 -70 l 1,5,-1
 396 -128 l 1,6,-1
 270 -128 l 2,7,8
 200 -128 200 -128 163 -89 c 128,-1,9
 126 -50 126 -50 126 16 c 2,10,-1
 126 182 l 2,11,12
 126 265 126 265 54 282 c 0,13,14
 33 287 33 287 8 288 c 1,15,-1
 8 345 l 1,16,17
 126 350 126 350 126 450 c 2,18,-1
 126 617 l 2,19,20
 126 760 126 760 270 760 c 2,21,-1
 396 760 l 1,22,-1
 396 702 l 1,23,-1
 366 702 l 2,24,25
 321 702 321 702 302.5 675.5 c 128,-1,26
 284 649 284 649 284 597 c 2,27,-1
 284 441 l 2,28,29
 284 336 284 336 173 318 c 1,30,-1
 173 317 l 1,31,32
 284 298 284 298 284 193 c 2,0,-1
EndSplineSet
EndChar

StartChar: bar
Encoding: 124 124 95
Width: 257
Flags: W
LayerCount: 2
Fore
SplineSet
176 -240 m 1,0,-1
 81 -240 l 1,1,-1
 81 760 l 1,2,-1
 176 760 l 1,3,-1
 176 -240 l 1,0,-1
EndSplineSet
EndChar

StartChar: braceright
Encoding: 125 125 96
Width: 412
Flags: W
LayerCount: 2
Fore
SplineSet
287 450 m 2,0,1
 287 350 287 350 405 345 c 1,2,-1
 405 288 l 1,3,4
 319 285 319 285 296 233 c 0,5,6
 287 213 287 213 287 182 c 2,7,-1
 287 16 l 2,8,9
 287 -46 287 -46 222 -87 c 128,-1,10
 157 -128 157 -128 83 -128 c 2,11,-1
 17 -128 l 1,12,-1
 17 -70 l 1,13,-1
 47 -70 l 2,14,15
 92 -70 92 -70 110.5 -43 c 128,-1,16
 129 -16 129 -16 129 35 c 2,17,-1
 129 193 l 2,18,19
 129 298 129 298 240 317 c 1,20,-1
 240 318 l 1,21,22
 129 336 129 336 129 441 c 2,23,-1
 129 597 l 2,24,25
 129 649 129 649 110.5 675.5 c 128,-1,26
 92 702 92 702 47 702 c 2,27,-1
 17 702 l 1,28,-1
 17 760 l 1,29,-1
 143 760 l 2,30,31
 287 760 287 760 287 617 c 2,32,-1
 287 450 l 2,0,1
EndSplineSet
EndChar

StartChar: asciitilde
Encoding: 126 126 97
Width: 549
Flags: W
LayerCount: 2
Fore
SplineSet
372 373 m 0,0,1
 424 373 424 373 433 444 c 1,2,-1
 512 432 l 1,3,4
 497 323 497 323 426 283 c 0,5,6
 401 269 401 269 370 269 c 0,7,8
 324 269 324 269 264 304.5 c 128,-1,9
 204 340 204 340 185 340 c 0,10,11
 153 340 153 340 140 326.5 c 128,-1,12
 127 313 127 313 122 269 c 1,13,-1
 44 282 l 1,14,15
 60 444 60 444 179 444 c 0,16,17
 223 444 223 444 264.5 419.5 c 128,-1,18
 306 395 306 395 327.5 384 c 128,-1,19
 349 373 349 373 372 373 c 0,0,1
EndSplineSet
EndChar

StartChar: exclamdown
Encoding: 161 161 99
Width: 280
Flags: W
LayerCount: 2
Fore
SplineSet
81 489 m 128,-1,1
 107 515 107 515 133 515 c 0,2,3
 177 515 177 515 201.5 489 c 128,-1,4
 226 463 226 463 226 428.5 c 128,-1,5
 226 394 226 394 201 369 c 128,-1,6
 176 344 176 344 150 344 c 128,-1,7
 124 344 124 344 108.5 350.5 c 128,-1,8
 93 357 93 357 81 368 c 0,9,10
 55 393 55 393 55 428 c 128,-1,0
 55 463 55 463 81 489 c 128,-1,1
86 292 m 1,11,-1
 194 292 l 1,12,-1
 214 -200 l 1,13,-1
 66 -200 l 1,14,-1
 86 292 l 1,11,-1
EndSplineSet
EndChar

StartChar: cent
Encoding: 162 162 100
Width: 527
Flags: W
LayerCount: 2
Fore
SplineSet
261 431 m 1,0,1
 199 392 199 392 199 260 c 128,-1,2
 199 128 199 128 261 85 c 1,3,-1
 261 431 l 1,0,1
334 -140 m 1,4,-1
 261 -140 l 1,5,-1
 261 -10 l 1,6,7
 108 13 108 13 58 149 c 0,8,9
 42 194 42 194 42 250 c 0,10,11
 42 360 42 360 102 427.5 c 128,-1,12
 162 495 162 495 261 511 c 1,13,-1
 261 648 l 1,14,-1
 334 648 l 1,15,-1
 334 514 l 1,16,17
 410 511 410 511 480 473 c 1,18,19
 481 446 481 446 467.5 409.5 c 128,-1,20
 454 373 454 373 422 348 c 1,21,-1
 335 450 l 1,22,-1
 334 450 l 1,23,-1
 334 60 l 1,24,-1
 340 60 l 2,25,26
 346 60 346 60 353 60 c 0,27,28
 403 60 403 60 469 78 c 1,29,-1
 481 19 l 1,30,31
 408 -12 408 -12 334 -15 c 1,32,-1
 334 -140 l 1,4,-1
EndSplineSet
EndChar

StartChar: sterling
Encoding: 163 163 101
Width: 565
Flags: W
LayerCount: 2
Fore
SplineSet
314 274 m 0,0,1
 314 200 314 200 234 127 c 1,2,-1
 428 127 l 1,3,-1
 466 205 l 1,4,-1
 520 205 l 1,5,-1
 492 0 l 1,6,-1
 52 0 l 1,7,-1
 52 55 l 1,8,9
 181 152 181 152 181 267 c 0,10,11
 181 293 181 293 167 333 c 1,12,-1
 59 333 l 1,13,-1
 59 390 l 1,14,-1
 137 395 l 1,15,-1
 114 437 l 2,16,17
 70 516 70 516 70 561 c 0,18,19
 70 642 70 642 137 678.5 c 128,-1,20
 204 715 204 715 307 715 c 128,-1,21
 410 715 410 715 506 665 c 1,22,23
 500 579 500 579 445 538 c 1,24,-1
 331 656 l 1,25,26
 237 656 237 656 237 545 c 0,27,28
 237 493 237 493 277 405 c 1,29,-1
 415 415 l 1,30,-1
 405 333 l 1,31,-1
 305 333 l 1,32,33
 314 304 314 304 314 274 c 0,0,1
EndSplineSet
EndChar

StartChar: currency
Encoding: 164 164 102
Width: 612
Flags: W
LayerCount: 2
Fore
SplineSet
424 359 m 128,-1,1
 424 383 424 383 414.5 404.5 c 128,-1,2
 405 426 405 426 389 441.5 c 128,-1,3
 373 457 373 457 351.5 466.5 c 128,-1,4
 330 476 330 476 306 476 c 128,-1,5
 282 476 282 476 260.5 466.5 c 128,-1,6
 239 457 239 457 223 441.5 c 128,-1,7
 207 426 207 426 197.5 404.5 c 128,-1,8
 188 383 188 383 188 359 c 128,-1,9
 188 335 188 335 197.5 313.5 c 128,-1,10
 207 292 207 292 223 276 c 128,-1,11
 239 260 239 260 260.5 250.5 c 128,-1,12
 282 241 282 241 306 241 c 128,-1,13
 330 241 330 241 351.5 250.5 c 128,-1,14
 373 260 373 260 389 276 c 128,-1,15
 405 292 405 292 414.5 313.5 c 128,-1,0
 424 335 424 335 424 359 c 128,-1,1
306 569 m 128,-1,17
 368 569 368 569 418 536 c 1,18,-1
 487 605 l 1,19,-1
 554 539 l 1,20,-1
 485 470 l 1,21,22
 517 414 517 414 517 356.5 c 128,-1,23
 517 299 517 299 483 246 c 1,24,-1
 553 178 l 1,25,-1
 487 111 l 1,26,-1
 418 179 l 1,27,28
 366 148 366 148 305 148 c 128,-1,29
 244 148 244 148 194 179 c 1,30,-1
 124 109 l 1,31,-1
 58 176 l 1,32,-1
 128 246 l 1,33,34
 95 294 95 294 95 355.5 c 128,-1,35
 95 417 95 417 127 470 c 1,36,-1
 58 540 l 1,37,-1
 125 606 l 1,38,-1
 194 538 l 1,39,16
 244 569 244 569 306 569 c 128,-1,17
EndSplineSet
EndChar

StartChar: yen
Encoding: 165 165 103
Width: 782
Flags: W
LayerCount: 2
Fore
SplineSet
494 700 m 1,0,-1
 749 700 l 1,1,-1
 749 644 l 1,2,-1
 656 622 l 1,3,-1
 504 379 l 1,4,-1
 632 386 l 1,5,-1
 623 304 l 1,6,-1
 477 304 l 1,7,-1
 477 262 l 1,8,-1
 632 270 l 1,9,-1
 623 188 l 1,10,-1
 477 188 l 1,11,-1
 477 78 l 1,12,-1
 568 56 l 1,13,-1
 568 0 l 1,14,-1
 222 0 l 1,15,-1
 222 56 l 1,16,-1
 314 78 l 1,17,-1
 314 188 l 1,18,-1
 147 188 l 1,19,-1
 147 245 l 1,20,-1
 314 253 l 1,21,-1
 314 304 l 1,22,-1
 147 304 l 1,23,-1
 147 361 l 1,24,-1
 292 368 l 1,25,-1
 114 624 l 1,26,-1
 34 644 l 1,27,-1
 34 700 l 1,28,-1
 361 700 l 1,29,-1
 361 644 l 1,30,-1
 296 631 l 1,31,-1
 440 421 l 1,32,-1
 567 624 l 1,33,-1
 494 644 l 1,34,-1
 494 700 l 1,0,-1
EndSplineSet
EndChar

StartChar: brokenbar
Encoding: 166 166 104
Width: 243
Flags: W
LayerCount: 2
Fore
SplineSet
159 -240 m 1,0,-1
 84 -240 l 1,1,-1
 84 160 l 1,2,-1
 159 160 l 1,3,-1
 159 -240 l 1,0,-1
159 360 m 1,4,-1
 84 360 l 1,5,-1
 84 760 l 1,6,-1
 159 760 l 1,7,-1
 159 360 l 1,4,-1
EndSplineSet
EndChar

StartChar: section
Encoding: 167 167 105
Width: 536
Flags: W
LayerCount: 2
Fore
SplineSet
196 446 m 1,0,1
 147 414 147 414 147 366 c 128,-1,2
 147 318 147 318 227 283 c 0,3,4
 250 273 250 273 275 264 c 2,5,-1
 316 248 l 2,6,7
 338 239 338 239 360 228 c 1,8,9
 387 260 387 260 387 290 c 0,10,11
 387 342 387 342 353 369.5 c 128,-1,12
 319 397 319 397 278 412 c 1,13,-1
 224 434 l 2,14,15
 210 439 210 439 196 446 c 1,0,1
68 113 m 1,16,-1
 118 113 l 1,17,-1
 161 -4 l 1,18,19
 178 -9 178 -9 188.5 -12.5 c 128,-1,20
 199 -16 199 -16 222 -16 c 0,21,22
 335 -16 335 -16 335 62 c 0,23,24
 335 108 335 108 282 138 c 0,25,26
 263 149 263 149 226 165 c 0,27,28
 139 203 139 203 97 244 c 128,-1,29
 55 285 55 285 55 356 c 128,-1,30
 55 427 55 427 141 475 c 1,31,32
 57 530 57 530 57 602.5 c 128,-1,33
 57 675 57 675 118 717 c 128,-1,34
 179 759 179 759 273 759 c 128,-1,35
 367 759 367 759 443 733 c 1,36,-1
 443 576 l 1,37,-1
 393 576 l 1,38,-1
 352 688 l 1,39,40
 336 691 336 691 327 693 c 128,-1,41
 318 695 318 695 280 695 c 128,-1,42
 242 695 242 695 220.5 675 c 128,-1,43
 199 655 199 655 199 626 c 0,44,45
 199 565 199 565 293 526.5 c 128,-1,46
 387 488 387 488 419 462 c 0,47,48
 488 407 488 407 488 329.5 c 128,-1,49
 488 252 488 252 414 197 c 1,50,51
 485 144 485 144 485 71 c 128,-1,52
 485 -2 485 -2 418.5 -42.5 c 128,-1,53
 352 -83 352 -83 250 -83 c 128,-1,54
 148 -83 148 -83 68 -43 c 1,55,-1
 68 113 l 1,16,-1
EndSplineSet
EndChar

StartChar: dieresis
Encoding: 168 168 106
Width: 425
Flags: W
LayerCount: 2
Fore
SplineSet
232 688 m 128,-1,1
 232 722 232 722 255 744.5 c 128,-1,2
 278 767 278 767 312 767 c 128,-1,3
 346 767 346 767 368.5 744.5 c 128,-1,4
 391 722 391 722 391 688 c 128,-1,5
 391 654 391 654 368.5 631 c 128,-1,6
 346 608 346 608 312 608 c 128,-1,7
 278 608 278 608 255 631 c 128,-1,0
 232 654 232 654 232 688 c 128,-1,1
32 688 m 128,-1,9
 32 722 32 722 55 744.5 c 128,-1,10
 78 767 78 767 112 767 c 128,-1,11
 146 767 146 767 168.5 744.5 c 128,-1,12
 191 722 191 722 191 688 c 128,-1,13
 191 654 191 654 168.5 631 c 128,-1,14
 146 608 146 608 112 608 c 128,-1,15
 78 608 78 608 55 631 c 128,-1,8
 32 654 32 654 32 688 c 128,-1,9
EndSplineSet
EndChar

StartChar: copyright
Encoding: 169 169 107
Width: 829
Flags: W
LayerCount: 2
Fore
SplineSet
328 357 m 128,-1,1
 328 193 328 193 457 193 c 2,2,-1
 474 193 l 1,3,-1
 515 278 l 1,4,-1
 562 278 l 1,5,-1
 546 167 l 1,6,7
 494 138 494 138 410 138 c 128,-1,8
 326 138 326 138 271.5 195 c 128,-1,9
 217 252 217 252 217 356.5 c 128,-1,10
 217 461 217 461 272.5 518.5 c 128,-1,11
 328 576 328 576 438 576 c 0,12,13
 503 576 503 576 554 553 c 1,14,-1
 554 442 l 1,15,-1
 507 442 l 1,16,-1
 483 519 l 1,17,18
 471 521 471 521 460 521 c 0,19,0
 328 521 328 521 328 357 c 128,-1,1
113 357 m 128,-1,21
 113 231 113 231 201 143 c 128,-1,22
 289 55 289 55 416 55 c 128,-1,23
 543 55 543 55 630 143.5 c 128,-1,24
 717 232 717 232 717 357.5 c 128,-1,25
 717 483 717 483 630 571.5 c 128,-1,26
 543 660 543 660 416.5 660 c 128,-1,27
 290 660 290 660 201.5 571.5 c 128,-1,20
 113 483 113 483 113 357 c 128,-1,21
154 616.5 m 128,-1,29
 261 725 261 725 413.5 725 c 128,-1,30
 566 725 566 725 674 617 c 128,-1,31
 782 509 782 509 782 356.5 c 128,-1,32
 782 204 782 204 673.5 97 c 128,-1,33
 565 -10 565 -10 413.5 -10 c 128,-1,34
 262 -10 262 -10 154.5 97.5 c 128,-1,35
 47 205 47 205 47 356.5 c 128,-1,28
 47 508 47 508 154 616.5 c 128,-1,29
EndSplineSet
EndChar

StartChar: ordfeminine
Encoding: 170 170 108
Width: 402
Flags: W
LayerCount: 2
Fore
SplineSet
180 450 m 0,0,1
 203 450 203 450 220 467 c 1,2,-1
 220 547 l 1,3,4
 193 544 193 544 169 528.5 c 128,-1,5
 145 513 145 513 145 485 c 0,6,7
 145 450 145 450 180 450 c 0,0,1
293.5 396 m 128,-1,9
 249 396 249 396 228 427 c 1,10,11
 189 396 189 396 141 396 c 0,12,13
 38 396 38 396 38 479 c 0,14,15
 38 530 38 530 85 558 c 128,-1,16
 132 586 132 586 220 586 c 1,17,-1
 220 604 l 2,18,19
 220 639 220 639 214 658 c 128,-1,20
 208 677 208 677 180 677 c 1,21,-1
 105 611 l 1,22,23
 62 634 62 634 62 686 c 1,24,25
 122 714 122 714 190.5 714 c 128,-1,26
 259 714 259 714 291 685.5 c 128,-1,27
 323 657 323 657 323 611 c 2,28,-1
 323 451 l 1,29,-1
 370 451 l 1,30,-1
 370 424 l 1,31,8
 338 396 338 396 293.5 396 c 128,-1,9
EndSplineSet
EndChar

StartChar: guillemotleft
Encoding: 171 171 109
Width: 491
Flags: W
LayerCount: 2
Fore
SplineSet
250 284 m 1,0,-1
 367 441 l 1,1,-1
 425 441 l 1,2,-1
 381 270 l 1,3,-1
 425 99 l 1,4,-1
 367 99 l 1,5,-1
 250 256 l 1,6,-1
 250 284 l 1,0,-1
43 286 m 1,7,-1
 196 460 l 1,8,-1
 261 460 l 1,9,-1
 190 270 l 1,10,-1
 261 80 l 1,11,-1
 196 80 l 1,12,-1
 43 254 l 1,13,-1
 43 286 l 1,7,-1
EndSplineSet
EndChar

StartChar: logicalnot
Encoding: 172 172 110
Width: 560
Flags: W
LayerCount: 2
Fore
SplineSet
491 399 m 1,0,-1
 491 123 l 1,1,-1
 406 123 l 1,2,-1
 406 316 l 1,3,-1
 52 316 l 1,4,-1
 52 399 l 1,5,-1
 491 399 l 1,0,-1
EndSplineSet
EndChar

StartChar: uni00AD
Encoding: 173 173 111
Width: 364
Flags: W
LayerCount: 2
Fore
SplineSet
52 307 m 1,0,-1
 52 407 l 1,1,-1
 312 407 l 1,2,-1
 312 307 l 1,3,-1
 52 307 l 1,0,-1
EndSplineSet
EndChar

StartChar: registered
Encoding: 174 174 112
Width: 829
Flags: W
LayerCount: 2
Fore
SplineSet
475 451 m 128,-1,1
 475 484 475 484 454 505 c 128,-1,2
 433 526 433 526 390 526 c 2,3,-1
 374 526 l 1,4,-1
 374 374 l 1,5,-1
 390 374 l 2,6,7
 433 374 433 374 454 396 c 128,-1,0
 475 418 475 418 475 451 c 128,-1,1
575 454 m 0,8,9
 575 376 575 376 489 340 c 1,10,-1
 567 196 l 1,11,-1
 615 181 l 1,12,-1
 615 150 l 1,13,-1
 487 150 l 1,14,-1
 394 332 l 1,15,-1
 374 332 l 1,16,-1
 374 197 l 1,17,-1
 429 184 l 1,18,-1
 429 150 l 1,19,-1
 220 150 l 1,20,-1
 220 184 l 1,21,-1
 276 197 l 1,22,-1
 276 523 l 1,23,-1
 220 536 l 1,24,-1
 220 570 l 1,25,-1
 408 570 l 2,26,27
 575 570 575 570 575 454 c 0,8,9
716 357 m 128,-1,29
 716 420 716 420 692.5 475 c 128,-1,30
 669 530 669 530 628 571 c 128,-1,31
 587 612 587 612 532.5 636 c 128,-1,32
 478 660 478 660 415 660 c 128,-1,33
 352 660 352 660 297 636 c 128,-1,34
 242 612 242 612 201 571 c 128,-1,35
 160 530 160 530 136 475 c 128,-1,36
 112 420 112 420 112 357 c 128,-1,37
 112 294 112 294 136 239 c 128,-1,38
 160 184 160 184 201 143 c 128,-1,39
 242 102 242 102 297 78.5 c 128,-1,40
 352 55 352 55 415 55 c 128,-1,41
 478 55 478 55 532.5 78.5 c 128,-1,42
 587 102 587 102 628 143 c 128,-1,43
 669 184 669 184 692.5 239 c 128,-1,28
 716 294 716 294 716 357 c 128,-1,29
154 616.5 m 128,-1,45
 261 725 261 725 413.5 725 c 128,-1,46
 566 725 566 725 674 617 c 128,-1,47
 782 509 782 509 782 356.5 c 128,-1,48
 782 204 782 204 673.5 97 c 128,-1,49
 565 -10 565 -10 413.5 -10 c 128,-1,50
 262 -10 262 -10 154.5 97.5 c 128,-1,51
 47 205 47 205 47 356.5 c 128,-1,44
 47 508 47 508 154 616.5 c 128,-1,45
EndSplineSet
EndChar

StartChar: macron
Encoding: 175 175 113
Width: 459
Flags: W
LayerCount: 2
Fore
SplineSet
459 617 m 1,0,-1
 0 617 l 1,1,-1
 0 700 l 1,2,-1
 459 700 l 1,3,-1
 459 617 l 1,0,-1
EndSplineSet
EndChar

StartChar: degree
Encoding: 176 176 114
Width: 374
Flags: W
LayerCount: 2
Fore
SplineSet
113 608.5 m 128,-1,1
 113 578 113 578 135 556 c 128,-1,2
 157 534 157 534 187.5 534 c 128,-1,3
 218 534 218 534 240 556 c 128,-1,4
 262 578 262 578 262 608.5 c 128,-1,5
 262 639 262 639 240 661 c 128,-1,6
 218 683 218 683 187.5 683 c 128,-1,7
 157 683 157 683 135 661 c 128,-1,0
 113 639 113 639 113 608.5 c 128,-1,1
34 609 m 128,-1,9
 34 641 34 641 46 669 c 128,-1,10
 58 697 58 697 78.5 717.5 c 128,-1,11
 99 738 99 738 127 750 c 128,-1,12
 155 762 155 762 187 762 c 128,-1,13
 219 762 219 762 247 750 c 128,-1,14
 275 738 275 738 296 717.5 c 128,-1,15
 317 697 317 697 329 669 c 128,-1,16
 341 641 341 641 341 609 c 128,-1,17
 341 577 341 577 329 549 c 128,-1,18
 317 521 317 521 296 500 c 128,-1,19
 275 479 275 479 247 467 c 128,-1,20
 219 455 219 455 187 455 c 128,-1,21
 155 455 155 455 127 467 c 128,-1,22
 99 479 99 479 78.5 500 c 128,-1,23
 58 521 58 521 46 549 c 128,-1,8
 34 577 34 577 34 609 c 128,-1,9
EndSplineSet
EndChar

StartChar: plusminus
Encoding: 177 177 115
Width: 556
Flags: W
LayerCount: 2
Fore
SplineSet
315 586 m 1,0,-1
 315 400 l 1,1,-1
 502 400 l 1,2,-1
 502 313 l 1,3,-1
 315 313 l 1,4,-1
 315 127 l 1,5,-1
 229 127 l 1,6,-1
 229 313 l 1,7,-1
 53 313 l 1,8,-1
 53 400 l 1,9,-1
 229 400 l 1,10,-1
 229 586 l 1,11,-1
 315 586 l 1,0,-1
53 87 m 1,12,-1
 502 87 l 1,13,-1
 502 0 l 1,14,-1
 53 0 l 1,15,-1
 53 87 l 1,12,-1
EndSplineSet
EndChar

StartChar: twosuperior
Encoding: 178 178 116
Width: 380
Flags: W
LayerCount: 2
Fore
SplineSet
157 710 m 0,0,1
 313 710 313 710 313 619 c 0,2,3
 313 524 313 524 206 422 c 2,4,-1
 152 371 l 1,5,-1
 281 371 l 1,6,-1
 304 417 l 1,7,-1
 336 417 l 1,8,-1
 319 285 l 1,9,-1
 44 285 l 1,10,-1
 44 327 l 1,11,12
 47 330 47 330 60 344 c 2,13,-1
 91 379 l 1,14,15
 204 511 204 511 204 593 c 128,-1,16
 204 675 204 675 162 675 c 1,17,-1
 92 595 l 1,18,19
 54 631 54 631 48 680 c 1,20,21
 104 710 104 710 157 710 c 0,0,1
EndSplineSet
EndChar

StartChar: threesuperior
Encoding: 179 179 117
Width: 373
Flags: W
LayerCount: 2
Fore
SplineSet
162 710 m 0,0,1
 313 710 313 710 313 616 c 0,2,3
 313 575 313 575 285.5 546.5 c 128,-1,4
 258 518 258 518 213 510 c 1,5,6
 335 495 335 495 335 399 c 0,7,8
 335 308 335 308 225 284 c 0,9,10
 192 276 192 276 141 276 c 128,-1,11
 90 276 90 276 34 300 c 1,12,-1
 47 340 l 1,13,14
 90 324 90 324 131.5 324 c 128,-1,15
 173 324 173 324 199.5 346 c 128,-1,16
 226 368 226 368 226 405.5 c 128,-1,17
 226 443 226 443 197.5 463.5 c 128,-1,18
 169 484 169 484 125 484 c 1,19,-1
 125 522 l 1,20,21
 160 528 160 528 182 551 c 128,-1,22
 204 574 204 574 204 607 c 0,23,24
 204 665 204 665 158 676 c 1,25,-1
 92 609 l 1,26,27
 54 638 54 638 51 681 c 1,28,29
 113 710 113 710 162 710 c 0,0,1
EndSplineSet
EndChar

StartChar: acute
Encoding: 180 180 118
Width: 254
Flags: W
LayerCount: 2
Fore
SplineSet
179 767 m 1,0,1
 253 753 253 753 297 715 c 1,2,-1
 138 564 l 1,3,-1
 78 591 l 1,4,-1
 179 767 l 1,0,1
EndSplineSet
EndChar

StartChar: mu
Encoding: 181 181 119
AltUni2: 0003bc.ffffffff.0
Width: 675
Flags: W
LayerCount: 2
Fore
SplineSet
90 500 m 1,0,-1
 244 500 l 1,1,-1
 244 159 l 2,2,3
 244 111 244 111 259.5 88 c 128,-1,4
 275 65 275 65 321.5 65 c 128,-1,5
 368 65 368 65 410 102 c 1,6,-1
 410 500 l 1,7,-1
 564 500 l 1,8,-1
 564 153 l 2,9,10
 564 87 564 87 610 76 c 0,11,12
 622 74 622 74 630 74 c 2,13,-1
 642 74 l 1,14,-1
 642 32 l 1,15,16
 595 -15 595 -15 517 -15 c 128,-1,17
 439 -15 439 -15 414 41 c 1,18,19
 363 -15 363 -15 287.5 -15 c 128,-1,20
 212 -15 212 -15 176 32 c 1,21,22
 176 -112 176 -112 260 -217 c 1,23,24
 204 -250 204 -250 143 -250 c 0,25,26
 90 -250 90 -250 90 -192 c 2,27,-1
 90 500 l 1,0,-1
EndSplineSet
EndChar

StartChar: paragraph
Encoding: 182 182 120
Width: 662
Flags: W
LayerCount: 2
Fore
SplineSet
36 582 m 0,0,1
 36 760 36 760 261 760 c 2,2,-1
 617 760 l 1,3,-1
 617 707 l 1,4,-1
 532 687 l 1,5,-1
 532 -112 l 1,6,-1
 440 -112 l 1,7,-1
 440 682 l 1,8,-1
 361 682 l 1,9,-1
 361 -112 l 1,10,-1
 269 -112 l 1,11,-1
 269 386 l 1,12,-1
 259 386 l 2,13,14
 82 386 82 386 46 508 c 0,15,16
 36 543 36 543 36 582 c 0,0,1
EndSplineSet
EndChar

StartChar: periodcentered
Encoding: 183 183 121
Width: 268
Flags: W
LayerCount: 2
Fore
SplineSet
134 388 m 128,-1,1
 152 388 152 388 168 381 c 128,-1,2
 184 374 184 374 196.5 361.5 c 128,-1,3
 209 349 209 349 216 333 c 128,-1,4
 223 317 223 317 223 299 c 128,-1,5
 223 281 223 281 216 265 c 128,-1,6
 209 249 209 249 196.5 236.5 c 128,-1,7
 184 224 184 224 168 217 c 128,-1,8
 152 210 152 210 134 210 c 128,-1,9
 116 210 116 210 100 217 c 128,-1,10
 84 224 84 224 71.5 236.5 c 128,-1,11
 59 249 59 249 52 265 c 128,-1,12
 45 281 45 281 45 299 c 128,-1,13
 45 317 45 317 52 333 c 128,-1,14
 59 349 59 349 71.5 361.5 c 128,-1,15
 84 374 84 374 100 381 c 128,-1,0
 116 388 116 388 134 388 c 128,-1,1
EndSplineSet
EndChar

StartChar: cedilla
Encoding: 184 184 122
Width: 363
Flags: W
LayerCount: 2
Fore
SplineSet
161 -240 m 128,-1,1
 110 -240 110 -240 60 -229 c 1,2,-1
 60 -163 l 1,3,-1
 87 -169 l 2,4,5
 96 -171 96 -171 117.5 -171 c 128,-1,6
 139 -171 139 -171 156.5 -158 c 128,-1,7
 174 -145 174 -145 174 -120 c 0,8,9
 174 -73 174 -73 106 -69 c 1,10,-1
 127 9 l 1,11,-1
 189 9 l 1,12,-1
 179 -34 l 1,13,14
 181 -34 181 -34 183 -34 c 0,15,16
 233 -34 233 -34 266 -60 c 128,-1,17
 299 -86 299 -86 299 -133 c 128,-1,18
 299 -180 299 -180 255.5 -210 c 128,-1,0
 212 -240 212 -240 161 -240 c 128,-1,1
EndSplineSet
EndChar

StartChar: onesuperior
Encoding: 185 185 123
Width: 313
Flags: W
LayerCount: 2
Fore
SplineSet
277 285 m 1,0,-1
 52 285 l 1,1,-1
 52 317 l 1,2,-1
 120 329 l 1,3,-1
 120 644 l 1,4,-1
 49 613 l 1,5,-1
 39 644 l 1,6,-1
 165 710 l 1,7,-1
 226 710 l 1,8,-1
 226 326 l 1,9,-1
 277 317 l 1,10,-1
 277 285 l 1,0,-1
EndSplineSet
EndChar

StartChar: ordmasculine
Encoding: 186 186 124
Width: 393
Flags: W
LayerCount: 2
Fore
SplineSet
142 555 m 128,-1,1
 142 436 142 436 196.5 436 c 128,-1,2
 251 436 251 436 251 555 c 128,-1,3
 251 674 251 674 196.5 674 c 128,-1,0
 142 674 142 674 142 555 c 128,-1,1
356 574 m 0,4,5
 356 394 356 394 196 394 c 0,6,7
 117 394 117 394 77 439 c 128,-1,8
 37 484 37 484 37 536.5 c 128,-1,9
 37 589 37 589 46.5 618 c 128,-1,10
 56 647 56 647 75.5 668.5 c 128,-1,11
 95 690 95 690 125 702.5 c 128,-1,12
 155 715 155 715 196 715 c 0,13,14
 275 715 275 715 315.5 670.5 c 128,-1,15
 356 626 356 626 356 574 c 0,4,5
EndSplineSet
EndChar

StartChar: guillemotright
Encoding: 187 187 125
Width: 492
Flags: W
LayerCount: 2
Fore
SplineSet
241 256 m 1,0,-1
 125 99 l 1,1,-1
 66 99 l 1,2,-1
 110 270 l 1,3,-1
 66 441 l 1,4,-1
 125 441 l 1,5,-1
 241 284 l 1,6,-1
 241 256 l 1,0,-1
449 254 m 1,7,-1
 296 80 l 1,8,-1
 231 80 l 1,9,-1
 302 270 l 1,10,-1
 231 460 l 1,11,-1
 296 460 l 1,12,-1
 449 286 l 1,13,-1
 449 254 l 1,7,-1
EndSplineSet
EndChar

StartChar: onequarter
Encoding: 188 188 126
Width: 816
Flags: W
LayerCount: 2
Fore
SplineSet
627 136 m 1,0,-1
 627 267 l 1,1,-1
 528 136 l 1,2,-1
 627 136 l 1,0,-1
279 285 m 1,3,-1
 54 285 l 1,4,-1
 54 317 l 1,5,-1
 122 329 l 1,6,-1
 122 644 l 1,7,-1
 51 613 l 1,8,-1
 41 644 l 1,9,-1
 167 710 l 1,10,-1
 228 710 l 1,11,-1
 228 326 l 1,12,-1
 279 317 l 1,13,-1
 279 285 l 1,3,-1
301 0 m 1,14,-1
 220 0 l 1,15,-1
 577 714 l 1,16,-1
 657 714 l 1,17,-1
 301 0 l 1,14,-1
727 424 m 1,18,-1
 727 131 l 1,19,-1
 773 131 l 1,20,-1
 773 85 l 1,21,-1
 727 85 l 1,22,-1
 727 0 l 1,23,-1
 627 0 l 1,24,-1
 627 85 l 1,25,-1
 449 85 l 1,26,-1
 449 119 l 1,27,-1
 675 424 l 1,28,-1
 727 424 l 1,18,-1
EndSplineSet
EndChar

StartChar: onehalf
Encoding: 189 189 127
Width: 885
Flags: W
LayerCount: 2
Fore
SplineSet
665 425 m 0,0,1
 821 425 821 425 821 334 c 0,2,3
 821 239 821 239 714 136 c 1,4,-1
 660 86 l 1,5,-1
 789 86 l 1,6,-1
 812 132 l 1,7,-1
 844 132 l 1,8,-1
 827 0 l 1,9,-1
 552 0 l 1,10,-1
 552 42 l 1,11,12
 555 45 555 45 568 59 c 2,13,-1
 599 94 l 1,14,15
 712 226 712 226 712 308 c 128,-1,16
 712 390 712 390 670 390 c 1,17,-1
 600 310 l 1,18,19
 562 346 562 346 556 395 c 1,20,21
 612 425 612 425 665 425 c 0,0,1
280 285 m 1,22,-1
 55 285 l 1,23,-1
 55 317 l 1,24,-1
 123 329 l 1,25,-1
 123 644 l 1,26,-1
 52 613 l 1,27,-1
 42 644 l 1,28,-1
 168 710 l 1,29,-1
 229 710 l 1,30,-1
 229 326 l 1,31,-1
 280 317 l 1,32,-1
 280 285 l 1,22,-1
302 0 m 1,33,-1
 221 0 l 1,34,-1
 578 714 l 1,35,-1
 658 714 l 1,36,-1
 302 0 l 1,33,-1
EndSplineSet
EndChar

StartChar: threequarters
Encoding: 190 190 128
Width: 846
Flags: W
LayerCount: 2
Fore
SplineSet
656 136 m 1,0,-1
 656 267 l 1,1,-1
 557 136 l 1,2,-1
 656 136 l 1,0,-1
330 0 m 1,3,-1
 249 0 l 1,4,-1
 606 714 l 1,5,-1
 686 714 l 1,6,-1
 330 0 l 1,3,-1
168 710 m 0,7,8
 319 710 319 710 319 616 c 0,9,10
 319 575 319 575 291.5 546.5 c 128,-1,11
 264 518 264 518 219 510 c 1,12,13
 341 495 341 495 341 399 c 0,14,15
 341 308 341 308 231 284 c 0,16,17
 198 276 198 276 147 276 c 128,-1,18
 96 276 96 276 40 300 c 1,19,-1
 53 340 l 1,20,21
 96 324 96 324 137.5 324 c 128,-1,22
 179 324 179 324 205.5 346 c 128,-1,23
 232 368 232 368 232 405.5 c 128,-1,24
 232 443 232 443 203.5 463.5 c 128,-1,25
 175 484 175 484 131 484 c 1,26,-1
 131 522 l 1,27,28
 166 528 166 528 188 551 c 128,-1,29
 210 574 210 574 210 607 c 0,30,31
 210 665 210 665 164 676 c 1,32,-1
 98 609 l 1,33,34
 60 638 60 638 57 681 c 1,35,36
 119 710 119 710 168 710 c 0,7,8
756 424 m 1,37,-1
 756 131 l 1,38,-1
 802 131 l 1,39,-1
 802 85 l 1,40,-1
 756 85 l 1,41,-1
 756 0 l 1,42,-1
 656 0 l 1,43,-1
 656 85 l 1,44,-1
 478 85 l 1,45,-1
 478 119 l 1,46,-1
 704 424 l 1,47,-1
 756 424 l 1,37,-1
EndSplineSet
EndChar

StartChar: questiondown
Encoding: 191 191 129
Width: 485
Flags: W
LayerCount: 2
Fore
SplineSet
338 368.5 m 128,-1,1
 312 344 312 344 277.5 344 c 128,-1,2
 243 344 243 344 218 369 c 128,-1,3
 193 394 193 394 193 420 c 0,4,5
 193 463 193 463 217.5 489 c 128,-1,6
 242 515 242 515 268.5 515 c 128,-1,7
 295 515 295 515 310.5 508 c 128,-1,8
 326 501 326 501 338 489 c 0,9,10
 364 463 364 463 364 428 c 128,-1,0
 364 393 364 393 338 368.5 c 128,-1,1
252 -215 m 128,-1,12
 141 -215 141 -215 89.5 -169 c 128,-1,13
 38 -123 38 -123 38 -44 c 0,14,15
 38 60 38 60 156 155 c 1,16,-1
 233 215 l 1,17,-1
 248 308 l 1,18,-1
 308 308 l 1,19,-1
 323 186 l 1,20,21
 195 45 195 45 195 -35 c 0,22,23
 195 -101 195 -101 222 -132 c 128,-1,24
 249 -163 249 -163 287 -163 c 1,25,-1
 405 -50 l 1,26,27
 446 -91 446 -91 452 -167 c 1,28,11
 363 -215 363 -215 252 -215 c 128,-1,12
EndSplineSet
EndChar

StartChar: Agrave
Encoding: 192 192 130
Width: 732
Flags: W
LayerCount: 2
Fore
SplineSet
444 796 m 1,0,-1
 405 748 l 1,1,-1
 206 829 l 1,2,3
 224 874 224 874 274 910 c 0,4,5
 288 920 288 920 301 924 c 1,6,-1
 444 796 l 1,0,-1
240 262 m 1,7,-1
 398 262 l 1,8,-1
 320 475 l 1,9,-1
 240 262 l 1,7,-1
734 0 m 1,10,-1
 395 0 l 1,11,-1
 395 56 l 1,12,-1
 466 73 l 1,13,-1
 423 193 l 1,14,-1
 213 193 l 1,15,-1
 168 76 l 1,16,-1
 252 56 l 1,17,-1
 252 0 l 1,18,-1
 -10 0 l 1,19,-1
 -10 56 l 1,20,-1
 88 79 l 1,21,-1
 327 705 l 1,22,-1
 414 705 l 1,23,-1
 638 79 l 1,24,-1
 734 56 l 1,25,-1
 734 0 l 1,10,-1
EndSplineSet
EndChar

StartChar: Aacute
Encoding: 193 193 131
Width: 732
Flags: W
LayerCount: 2
Fore
SplineSet
434 925 m 1,0,1
 473 913 473 913 512 860 c 0,2,3
 523 845 523 845 529 830 c 1,4,-1
 325 749 l 1,5,-1
 286 797 l 1,6,-1
 434 925 l 1,0,1
240 262 m 1,7,-1
 398 262 l 1,8,-1
 320 475 l 1,9,-1
 240 262 l 1,7,-1
734 0 m 1,10,-1
 395 0 l 1,11,-1
 395 56 l 1,12,-1
 466 73 l 1,13,-1
 423 193 l 1,14,-1
 213 193 l 1,15,-1
 168 76 l 1,16,-1
 252 56 l 1,17,-1
 252 0 l 1,18,-1
 -10 0 l 1,19,-1
 -10 56 l 1,20,-1
 88 79 l 1,21,-1
 327 705 l 1,22,-1
 414 705 l 1,23,-1
 638 79 l 1,24,-1
 734 56 l 1,25,-1
 734 0 l 1,10,-1
EndSplineSet
EndChar

StartChar: Acircumflex
Encoding: 194 194 132
Width: 732
Flags: W
LayerCount: 2
Fore
SplineSet
551 788 m 1,0,-1
 483 764 l 1,1,-1
 370 827 l 1,2,-1
 258 764 l 1,3,-1
 191 788 l 1,4,-1
 316 909 l 1,5,-1
 425 909 l 1,6,-1
 551 788 l 1,0,-1
240 262 m 1,7,-1
 398 262 l 1,8,-1
 320 475 l 1,9,-1
 240 262 l 1,7,-1
734 0 m 1,10,-1
 395 0 l 1,11,-1
 395 56 l 1,12,-1
 466 73 l 1,13,-1
 423 193 l 1,14,-1
 213 193 l 1,15,-1
 168 76 l 1,16,-1
 252 56 l 1,17,-1
 252 0 l 1,18,-1
 -10 0 l 1,19,-1
 -10 56 l 1,20,-1
 88 79 l 1,21,-1
 327 705 l 1,22,-1
 414 705 l 1,23,-1
 638 79 l 1,24,-1
 734 56 l 1,25,-1
 734 0 l 1,10,-1
EndSplineSet
EndChar

StartChar: Atilde
Encoding: 195 195 133
Width: 732
Flags: W
LayerCount: 2
Fore
SplineSet
293 906 m 0,0,1
 322 906 322 906 368 879 c 128,-1,2
 414 852 414 852 443.5 852 c 128,-1,3
 473 852 473 852 534 896 c 1,4,-1
 571 857 l 1,5,6
 542 805 542 805 488 776 c 0,7,8
 460 762 460 762 431 762 c 0,9,10
 395 762 395 762 349 789 c 128,-1,11
 303 816 303 816 285 816 c 0,12,13
 252 816 252 816 214 795 c 2,14,-1
 186 779 l 1,15,-1
 150 822 l 1,16,17
 213 906 213 906 293 906 c 0,0,1
240 262 m 1,18,-1
 398 262 l 1,19,-1
 320 475 l 1,20,-1
 240 262 l 1,18,-1
734 0 m 1,21,-1
 395 0 l 1,22,-1
 395 56 l 1,23,-1
 466 73 l 1,24,-1
 423 193 l 1,25,-1
 213 193 l 1,26,-1
 168 76 l 1,27,-1
 252 56 l 1,28,-1
 252 0 l 1,29,-1
 -10 0 l 1,30,-1
 -10 56 l 1,31,-1
 88 79 l 1,32,-1
 327 705 l 1,33,-1
 414 705 l 1,34,-1
 638 79 l 1,35,-1
 734 56 l 1,36,-1
 734 0 l 1,21,-1
EndSplineSet
EndChar

StartChar: Adieresis
Encoding: 196 196 134
Width: 732
Flags: W
LayerCount: 2
Fore
SplineSet
401 841 m 128,-1,1
 401 875 401 875 424 897.5 c 128,-1,2
 447 920 447 920 481 920 c 128,-1,3
 515 920 515 920 537.5 897.5 c 128,-1,4
 560 875 560 875 560 841 c 128,-1,5
 560 807 560 807 537.5 784 c 128,-1,6
 515 761 515 761 481 761 c 128,-1,7
 447 761 447 761 424 784 c 128,-1,0
 401 807 401 807 401 841 c 128,-1,1
181 841 m 128,-1,9
 181 875 181 875 204 897.5 c 128,-1,10
 227 920 227 920 261 920 c 128,-1,11
 295 920 295 920 317.5 897.5 c 128,-1,12
 340 875 340 875 340 841 c 128,-1,13
 340 807 340 807 317.5 784 c 128,-1,14
 295 761 295 761 261 761 c 128,-1,15
 227 761 227 761 204 784 c 128,-1,8
 181 807 181 807 181 841 c 128,-1,9
240 262 m 1,16,-1
 398 262 l 1,17,-1
 320 475 l 1,18,-1
 240 262 l 1,16,-1
734 0 m 1,19,-1
 395 0 l 1,20,-1
 395 56 l 1,21,-1
 466 73 l 1,22,-1
 423 193 l 1,23,-1
 213 193 l 1,24,-1
 168 76 l 1,25,-1
 252 56 l 1,26,-1
 252 0 l 1,27,-1
 -10 0 l 1,28,-1
 -10 56 l 1,29,-1
 88 79 l 1,30,-1
 327 705 l 1,31,-1
 414 705 l 1,32,-1
 638 79 l 1,33,-1
 734 56 l 1,34,-1
 734 0 l 1,19,-1
EndSplineSet
EndChar

StartChar: Aring
Encoding: 197 197 135
Width: 732
Flags: W
LayerCount: 2
Fore
SplineSet
325 812 m 128,-1,1
 325 795 325 795 338 782.5 c 128,-1,2
 351 770 351 770 368 770 c 128,-1,3
 385 770 385 770 398 782.5 c 128,-1,4
 411 795 411 795 411 812 c 128,-1,5
 411 829 411 829 398 842 c 128,-1,6
 385 855 385 855 368 855 c 128,-1,7
 351 855 351 855 338 842 c 128,-1,0
 325 829 325 829 325 812 c 128,-1,1
240 262 m 1,8,-1
 398 262 l 1,9,-1
 320 475 l 1,10,-1
 240 262 l 1,8,-1
368 932 m 128,-1,12
 418 932 418 932 452.5 896 c 128,-1,13
 487 860 487 860 487 818 c 0,14,15
 487 734 487 734 415 702 c 1,16,-1
 638 79 l 1,17,-1
 734 56 l 1,18,-1
 734 0 l 1,19,-1
 395 0 l 1,20,-1
 395 56 l 1,21,-1
 466 73 l 1,22,-1
 423 193 l 1,23,-1
 213 193 l 1,24,-1
 168 76 l 1,25,-1
 252 56 l 1,26,-1
 252 0 l 1,27,-1
 -10 0 l 1,28,-1
 -10 56 l 1,29,-1
 88 79 l 1,30,-1
 325 701 l 1,31,32
 292 714 292 714 270.5 744 c 128,-1,33
 249 774 249 774 249 805.5 c 128,-1,34
 249 837 249 837 258.5 858.5 c 128,-1,35
 268 880 268 880 284 896 c 0,36,11
 318 932 318 932 368 932 c 128,-1,12
EndSplineSet
EndChar

StartChar: AE
Encoding: 198 198 136
Width: 1030
Flags: W
LayerCount: 2
Fore
SplineSet
510 301 m 1,0,-1
 510 561 l 1,1,-1
 332 301 l 1,2,-1
 510 301 l 1,0,-1
510 227 m 1,3,-1
 281 227 l 1,4,-1
 179 77 l 1,5,-1
 268 56 l 1,6,-1
 268 0 l 1,7,-1
 -14 0 l 1,8,-1
 -14 56 l 1,9,-1
 78 78 l 1,10,-1
 510 700 l 1,11,-1
 964 700 l 1,12,-1
 964 495 l 1,13,-1
 908 495 l 1,14,-1
 868 623 l 1,15,-1
 673 623 l 1,16,-1
 673 388 l 1,17,-1
 874 408 l 1,18,-1
 874 309 l 1,19,-1
 673 327 l 1,20,-1
 673 77 l 1,21,-1
 870 77 l 1,22,-1
 938 216 l 1,23,-1
 994 216 l 1,24,-1
 964 0 l 1,25,-1
 418 0 l 1,26,-1
 418 56 l 1,27,-1
 510 78 l 1,28,-1
 510 227 l 1,3,-1
EndSplineSet
EndChar

StartChar: Ccedilla
Encoding: 199 199 137
Width: 652
Flags: W
LayerCount: 2
Fore
SplineSet
444 -133 m 128,-1,1
 444 -180 444 -180 400.5 -210 c 128,-1,2
 357 -240 357 -240 305.5 -240 c 128,-1,3
 254 -240 254 -240 205 -229 c 1,4,-1
 205 -163 l 1,5,-1
 232 -169 l 2,6,7
 241 -171 241 -171 262.5 -171 c 128,-1,8
 284 -171 284 -171 301.5 -158 c 128,-1,9
 319 -145 319 -145 319 -120 c 0,10,11
 319 -73 319 -73 251 -69 c 1,12,-1
 269 0 l 1,13,14
 157 31 157 31 98 120.5 c 128,-1,15
 39 210 39 210 39 350 c 0,16,17
 39 617 39 617 246 690 c 0,18,19
 315 715 315 715 410.5 715 c 128,-1,20
 506 715 506 715 601 676 c 1,21,-1
 601 491 l 1,22,-1
 545 491 l 1,23,-1
 501 632 l 1,24,25
 462 638 462 638 444 638 c 0,26,27
 318 638 318 638 261.5 568 c 128,-1,28
 205 498 205 498 205 349.5 c 128,-1,29
 205 201 205 201 258.5 131.5 c 128,-1,30
 312 62 312 62 427 62 c 0,31,32
 448 62 448 62 483 67 c 1,33,-1
 557 218 l 1,34,-1
 613 218 l 1,35,-1
 587 34 l 1,36,37
 505 -15 505 -15 388 -15 c 0,38,39
 357 -15 357 -15 329 -11 c 1,40,-1
 324 -34 l 1,41,42
 326 -34 326 -34 328 -34 c 0,43,44
 378 -34 378 -34 410 -60 c 1,45,0
 444 -86 444 -86 444 -133 c 128,-1,1
EndSplineSet
EndChar

StartChar: Egrave
Encoding: 200 200 138
Width: 630
Flags: W
LayerCount: 2
Fore
SplineSet
428 796 m 1,0,-1
 389 748 l 1,1,-1
 190 829 l 1,2,3
 208 874 208 874 258 910 c 0,4,5
 272 920 272 920 285 924 c 1,6,-1
 428 796 l 1,0,-1
288 77 m 1,7,-1
 467 77 l 1,8,-1
 535 216 l 1,9,-1
 594 216 l 1,10,-1
 564 0 l 1,11,-1
 33 0 l 1,12,-1
 33 56 l 1,13,-1
 125 78 l 1,14,-1
 125 622 l 1,15,-1
 33 644 l 1,16,-1
 33 700 l 1,17,-1
 564 700 l 1,18,-1
 564 495 l 1,19,-1
 505 495 l 1,20,-1
 465 623 l 1,21,-1
 288 623 l 1,22,-1
 288 391 l 1,23,-1
 474 408 l 1,24,-1
 474 309 l 1,25,-1
 288 324 l 1,26,-1
 288 77 l 1,7,-1
EndSplineSet
EndChar

StartChar: Eacute
Encoding: 201 201 139
Width: 630
Flags: W
LayerCount: 2
Fore
SplineSet
428 925 m 1,0,1
 467 913 467 913 506 860 c 0,2,3
 517 845 517 845 523 830 c 1,4,-1
 319 749 l 1,5,-1
 280 797 l 1,6,-1
 428 925 l 1,0,1
288 77 m 1,7,-1
 467 77 l 1,8,-1
 535 216 l 1,9,-1
 594 216 l 1,10,-1
 564 0 l 1,11,-1
 33 0 l 1,12,-1
 33 56 l 1,13,-1
 125 78 l 1,14,-1
 125 622 l 1,15,-1
 33 644 l 1,16,-1
 33 700 l 1,17,-1
 564 700 l 1,18,-1
 564 495 l 1,19,-1
 505 495 l 1,20,-1
 465 623 l 1,21,-1
 288 623 l 1,22,-1
 288 391 l 1,23,-1
 474 408 l 1,24,-1
 474 309 l 1,25,-1
 288 324 l 1,26,-1
 288 77 l 1,7,-1
EndSplineSet
EndChar

StartChar: Ecircumflex
Encoding: 202 202 140
Width: 630
Flags: W
LayerCount: 2
Fore
SplineSet
545 788 m 1,0,-1
 477 764 l 1,1,-1
 364 827 l 1,2,-1
 252 764 l 1,3,-1
 185 788 l 1,4,-1
 310 909 l 1,5,-1
 419 909 l 1,6,-1
 545 788 l 1,0,-1
288 77 m 1,7,-1
 467 77 l 1,8,-1
 535 216 l 1,9,-1
 594 216 l 1,10,-1
 564 0 l 1,11,-1
 33 0 l 1,12,-1
 33 56 l 1,13,-1
 125 78 l 1,14,-1
 125 622 l 1,15,-1
 33 644 l 1,16,-1
 33 700 l 1,17,-1
 564 700 l 1,18,-1
 564 495 l 1,19,-1
 505 495 l 1,20,-1
 465 623 l 1,21,-1
 288 623 l 1,22,-1
 288 391 l 1,23,-1
 474 408 l 1,24,-1
 474 309 l 1,25,-1
 288 324 l 1,26,-1
 288 77 l 1,7,-1
EndSplineSet
EndChar

StartChar: Edieresis
Encoding: 203 203 141
Width: 630
Flags: W
LayerCount: 2
Fore
SplineSet
375 841 m 128,-1,1
 375 875 375 875 398 897.5 c 128,-1,2
 421 920 421 920 455 920 c 128,-1,3
 489 920 489 920 511.5 897.5 c 128,-1,4
 534 875 534 875 534 841 c 128,-1,5
 534 807 534 807 511.5 784 c 128,-1,6
 489 761 489 761 455 761 c 128,-1,7
 421 761 421 761 398 784 c 128,-1,0
 375 807 375 807 375 841 c 128,-1,1
155 841 m 128,-1,9
 155 875 155 875 178 897.5 c 128,-1,10
 201 920 201 920 235 920 c 128,-1,11
 269 920 269 920 291.5 897.5 c 128,-1,12
 314 875 314 875 314 841 c 128,-1,13
 314 807 314 807 291.5 784 c 128,-1,14
 269 761 269 761 235 761 c 128,-1,15
 201 761 201 761 178 784 c 128,-1,8
 155 807 155 807 155 841 c 128,-1,9
288 77 m 1,16,-1
 467 77 l 1,17,-1
 535 216 l 1,18,-1
 594 216 l 1,19,-1
 564 0 l 1,20,-1
 33 0 l 1,21,-1
 33 56 l 1,22,-1
 125 78 l 1,23,-1
 125 622 l 1,24,-1
 33 644 l 1,25,-1
 33 700 l 1,26,-1
 564 700 l 1,27,-1
 564 495 l 1,28,-1
 505 495 l 1,29,-1
 465 623 l 1,30,-1
 288 623 l 1,31,-1
 288 391 l 1,32,-1
 474 408 l 1,33,-1
 474 309 l 1,34,-1
 288 324 l 1,35,-1
 288 77 l 1,16,-1
EndSplineSet
EndChar

StartChar: Igrave
Encoding: 204 204 142
Width: 413
Flags: W
LayerCount: 2
Fore
SplineSet
302 796 m 1,0,-1
 263 748 l 1,1,-1
 64 829 l 1,2,3
 82 874 82 874 132 910 c 0,4,5
 146 920 146 920 159 924 c 1,6,-1
 302 796 l 1,0,-1
380 0 m 1,7,-1
 33 0 l 1,8,-1
 33 56 l 1,9,-1
 125 78 l 1,10,-1
 125 622 l 1,11,-1
 33 644 l 1,12,-1
 33 700 l 1,13,-1
 380 700 l 1,14,-1
 380 644 l 1,15,-1
 288 622 l 1,16,-1
 288 78 l 1,17,-1
 380 56 l 1,18,-1
 380 0 l 1,7,-1
EndSplineSet
EndChar

StartChar: Iacute
Encoding: 205 205 143
Width: 413
Flags: W
LayerCount: 2
Fore
SplineSet
272 925 m 1,0,1
 311 913 311 913 350 860 c 0,2,3
 361 845 361 845 367 830 c 1,4,-1
 163 749 l 1,5,-1
 124 797 l 1,6,-1
 272 925 l 1,0,1
380 0 m 1,7,-1
 33 0 l 1,8,-1
 33 56 l 1,9,-1
 125 78 l 1,10,-1
 125 622 l 1,11,-1
 33 644 l 1,12,-1
 33 700 l 1,13,-1
 380 700 l 1,14,-1
 380 644 l 1,15,-1
 288 622 l 1,16,-1
 288 78 l 1,17,-1
 380 56 l 1,18,-1
 380 0 l 1,7,-1
EndSplineSet
EndChar

StartChar: Icircumflex
Encoding: 206 206 144
Width: 413
Flags: W
LayerCount: 2
Fore
SplineSet
389 788 m 1,0,-1
 321 764 l 1,1,-1
 208 827 l 1,2,-1
 96 764 l 1,3,-1
 29 788 l 1,4,-1
 154 909 l 1,5,-1
 263 909 l 1,6,-1
 389 788 l 1,0,-1
380 0 m 1,7,-1
 33 0 l 1,8,-1
 33 56 l 1,9,-1
 125 78 l 1,10,-1
 125 622 l 1,11,-1
 33 644 l 1,12,-1
 33 700 l 1,13,-1
 380 700 l 1,14,-1
 380 644 l 1,15,-1
 288 622 l 1,16,-1
 288 78 l 1,17,-1
 380 56 l 1,18,-1
 380 0 l 1,7,-1
EndSplineSet
EndChar

StartChar: Idieresis
Encoding: 207 207 145
Width: 413
Flags: W
LayerCount: 2
Fore
SplineSet
239 841 m 128,-1,1
 239 875 239 875 262 897.5 c 128,-1,2
 285 920 285 920 319 920 c 128,-1,3
 353 920 353 920 375.5 897.5 c 128,-1,4
 398 875 398 875 398 841 c 128,-1,5
 398 807 398 807 375.5 784 c 128,-1,6
 353 761 353 761 319 761 c 128,-1,7
 285 761 285 761 262 784 c 128,-1,0
 239 807 239 807 239 841 c 128,-1,1
99 920 m 128,-1,9
 133 920 133 920 155.5 897.5 c 128,-1,10
 178 875 178 875 178 841 c 128,-1,11
 178 807 178 807 155.5 784 c 128,-1,12
 133 761 133 761 99 761 c 128,-1,13
 65 761 65 761 42 784 c 128,-1,14
 19 807 19 807 19 841 c 128,-1,15
 19 875 19 875 42 897.5 c 128,-1,8
 65 920 65 920 99 920 c 128,-1,9
380 0 m 1,16,-1
 33 0 l 1,17,-1
 33 56 l 1,18,-1
 125 78 l 1,19,-1
 125 622 l 1,20,-1
 33 644 l 1,21,-1
 33 700 l 1,22,-1
 380 700 l 1,23,-1
 380 644 l 1,24,-1
 288 622 l 1,25,-1
 288 78 l 1,26,-1
 380 56 l 1,27,-1
 380 0 l 1,16,-1
EndSplineSet
EndChar

StartChar: Eth
Encoding: 208 208 146
Width: 753
Flags: W
LayerCount: 2
Fore
SplineSet
544 350 m 0,0,1
 544 498 544 498 479.5 560.5 c 128,-1,2
 415 623 415 623 320 623 c 2,3,-1
 290 623 l 1,4,-1
 290 390 l 1,5,-1
 453 390 l 1,6,-1
 453 313 l 1,7,-1
 290 313 l 1,8,-1
 290 77 l 1,9,-1
 320 77 l 2,10,11
 472 77 472 77 524 215 c 0,12,13
 544 268 544 268 544 350 c 0,0,1
35 390 m 1,14,-1
 127 390 l 1,15,-1
 127 622 l 1,16,-1
 35 644 l 1,17,-1
 35 700 l 1,18,-1
 335 700 l 2,19,20
 517 700 517 700 613.5 603.5 c 128,-1,21
 710 507 710 507 710 351 c 128,-1,22
 710 195 710 195 614 97.5 c 128,-1,23
 518 0 518 0 335 0 c 2,24,-1
 35 0 l 1,25,-1
 35 56 l 1,26,-1
 127 78 l 1,27,-1
 127 313 l 1,28,-1
 35 313 l 1,29,-1
 35 390 l 1,14,-1
EndSplineSet
EndChar

StartChar: Ntilde
Encoding: 209 209 147
Width: 833
Flags: W
LayerCount: 2
Fore
SplineSet
355 906 m 0,0,1
 384 906 384 906 430 879 c 128,-1,2
 476 852 476 852 505.5 852 c 128,-1,3
 535 852 535 852 596 896 c 1,4,-1
 633 857 l 1,5,6
 604 805 604 805 550 776 c 0,7,8
 522 762 522 762 493 762 c 0,9,10
 457 762 457 762 411 789 c 128,-1,11
 365 816 365 816 347 816 c 0,12,13
 314 816 314 816 276 795 c 2,14,-1
 248 779 l 1,15,-1
 212 822 l 1,16,17
 275 906 275 906 355 906 c 0,0,1
717 0 m 1,18,-1
 620 0 l 1,19,-1
 205 454 l 1,20,-1
 205 78 l 1,21,-1
 297 56 l 1,22,-1
 297 0 l 1,23,-1
 33 0 l 1,24,-1
 33 56 l 1,25,-1
 125 78 l 1,26,-1
 125 622 l 1,27,-1
 33 644 l 1,28,-1
 33 700 l 1,29,-1
 205 700 l 1,30,-1
 634 230 l 1,31,-1
 634 622 l 1,32,-1
 542 644 l 1,33,-1
 542 700 l 1,34,-1
 809 700 l 1,35,-1
 809 644 l 1,36,-1
 717 622 l 1,37,-1
 717 0 l 1,18,-1
EndSplineSet
EndChar

StartChar: Ograve
Encoding: 210 210 148
Width: 774
Flags: W
LayerCount: 2
Fore
SplineSet
460 796 m 1,0,-1
 421 748 l 1,1,-1
 222 829 l 1,2,3
 240 874 240 874 290 910 c 0,4,5
 304 920 304 920 317 924 c 1,6,-1
 460 796 l 1,0,-1
386.5 54 m 128,-1,8
 434 54 434 54 467.5 76.5 c 128,-1,9
 501 99 501 99 522.5 138.5 c 128,-1,10
 544 178 544 178 554 232.5 c 128,-1,11
 564 287 564 287 564 350 c 0,12,13
 564 485 564 485 520.5 565.5 c 128,-1,14
 477 646 477 646 387 646 c 0,15,16
 210 646 210 646 210 350 c 0,17,18
 210 141 210 141 306 76 c 0,19,7
 339 54 339 54 386.5 54 c 128,-1,8
386.5 -15 m 128,-1,21
 298 -15 298 -15 233 14 c 128,-1,22
 168 43 168 43 125.5 92.5 c 128,-1,23
 83 142 83 142 62.5 208.5 c 128,-1,24
 42 275 42 275 42 350 c 0,25,26
 42 510 42 510 130 612.5 c 128,-1,27
 218 715 218 715 386.5 715 c 128,-1,28
 555 715 555 715 643.5 613 c 128,-1,29
 732 511 732 511 732 350 c 0,30,31
 732 100 732 100 540 14 c 0,32,20
 475 -15 475 -15 386.5 -15 c 128,-1,21
EndSplineSet
EndChar

StartChar: Oacute
Encoding: 211 211 149
Width: 774
Flags: W
LayerCount: 2
Fore
SplineSet
490 925 m 1,0,1
 529 913 529 913 568 860 c 0,2,3
 579 845 579 845 585 830 c 1,4,-1
 381 749 l 1,5,-1
 342 797 l 1,6,-1
 490 925 l 1,0,1
386.5 54 m 128,-1,8
 434 54 434 54 467.5 76.5 c 128,-1,9
 501 99 501 99 522.5 138.5 c 128,-1,10
 544 178 544 178 554 232.5 c 128,-1,11
 564 287 564 287 564 350 c 0,12,13
 564 485 564 485 520.5 565.5 c 128,-1,14
 477 646 477 646 387 646 c 0,15,16
 210 646 210 646 210 350 c 0,17,18
 210 141 210 141 306 76 c 0,19,7
 339 54 339 54 386.5 54 c 128,-1,8
386.5 -15 m 128,-1,21
 298 -15 298 -15 233 14 c 128,-1,22
 168 43 168 43 125.5 92.5 c 128,-1,23
 83 142 83 142 62.5 208.5 c 128,-1,24
 42 275 42 275 42 350 c 0,25,26
 42 510 42 510 130 612.5 c 128,-1,27
 218 715 218 715 386.5 715 c 128,-1,28
 555 715 555 715 643.5 613 c 128,-1,29
 732 511 732 511 732 350 c 0,30,31
 732 100 732 100 540 14 c 0,32,20
 475 -15 475 -15 386.5 -15 c 128,-1,21
EndSplineSet
EndChar

StartChar: Ocircumflex
Encoding: 212 212 150
Width: 774
Flags: W
LayerCount: 2
Fore
SplineSet
567 788 m 1,0,-1
 499 764 l 1,1,-1
 386 827 l 1,2,-1
 274 764 l 1,3,-1
 207 788 l 1,4,-1
 332 909 l 1,5,-1
 441 909 l 1,6,-1
 567 788 l 1,0,-1
386.5 54 m 128,-1,8
 434 54 434 54 467.5 76.5 c 128,-1,9
 501 99 501 99 522.5 138.5 c 128,-1,10
 544 178 544 178 554 232.5 c 128,-1,11
 564 287 564 287 564 350 c 0,12,13
 564 485 564 485 520.5 565.5 c 128,-1,14
 477 646 477 646 387 646 c 0,15,16
 210 646 210 646 210 350 c 0,17,18
 210 141 210 141 306 76 c 0,19,7
 339 54 339 54 386.5 54 c 128,-1,8
386.5 -15 m 128,-1,21
 298 -15 298 -15 233 14 c 128,-1,22
 168 43 168 43 125.5 92.5 c 128,-1,23
 83 142 83 142 62.5 208.5 c 128,-1,24
 42 275 42 275 42 350 c 0,25,26
 42 510 42 510 130 612.5 c 128,-1,27
 218 715 218 715 386.5 715 c 128,-1,28
 555 715 555 715 643.5 613 c 128,-1,29
 732 511 732 511 732 350 c 0,30,31
 732 100 732 100 540 14 c 0,32,20
 475 -15 475 -15 386.5 -15 c 128,-1,21
EndSplineSet
EndChar

StartChar: Otilde
Encoding: 213 213 151
Width: 774
Flags: W
LayerCount: 2
Fore
SplineSet
309 906 m 0,0,1
 338 906 338 906 384 879 c 128,-1,2
 430 852 430 852 459.5 852 c 128,-1,3
 489 852 489 852 550 896 c 1,4,-1
 587 857 l 1,5,6
 558 805 558 805 504 776 c 0,7,8
 476 762 476 762 447 762 c 0,9,10
 411 762 411 762 365 789 c 128,-1,11
 319 816 319 816 301 816 c 0,12,13
 268 816 268 816 230 795 c 2,14,-1
 202 779 l 1,15,-1
 166 822 l 1,16,17
 229 906 229 906 309 906 c 0,0,1
386.5 54 m 128,-1,19
 434 54 434 54 467.5 76.5 c 128,-1,20
 501 99 501 99 522.5 138.5 c 128,-1,21
 544 178 544 178 554 232.5 c 128,-1,22
 564 287 564 287 564 350 c 0,23,24
 564 485 564 485 520.5 565.5 c 128,-1,25
 477 646 477 646 387 646 c 0,26,27
 210 646 210 646 210 350 c 0,28,29
 210 141 210 141 306 76 c 0,30,18
 339 54 339 54 386.5 54 c 128,-1,19
386.5 -15 m 128,-1,32
 298 -15 298 -15 233 14 c 128,-1,33
 168 43 168 43 125.5 92.5 c 128,-1,34
 83 142 83 142 62.5 208.5 c 128,-1,35
 42 275 42 275 42 350 c 0,36,37
 42 510 42 510 130 612.5 c 128,-1,38
 218 715 218 715 386.5 715 c 128,-1,39
 555 715 555 715 643.5 613 c 128,-1,40
 732 511 732 511 732 350 c 0,41,42
 732 100 732 100 540 14 c 0,43,31
 475 -15 475 -15 386.5 -15 c 128,-1,32
EndSplineSet
EndChar

StartChar: Odieresis
Encoding: 214 214 152
Width: 774
Flags: W
LayerCount: 2
Fore
SplineSet
417 841 m 128,-1,1
 417 875 417 875 440 897.5 c 128,-1,2
 463 920 463 920 497 920 c 128,-1,3
 531 920 531 920 553.5 897.5 c 128,-1,4
 576 875 576 875 576 841 c 128,-1,5
 576 807 576 807 553.5 784 c 128,-1,6
 531 761 531 761 497 761 c 128,-1,7
 463 761 463 761 440 784 c 128,-1,0
 417 807 417 807 417 841 c 128,-1,1
197 841 m 128,-1,9
 197 875 197 875 220 897.5 c 128,-1,10
 243 920 243 920 277 920 c 128,-1,11
 311 920 311 920 333.5 897.5 c 128,-1,12
 356 875 356 875 356 841 c 128,-1,13
 356 807 356 807 333.5 784 c 128,-1,14
 311 761 311 761 277 761 c 128,-1,15
 243 761 243 761 220 784 c 128,-1,8
 197 807 197 807 197 841 c 128,-1,9
386.5 54 m 128,-1,17
 434 54 434 54 467.5 76.5 c 128,-1,18
 501 99 501 99 522.5 138.5 c 128,-1,19
 544 178 544 178 554 232.5 c 128,-1,20
 564 287 564 287 564 350 c 0,21,22
 564 485 564 485 520.5 565.5 c 128,-1,23
 477 646 477 646 387 646 c 0,24,25
 210 646 210 646 210 350 c 0,26,27
 210 141 210 141 306 76 c 0,28,16
 339 54 339 54 386.5 54 c 128,-1,17
386.5 -15 m 128,-1,30
 298 -15 298 -15 233 14 c 128,-1,31
 168 43 168 43 125.5 92.5 c 128,-1,32
 83 142 83 142 62.5 208.5 c 128,-1,33
 42 275 42 275 42 350 c 0,34,35
 42 510 42 510 130 612.5 c 128,-1,36
 218 715 218 715 386.5 715 c 128,-1,37
 555 715 555 715 643.5 613 c 128,-1,38
 732 511 732 511 732 350 c 0,39,40
 732 100 732 100 540 14 c 0,41,29
 475 -15 475 -15 386.5 -15 c 128,-1,30
EndSplineSet
EndChar

StartChar: multiply
Encoding: 215 215 153
Width: 545
Flags: W
LayerCount: 2
Fore
SplineSet
50 518 m 1,0,-1
 111 579 l 1,1,-1
 272 418 l 1,2,-1
 433 579 l 1,3,-1
 494 518 l 1,4,-1
 333 357 l 1,5,-1
 494 195 l 1,6,-1
 434 135 l 1,7,-1
 273 296 l 1,8,-1
 112 136 l 1,9,-1
 51 197 l 1,10,-1
 211 357 l 1,11,-1
 50 518 l 1,0,-1
EndSplineSet
EndChar

StartChar: Oslash
Encoding: 216 216 154
Width: 774
Flags: W
LayerCount: 2
Fore
SplineSet
388 646 m 0,0,1
 296 646 296 646 253 565 c 128,-1,2
 210 484 210 484 210 362.5 c 128,-1,3
 210 241 210 241 238 165 c 1,4,-1
 477 617 l 1,5,6
 438 646 438 646 388 646 c 0,0,1
564 352 m 0,7,8
 564 490 564 490 521 565 c 1,9,-1
 277 101 l 1,10,11
 319 54 319 54 376 54 c 0,12,13
 564 54 564 54 564 352 c 0,7,8
575 668 m 1,14,15
 732 576 732 576 732 338 c 128,-1,16
 732 100 732 100 540 14 c 0,17,18
 475 -15 475 -15 387 -15 c 128,-1,19
 299 -15 299 -15 231 14 c 1,20,-1
 203 -40 l 1,21,-1
 130 -40 l 1,22,-1
 175 46 l 1,23,24
 42 140 42 140 42 350 c 0,25,26
 42 601 42 601 233 686 c 0,27,28
 298 715 298 715 377 715 c 128,-1,29
 456 715 456 715 517 694 c 1,30,-1
 541 739 l 1,31,-1
 612 739 l 1,32,-1
 575 668 l 1,14,15
EndSplineSet
EndChar

StartChar: Ugrave
Encoding: 217 217 155
Width: 769
Flags: W
LayerCount: 2
Fore
SplineSet
524 796 m 1,0,-1
 485 748 l 1,1,-1
 286 829 l 1,2,3
 304 874 304 874 354 910 c 0,4,5
 368 920 368 920 381 924 c 1,6,-1
 524 796 l 1,0,-1
260 262 m 2,7,8
 260 70 260 70 419 70 c 0,9,10
 541 70 541 70 579 176 c 0,11,12
 592 212 592 212 592 262 c 2,13,-1
 592 622 l 1,14,-1
 500 644 l 1,15,-1
 500 700 l 1,16,-1
 766 700 l 1,17,-1
 766 644 l 1,18,-1
 674 622 l 1,19,-1
 674 262 l 2,20,21
 674 128 674 128 593 56 c 0,22,23
 513 -15 513 -15 390 -15 c 0,24,25
 189 -15 189 -15 120 140 c 0,26,27
 97 192 97 192 97 262 c 2,28,-1
 97 622 l 1,29,-1
 5 644 l 1,30,-1
 5 700 l 1,31,-1
 352 700 l 1,32,-1
 352 644 l 1,33,-1
 260 622 l 1,34,-1
 260 262 l 2,7,8
EndSplineSet
EndChar

StartChar: Uacute
Encoding: 218 218 156
Width: 769
Flags: W
LayerCount: 2
Fore
SplineSet
494 925 m 1,0,1
 533 913 533 913 572 860 c 0,2,3
 583 845 583 845 589 830 c 1,4,-1
 385 749 l 1,5,-1
 346 797 l 1,6,-1
 494 925 l 1,0,1
260 262 m 2,7,8
 260 70 260 70 419 70 c 0,9,10
 541 70 541 70 579 176 c 0,11,12
 592 212 592 212 592 262 c 2,13,-1
 592 622 l 1,14,-1
 500 644 l 1,15,-1
 500 700 l 1,16,-1
 766 700 l 1,17,-1
 766 644 l 1,18,-1
 674 622 l 1,19,-1
 674 262 l 2,20,21
 674 128 674 128 593 56 c 0,22,23
 513 -15 513 -15 390 -15 c 0,24,25
 189 -15 189 -15 120 140 c 0,26,27
 97 192 97 192 97 262 c 2,28,-1
 97 622 l 1,29,-1
 5 644 l 1,30,-1
 5 700 l 1,31,-1
 352 700 l 1,32,-1
 352 644 l 1,33,-1
 260 622 l 1,34,-1
 260 262 l 2,7,8
EndSplineSet
EndChar

StartChar: Ucircumflex
Encoding: 219 219 157
Width: 769
Flags: W
LayerCount: 2
Fore
SplineSet
611 788 m 1,0,-1
 543 764 l 1,1,-1
 430 827 l 1,2,-1
 318 764 l 1,3,-1
 251 788 l 1,4,-1
 376 909 l 1,5,-1
 485 909 l 1,6,-1
 611 788 l 1,0,-1
260 262 m 2,7,8
 260 70 260 70 419 70 c 0,9,10
 541 70 541 70 579 176 c 0,11,12
 592 212 592 212 592 262 c 2,13,-1
 592 622 l 1,14,-1
 500 644 l 1,15,-1
 500 700 l 1,16,-1
 766 700 l 1,17,-1
 766 644 l 1,18,-1
 674 622 l 1,19,-1
 674 262 l 2,20,21
 674 128 674 128 593 56 c 0,22,23
 513 -15 513 -15 390 -15 c 0,24,25
 189 -15 189 -15 120 140 c 0,26,27
 97 192 97 192 97 262 c 2,28,-1
 97 622 l 1,29,-1
 5 644 l 1,30,-1
 5 700 l 1,31,-1
 352 700 l 1,32,-1
 352 644 l 1,33,-1
 260 622 l 1,34,-1
 260 262 l 2,7,8
EndSplineSet
EndChar

StartChar: Udieresis
Encoding: 220 220 158
Width: 769
Flags: W
LayerCount: 2
Fore
SplineSet
461 841 m 128,-1,1
 461 875 461 875 484 897.5 c 128,-1,2
 507 920 507 920 541 920 c 128,-1,3
 575 920 575 920 597.5 897.5 c 128,-1,4
 620 875 620 875 620 841 c 128,-1,5
 620 807 620 807 597.5 784 c 128,-1,6
 575 761 575 761 541 761 c 128,-1,7
 507 761 507 761 484 784 c 128,-1,0
 461 807 461 807 461 841 c 128,-1,1
241 841 m 128,-1,9
 241 875 241 875 264 897.5 c 128,-1,10
 287 920 287 920 321 920 c 128,-1,11
 355 920 355 920 377.5 897.5 c 128,-1,12
 400 875 400 875 400 841 c 128,-1,13
 400 807 400 807 377.5 784 c 128,-1,14
 355 761 355 761 321 761 c 128,-1,15
 287 761 287 761 264 784 c 128,-1,8
 241 807 241 807 241 841 c 128,-1,9
260 262 m 2,16,17
 260 70 260 70 419 70 c 0,18,19
 541 70 541 70 579 176 c 0,20,21
 592 212 592 212 592 262 c 2,22,-1
 592 622 l 1,23,-1
 500 644 l 1,24,-1
 500 700 l 1,25,-1
 766 700 l 1,26,-1
 766 644 l 1,27,-1
 674 622 l 1,28,-1
 674 262 l 2,29,30
 674 128 674 128 593 56 c 0,31,32
 513 -15 513 -15 390 -15 c 0,33,34
 189 -15 189 -15 120 140 c 0,35,36
 97 192 97 192 97 262 c 2,37,-1
 97 622 l 1,38,-1
 5 644 l 1,39,-1
 5 700 l 1,40,-1
 352 700 l 1,41,-1
 352 644 l 1,42,-1
 260 622 l 1,43,-1
 260 262 l 2,16,17
EndSplineSet
EndChar

StartChar: Yacute
Encoding: 221 221 159
Width: 701
Flags: W
LayerCount: 2
Fore
SplineSet
455 925 m 1,0,1
 494 913 494 913 533 860 c 0,2,3
 544 845 544 845 550 830 c 1,4,-1
 346 749 l 1,5,-1
 307 797 l 1,6,-1
 455 925 l 1,0,1
451 700 m 1,7,-1
 706 700 l 1,8,-1
 706 644 l 1,9,-1
 614 622 l 1,10,-1
 434 336 l 1,11,-1
 434 78 l 1,12,-1
 526 56 l 1,13,-1
 526 0 l 1,14,-1
 179 0 l 1,15,-1
 179 56 l 1,16,-1
 271 78 l 1,17,-1
 271 337 l 1,18,-1
 72 624 l 1,19,-1
 -9 644 l 1,20,-1
 -9 700 l 1,21,-1
 319 700 l 1,22,-1
 319 644 l 1,23,-1
 254 631 l 1,24,-1
 397 421 l 1,25,-1
 525 624 l 1,26,-1
 451 644 l 1,27,-1
 451 700 l 1,7,-1
EndSplineSet
EndChar

StartChar: Thorn
Encoding: 222 222 160
Width: 646
Flags: W
LayerCount: 2
Fore
SplineSet
301 217 m 2,0,1
 458 217 458 217 458 350 c 0,2,3
 458 453 458 453 366 472 c 0,4,5
 337 478 337 478 301 478 c 2,6,-1
 288 478 l 1,7,-1
 288 217 l 1,8,-1
 301 217 l 2,0,1
346 551 m 2,9,10
 624 551 624 551 624 349 c 128,-1,11
 624 147 624 147 346 147 c 2,12,-1
 288 147 l 1,13,-1
 288 78 l 1,14,-1
 380 56 l 1,15,-1
 380 0 l 1,16,-1
 33 0 l 1,17,-1
 33 56 l 1,18,-1
 125 78 l 1,19,-1
 125 622 l 1,20,-1
 33 644 l 1,21,-1
 33 700 l 1,22,-1
 380 700 l 1,23,-1
 380 644 l 1,24,-1
 288 622 l 1,25,-1
 288 551 l 1,26,-1
 346 551 l 2,9,10
EndSplineSet
EndChar

StartChar: germandbls
Encoding: 223 223 161
Width: 711
Flags: W
LayerCount: 2
Fore
SplineSet
356 760 m 0,0,1
 606 760 606 760 606 538 c 2,2,-1
 606 466 l 1,3,-1
 493 466 l 2,4,5
 395 466 395 466 395 412 c 128,-1,6
 395 358 395 358 533 307 c 0,7,8
 693 247 693 247 693 148 c 0,9,10
 693 64 693 64 628 24.5 c 128,-1,11
 563 -15 563 -15 474.5 -15 c 128,-1,12
 386 -15 386 -15 312 8 c 1,13,-1
 312 151 l 1,14,-1
 368 151 l 1,15,-1
 410 52 l 1,16,17
 418 51 418 51 418.5 50.5 c 128,-1,18
 419 50 419 50 436 50 c 0,19,20
 482 50 482 50 519 67 c 128,-1,21
 556 84 556 84 556 109 c 128,-1,22
 556 134 556 134 544 146 c 0,23,24
 523 168 523 168 468 188 c 0,25,26
 343 233 343 233 312 279 c 128,-1,27
 281 325 281 325 281 366 c 0,28,29
 281 436 281 436 327.5 477.5 c 128,-1,30
 374 519 374 519 453 529 c 1,31,-1
 453 553 l 2,32,33
 453 695 453 695 356 695 c 0,34,35
 254 695 254 695 254 538 c 2,36,-1
 254 0 l 1,37,-1
 15 0 l 1,38,-1
 15 53 l 1,39,-1
 100 73 l 1,40,-1
 100 538 l 2,41,42
 100 699 100 699 251 746 c 0,43,44
 298 760 298 760 356 760 c 0,0,1
EndSplineSet
EndChar

StartChar: agrave
Encoding: 224 224 162
Width: 572
Flags: W
LayerCount: 2
Fore
SplineSet
343 594 m 1,0,-1
 282 564 l 1,1,-1
 123 715 l 1,2,3
 167 755 167 755 241 767 c 1,4,-1
 343 594 l 1,0,-1
191 133 m 0,5,6
 191 70 191 70 268 70 c 0,7,8
 304 70 304 70 333 103 c 1,9,-1
 333 240 l 1,10,11
 242 240 242 240 204 178 c 0,12,13
 191 158 191 158 191 133 c 0,5,6
30 124 m 0,14,15
 30 302 30 302 333 302 c 1,16,-1
 333 332 l 2,17,18
 333 403 333 403 324 421 c 0,19,20
 308 456 308 456 257 456 c 1,21,-1
 130 346 l 1,22,23
 62 385 62 385 62 467 c 1,24,25
 169 515 169 515 273 515 c 0,26,27
 488 515 488 515 488 343 c 2,28,-1
 488 75 l 1,29,-1
 566 75 l 1,30,-1
 566 32 l 1,31,32
 519 -15 519 -15 446.5 -15 c 128,-1,33
 374 -15 374 -15 338 36 c 1,34,35
 276 -15 276 -15 179.5 -15 c 128,-1,36
 83 -15 83 -15 44 61 c 0,37,38
 30 87 30 87 30 124 c 0,14,15
EndSplineSet
EndChar

StartChar: aacute
Encoding: 225 225 163
Width: 572
Flags: W
LayerCount: 2
Fore
SplineSet
351 767 m 1,0,1
 425 753 425 753 469 715 c 1,2,-1
 310 564 l 1,3,-1
 250 591 l 1,4,-1
 351 767 l 1,0,1
191 133 m 0,5,6
 191 70 191 70 268 70 c 0,7,8
 304 70 304 70 333 103 c 1,9,-1
 333 240 l 1,10,11
 242 240 242 240 204 178 c 0,12,13
 191 158 191 158 191 133 c 0,5,6
30 124 m 0,14,15
 30 302 30 302 333 302 c 1,16,-1
 333 332 l 2,17,18
 333 403 333 403 324 421 c 0,19,20
 308 456 308 456 257 456 c 1,21,-1
 130 346 l 1,22,23
 62 385 62 385 62 467 c 1,24,25
 169 515 169 515 273 515 c 0,26,27
 488 515 488 515 488 343 c 2,28,-1
 488 75 l 1,29,-1
 566 75 l 1,30,-1
 566 32 l 1,31,32
 519 -15 519 -15 446.5 -15 c 128,-1,33
 374 -15 374 -15 338 36 c 1,34,35
 276 -15 276 -15 179.5 -15 c 128,-1,36
 83 -15 83 -15 44 61 c 0,37,38
 30 87 30 87 30 124 c 0,14,15
EndSplineSet
EndChar

StartChar: acircumflex
Encoding: 226 226 164
Width: 572
Flags: W
LayerCount: 2
Fore
SplineSet
459 586 m 1,0,-1
 391 562 l 1,1,-1
 288 687 l 1,2,-1
 186 562 l 1,3,-1
 118 586 l 1,4,-1
 233 766 l 1,5,-1
 342 766 l 1,6,-1
 459 586 l 1,0,-1
191 133 m 0,7,8
 191 70 191 70 268 70 c 0,9,10
 304 70 304 70 333 103 c 1,11,-1
 333 240 l 1,12,13
 242 240 242 240 204 178 c 0,14,15
 191 158 191 158 191 133 c 0,7,8
30 124 m 0,16,17
 30 302 30 302 333 302 c 1,18,-1
 333 332 l 2,19,20
 333 403 333 403 324 421 c 0,21,22
 308 456 308 456 257 456 c 1,23,-1
 130 346 l 1,24,25
 62 385 62 385 62 467 c 1,26,27
 169 515 169 515 273 515 c 0,28,29
 488 515 488 515 488 343 c 2,30,-1
 488 75 l 1,31,-1
 566 75 l 1,32,-1
 566 32 l 1,33,34
 519 -15 519 -15 446.5 -15 c 128,-1,35
 374 -15 374 -15 338 36 c 1,36,37
 276 -15 276 -15 179.5 -15 c 128,-1,38
 83 -15 83 -15 44 61 c 0,39,40
 30 87 30 87 30 124 c 0,16,17
EndSplineSet
EndChar

StartChar: atilde
Encoding: 227 227 165
Width: 572
Flags: W
LayerCount: 2
Fore
SplineSet
221 747 m 0,0,1
 250 747 250 747 296 720 c 128,-1,2
 342 693 342 693 371.5 693 c 128,-1,3
 401 693 401 693 462 737 c 1,4,-1
 499 698 l 1,5,6
 470 646 470 646 416 618 c 0,7,8
 388 603 388 603 359 603 c 0,9,10
 323 603 323 603 277 630 c 128,-1,11
 231 657 231 657 213 657 c 0,12,13
 180 657 180 657 142 636 c 2,14,-1
 114 620 l 1,15,-1
 78 663 l 1,16,17
 141 747 141 747 221 747 c 0,0,1
191 133 m 0,18,19
 191 70 191 70 268 70 c 0,20,21
 304 70 304 70 333 103 c 1,22,-1
 333 240 l 1,23,24
 242 240 242 240 204 178 c 0,25,26
 191 158 191 158 191 133 c 0,18,19
30 124 m 0,27,28
 30 302 30 302 333 302 c 1,29,-1
 333 332 l 2,30,31
 333 403 333 403 324 421 c 0,32,33
 308 456 308 456 257 456 c 1,34,-1
 130 346 l 1,35,36
 62 385 62 385 62 467 c 1,37,38
 169 515 169 515 273 515 c 0,39,40
 488 515 488 515 488 343 c 2,41,-1
 488 75 l 1,42,-1
 566 75 l 1,43,-1
 566 32 l 1,44,45
 519 -15 519 -15 446.5 -15 c 128,-1,46
 374 -15 374 -15 338 36 c 1,47,48
 276 -15 276 -15 179.5 -15 c 128,-1,49
 83 -15 83 -15 44 61 c 0,50,51
 30 87 30 87 30 124 c 0,27,28
EndSplineSet
EndChar

StartChar: adieresis
Encoding: 228 228 166
Width: 572
Flags: W
LayerCount: 2
Fore
SplineSet
308 688 m 128,-1,1
 308 722 308 722 331 744.5 c 128,-1,2
 354 767 354 767 388 767 c 128,-1,3
 422 767 422 767 444.5 744.5 c 128,-1,4
 467 722 467 722 467 688 c 128,-1,5
 467 654 467 654 444.5 631 c 128,-1,6
 422 608 422 608 388 608 c 128,-1,7
 354 608 354 608 331 631 c 128,-1,0
 308 654 308 654 308 688 c 128,-1,1
108 688 m 128,-1,9
 108 722 108 722 131 744.5 c 128,-1,10
 154 767 154 767 188 767 c 128,-1,11
 222 767 222 767 244.5 744.5 c 128,-1,12
 267 722 267 722 267 688 c 128,-1,13
 267 654 267 654 244.5 631 c 128,-1,14
 222 608 222 608 188 608 c 128,-1,15
 154 608 154 608 131 631 c 128,-1,8
 108 654 108 654 108 688 c 128,-1,9
191 133 m 0,16,17
 191 70 191 70 268 70 c 0,18,19
 304 70 304 70 333 103 c 1,20,-1
 333 240 l 1,21,22
 242 240 242 240 204 178 c 0,23,24
 191 158 191 158 191 133 c 0,16,17
30 124 m 0,25,26
 30 302 30 302 333 302 c 1,27,-1
 333 332 l 2,28,29
 333 403 333 403 324 421 c 0,30,31
 308 456 308 456 257 456 c 1,32,-1
 130 346 l 1,33,34
 62 385 62 385 62 467 c 1,35,36
 169 515 169 515 273 515 c 0,37,38
 488 515 488 515 488 343 c 2,39,-1
 488 75 l 1,40,-1
 566 75 l 1,41,-1
 566 32 l 1,42,43
 519 -15 519 -15 446.5 -15 c 128,-1,44
 374 -15 374 -15 338 36 c 1,45,46
 276 -15 276 -15 179.5 -15 c 128,-1,47
 83 -15 83 -15 44 61 c 0,48,49
 30 87 30 87 30 124 c 0,25,26
EndSplineSet
EndChar

StartChar: aring
Encoding: 229 229 167
Width: 572
Flags: W
LayerCount: 2
Fore
SplineSet
245 686 m 128,-1,1
 245 669 245 669 258 656 c 128,-1,2
 271 643 271 643 288 643 c 128,-1,3
 305 643 305 643 318 656 c 128,-1,4
 331 669 331 669 331 686 c 128,-1,5
 331 703 331 703 318 716 c 128,-1,6
 305 729 305 729 288 729 c 128,-1,7
 271 729 271 729 258 716 c 128,-1,0
 245 703 245 703 245 686 c 128,-1,1
169 685.5 m 128,-1,9
 169 710 169 710 178.5 732 c 128,-1,10
 188 754 188 754 204 770 c 128,-1,11
 220 786 220 786 241.5 795.5 c 128,-1,12
 263 805 263 805 288 805 c 0,13,14
 337 805 337 805 372 770 c 128,-1,15
 407 735 407 735 407 698 c 128,-1,16
 407 661 407 661 397.5 639.5 c 128,-1,17
 388 618 388 618 372 601.5 c 128,-1,18
 356 585 356 585 334.5 575.5 c 128,-1,19
 313 566 313 566 288 566 c 128,-1,20
 263 566 263 566 241.5 575.5 c 128,-1,21
 220 585 220 585 204 601.5 c 128,-1,22
 188 618 188 618 178.5 639.5 c 128,-1,8
 169 661 169 661 169 685.5 c 128,-1,9
191 133 m 0,23,24
 191 70 191 70 268 70 c 0,25,26
 304 70 304 70 333 103 c 1,27,-1
 333 240 l 1,28,29
 242 240 242 240 204 178 c 0,30,31
 191 158 191 158 191 133 c 0,23,24
30 124 m 0,32,33
 30 302 30 302 333 302 c 1,34,-1
 333 332 l 2,35,36
 333 403 333 403 324 421 c 0,37,38
 308 456 308 456 257 456 c 1,39,-1
 130 346 l 1,40,41
 62 385 62 385 62 467 c 1,42,43
 169 515 169 515 273 515 c 0,44,45
 488 515 488 515 488 343 c 2,46,-1
 488 75 l 1,47,-1
 566 75 l 1,48,-1
 566 32 l 1,49,50
 519 -15 519 -15 446.5 -15 c 128,-1,51
 374 -15 374 -15 338 36 c 1,52,53
 276 -15 276 -15 179.5 -15 c 128,-1,54
 83 -15 83 -15 44 61 c 0,55,56
 30 87 30 87 30 124 c 0,32,33
EndSplineSet
EndChar

StartChar: ae
Encoding: 230 230 168
Width: 842
Flags: W
LayerCount: 2
Fore
SplineSet
192 133 m 0,0,1
 192 70 192 70 269 70 c 0,2,3
 305 70 305 70 334 103 c 1,4,-1
 334 240 l 1,5,6
 243 240 243 240 204 178 c 0,7,8
 192 158 192 158 192 133 c 0,0,1
518.5 402.5 m 128,-1,10
 490 355 490 355 490 298 c 1,11,-1
 656 311 l 1,12,13
 656 409 656 409 626 437 c 0,14,15
 613 450 613 450 580 450 c 128,-1,9
 547 450 547 450 518.5 402.5 c 128,-1,10
31 124 m 0,16,17
 31 302 31 302 334 302 c 1,18,-1
 334 332 l 2,19,20
 334 403 334 403 326 421 c 0,21,22
 309 456 309 456 258 456 c 1,23,-1
 131 346 l 1,24,25
 62 386 62 386 62 467 c 1,26,27
 165 515 165 515 273.5 515 c 128,-1,28
 382 515 382 515 434 450 c 1,29,30
 499 515 499 515 578 515 c 0,31,32
 709 515 709 515 761.5 438 c 128,-1,33
 814 361 814 361 814 241 c 1,34,-1
 490 241 l 1,35,36
 499 118 499 118 592 74 c 0,37,38
 621 60 621 60 665.5 60 c 128,-1,39
 710 60 710 60 772 83 c 1,40,-1
 787 26 l 1,41,42
 691 -16 691 -16 610 -16 c 0,43,44
 519 -16 519 -16 446 36 c 0,45,46
 419 56 419 56 400 87 c 1,47,48
 314 -15 314 -15 199 -15 c 128,-1,49
 84 -15 84 -15 44 61 c 0,50,51
 31 87 31 87 31 124 c 0,16,17
EndSplineSet
EndChar

StartChar: ccedilla
Encoding: 231 231 169
Width: 492
Flags: W
LayerCount: 2
Fore
SplineSet
375 -133 m 128,-1,1
 375 -180 375 -180 331.5 -210 c 128,-1,2
 288 -240 288 -240 237 -240 c 128,-1,3
 186 -240 186 -240 136 -229 c 1,4,-1
 136 -163 l 1,5,-1
 163 -169 l 2,6,7
 172 -171 172 -171 193.5 -171 c 128,-1,8
 215 -171 215 -171 232.5 -158 c 128,-1,9
 250 -145 250 -145 250 -120 c 0,10,11
 250 -73 250 -73 182 -69 c 1,12,-1
 201 3 l 1,13,14
 84 45 84 45 46 164 c 0,15,16
 34 204 34 204 34 258 c 0,17,18
 34 370 34 370 110.5 442.5 c 128,-1,19
 187 515 187 515 281 515 c 128,-1,20
 375 515 375 515 462 473 c 1,21,22
 459 389 459 389 389 351 c 1,23,-1
 303 450 l 1,24,-1
 297 450 l 1,25,26
 228 430 228 430 201 334 c 0,27,28
 191 299 191 299 191 250 c 0,29,30
 191 58 191 58 345 58 c 0,31,32
 395 58 395 58 461 78 c 1,33,-1
 473 19 l 1,34,35
 389 -16 389 -16 314 -16 c 0,36,37
 286 -16 286 -16 260 -11 c 1,38,-1
 255 -34 l 1,39,40
 257 -34 257 -34 259 -34 c 0,41,42
 309 -34 309 -34 342 -60 c 128,-1,0
 375 -86 375 -86 375 -133 c 128,-1,1
EndSplineSet
EndChar

StartChar: egrave
Encoding: 232 232 170
Width: 545
Flags: W
LayerCount: 2
Fore
SplineSet
337 594 m 1,0,-1
 276 564 l 1,1,-1
 117 715 l 1,2,3
 161 755 161 755 235 767 c 1,4,-1
 337 594 l 1,0,-1
213 410 m 0,5,6
 189 372 189 372 189 312 c 0,7,8
 189 308 189 308 189 303 c 1,9,-1
 358 314 l 1,10,11
 358 320 358 320 358 325 c 0,12,13
 358 369 358 369 344 396 c 0,14,15
 315 450 315 450 277 450 c 128,-1,16
 239 450 239 450 213 410 c 0,5,6
35 256 m 0,17,18
 35 374 35 374 101.5 444.5 c 128,-1,19
 168 515 168 515 283 515 c 128,-1,20
 398 515 398 515 457.5 436 c 128,-1,21
 517 357 517 357 517 241 c 1,22,-1
 189 241 l 1,23,24
 199 122 199 122 292 76 c 1,25,26
 322 60 322 60 368.5 60 c 128,-1,27
 415 60 415 60 476 83 c 1,28,-1
 497 26 l 1,29,30
 400 -17 400 -17 315 -17 c 0,31,32
 253 -17 253 -17 197 6 c 0,33,34
 93 47 93 47 54 148 c 0,35,36
 35 197 35 197 35 256 c 0,17,18
EndSplineSet
EndChar

StartChar: eacute
Encoding: 233 233 171
Width: 545
Flags: W
LayerCount: 2
Fore
SplineSet
345 767 m 1,0,1
 419 753 419 753 463 715 c 1,2,-1
 304 564 l 1,3,-1
 244 591 l 1,4,-1
 345 767 l 1,0,1
213 410 m 0,5,6
 189 372 189 372 189 312 c 0,7,8
 189 308 189 308 189 303 c 1,9,-1
 358 314 l 1,10,11
 358 320 358 320 358 325 c 0,12,13
 358 369 358 369 344 396 c 0,14,15
 315 450 315 450 277 450 c 128,-1,16
 239 450 239 450 213 410 c 0,5,6
35 256 m 0,17,18
 35 374 35 374 101.5 444.5 c 128,-1,19
 168 515 168 515 283 515 c 128,-1,20
 398 515 398 515 457.5 436 c 128,-1,21
 517 357 517 357 517 241 c 1,22,-1
 189 241 l 1,23,24
 199 122 199 122 292 76 c 1,25,26
 322 60 322 60 368.5 60 c 128,-1,27
 415 60 415 60 476 83 c 1,28,-1
 497 26 l 1,29,30
 400 -17 400 -17 315 -17 c 0,31,32
 253 -17 253 -17 197 6 c 0,33,34
 93 47 93 47 54 148 c 0,35,36
 35 197 35 197 35 256 c 0,17,18
EndSplineSet
EndChar

StartChar: ecircumflex
Encoding: 234 234 172
Width: 545
Flags: W
LayerCount: 2
Fore
SplineSet
453 586 m 1,0,-1
 385 562 l 1,1,-1
 282 687 l 1,2,-1
 180 562 l 1,3,-1
 112 586 l 1,4,-1
 227 766 l 1,5,-1
 336 766 l 1,6,-1
 453 586 l 1,0,-1
213 410 m 0,7,8
 189 372 189 372 189 312 c 0,9,10
 189 308 189 308 189 303 c 1,11,-1
 358 314 l 1,12,13
 358 320 358 320 358 325 c 0,14,15
 358 369 358 369 344 396 c 0,16,17
 315 450 315 450 277 450 c 128,-1,18
 239 450 239 450 213 410 c 0,7,8
35 256 m 0,19,20
 35 374 35 374 101.5 444.5 c 128,-1,21
 168 515 168 515 283 515 c 128,-1,22
 398 515 398 515 457.5 436 c 128,-1,23
 517 357 517 357 517 241 c 1,24,-1
 189 241 l 1,25,26
 199 122 199 122 292 76 c 1,27,28
 322 60 322 60 368.5 60 c 128,-1,29
 415 60 415 60 476 83 c 1,30,-1
 497 26 l 1,31,32
 400 -17 400 -17 315 -17 c 0,33,34
 253 -17 253 -17 197 6 c 0,35,36
 93 47 93 47 54 148 c 0,37,38
 35 197 35 197 35 256 c 0,19,20
EndSplineSet
EndChar

StartChar: edieresis
Encoding: 235 235 173
Width: 545
Flags: W
LayerCount: 2
Fore
SplineSet
302 688 m 128,-1,1
 302 722 302 722 325 744.5 c 128,-1,2
 348 767 348 767 382 767 c 128,-1,3
 416 767 416 767 438.5 744.5 c 128,-1,4
 461 722 461 722 461 688 c 128,-1,5
 461 654 461 654 438.5 631 c 128,-1,6
 416 608 416 608 382 608 c 128,-1,7
 348 608 348 608 325 631 c 128,-1,0
 302 654 302 654 302 688 c 128,-1,1
102 688 m 128,-1,9
 102 722 102 722 125 744.5 c 128,-1,10
 148 767 148 767 182 767 c 128,-1,11
 216 767 216 767 238.5 744.5 c 128,-1,12
 261 722 261 722 261 688 c 128,-1,13
 261 654 261 654 238.5 631 c 128,-1,14
 216 608 216 608 182 608 c 128,-1,15
 148 608 148 608 125 631 c 128,-1,8
 102 654 102 654 102 688 c 128,-1,9
213 410 m 0,16,17
 189 372 189 372 189 312 c 0,18,19
 189 308 189 308 189 303 c 1,20,-1
 358 314 l 1,21,22
 358 320 358 320 358 325 c 0,23,24
 358 369 358 369 344 396 c 0,25,26
 315 450 315 450 277 450 c 128,-1,27
 239 450 239 450 213 410 c 0,16,17
35 256 m 0,28,29
 35 374 35 374 101.5 444.5 c 128,-1,30
 168 515 168 515 283 515 c 128,-1,31
 398 515 398 515 457.5 436 c 128,-1,32
 517 357 517 357 517 241 c 1,33,-1
 189 241 l 1,34,35
 199 122 199 122 292 76 c 1,36,37
 322 60 322 60 368.5 60 c 128,-1,38
 415 60 415 60 476 83 c 1,39,-1
 497 26 l 1,40,41
 400 -17 400 -17 315 -17 c 0,42,43
 253 -17 253 -17 197 6 c 0,44,45
 93 47 93 47 54 148 c 0,46,47
 35 197 35 197 35 256 c 0,28,29
EndSplineSet
EndChar

StartChar: igrave
Encoding: 236 236 174
Width: 371
Flags: W
LayerCount: 2
Fore
SplineSet
253 594 m 1,0,-1
 192 564 l 1,1,-1
 33 715 l 1,2,3
 77 755 77 755 151 767 c 1,4,-1
 253 594 l 1,0,-1
356 0 m 1,5,-1
 30 0 l 1,6,-1
 30 53 l 1,7,-1
 115 73 l 1,8,-1
 115 409 l 1,9,-1
 30 409 l 1,10,-1
 30 462 l 1,11,-1
 190 500 l 1,12,-1
 271 500 l 1,13,-1
 271 73 l 1,14,-1
 356 53 l 1,15,-1
 356 0 l 1,5,-1
EndSplineSet
EndChar

StartChar: iacute
Encoding: 237 237 175
Width: 371
Flags: W
LayerCount: 2
Fore
SplineSet
245 767 m 1,0,1
 319 753 319 753 363 715 c 1,2,-1
 204 564 l 1,3,-1
 144 591 l 1,4,-1
 245 767 l 1,0,1
356 0 m 1,5,-1
 30 0 l 1,6,-1
 30 53 l 1,7,-1
 115 73 l 1,8,-1
 115 409 l 1,9,-1
 30 409 l 1,10,-1
 30 462 l 1,11,-1
 190 500 l 1,12,-1
 271 500 l 1,13,-1
 271 73 l 1,14,-1
 356 53 l 1,15,-1
 356 0 l 1,5,-1
EndSplineSet
EndChar

StartChar: icircumflex
Encoding: 238 238 176
Width: 371
Flags: W
LayerCount: 2
Fore
SplineSet
343 586 m 1,0,-1
 275 562 l 1,1,-1
 172 687 l 1,2,-1
 70 562 l 1,3,-1
 2 586 l 1,4,-1
 117 766 l 1,5,-1
 226 766 l 1,6,-1
 343 586 l 1,0,-1
356 0 m 1,7,-1
 30 0 l 1,8,-1
 30 53 l 1,9,-1
 115 73 l 1,10,-1
 115 409 l 1,11,-1
 30 409 l 1,12,-1
 30 462 l 1,13,-1
 190 500 l 1,14,-1
 271 500 l 1,15,-1
 271 73 l 1,16,-1
 356 53 l 1,17,-1
 356 0 l 1,7,-1
EndSplineSet
EndChar

StartChar: idieresis
Encoding: 239 239 177
Width: 371
Flags: W
LayerCount: 2
Fore
SplineSet
204 688 m 128,-1,1
 204 722 204 722 227 744.5 c 128,-1,2
 250 767 250 767 284 767 c 128,-1,3
 318 767 318 767 340.5 744.5 c 128,-1,4
 363 722 363 722 363 688 c 128,-1,5
 363 654 363 654 340.5 631 c 128,-1,6
 318 608 318 608 284 608 c 128,-1,7
 250 608 250 608 227 631 c 128,-1,0
 204 654 204 654 204 688 c 128,-1,1
4 688 m 128,-1,9
 4 722 4 722 27 744.5 c 128,-1,10
 50 767 50 767 84 767 c 128,-1,11
 118 767 118 767 140.5 744.5 c 128,-1,12
 163 722 163 722 163 688 c 128,-1,13
 163 654 163 654 140.5 631 c 128,-1,14
 118 608 118 608 84 608 c 128,-1,15
 50 608 50 608 27 631 c 128,-1,8
 4 654 4 654 4 688 c 128,-1,9
356 0 m 1,16,-1
 30 0 l 1,17,-1
 30 53 l 1,18,-1
 115 73 l 1,19,-1
 115 409 l 1,20,-1
 30 409 l 1,21,-1
 30 462 l 1,22,-1
 190 500 l 1,23,-1
 271 500 l 1,24,-1
 271 73 l 1,25,-1
 356 53 l 1,26,-1
 356 0 l 1,16,-1
EndSplineSet
EndChar

StartChar: eth
Encoding: 240 240 178
Width: 635
Flags: W
LayerCount: 2
Fore
SplineSet
300 49 m 0,0,1
 412 49 412 49 412 274 c 0,2,3
 412 303 412 303 410 319 c 2,4,-1
 407 358 l 1,5,6
 369 398 369 398 332 398 c 0,7,8
 262 398 262 398 229.5 361.5 c 128,-1,9
 197 325 197 325 197 216.5 c 128,-1,10
 197 108 197 108 254 64 c 0,11,12
 274 49 274 49 300 49 c 0,0,1
410 659 m 1,13,14
 580 530 580 530 580 304.5 c 128,-1,15
 580 79 580 79 418 8 c 0,16,17
 364 -16 364 -16 294 -16 c 0,18,19
 162 -16 162 -16 99.5 51.5 c 128,-1,20
 37 119 37 119 37 230.5 c 128,-1,21
 37 342 37 342 101.5 410 c 128,-1,22
 166 478 166 478 257.5 478 c 128,-1,23
 349 478 349 478 402 435 c 1,24,25
 379 537 379 537 311 599 c 1,26,-1
 179 518 l 1,27,-1
 179 596 l 1,28,-1
 251 640 l 1,29,30
 207 663 207 663 149 672 c 1,31,-1
 149 757 l 1,32,33
 256 749 256 749 348 699 c 1,34,-1
 464 770 l 1,35,-1
 464 692 l 1,36,-1
 410 659 l 1,13,14
EndSplineSet
EndChar

StartChar: ntilde
Encoding: 241 241 179
Width: 681
Flags: W
LayerCount: 2
Fore
SplineSet
289 747 m 0,0,1
 318 747 318 747 364 720 c 128,-1,2
 410 693 410 693 439.5 693 c 128,-1,3
 469 693 469 693 530 737 c 1,4,-1
 567 698 l 1,5,6
 538 646 538 646 484 618 c 0,7,8
 456 603 456 603 427 603 c 0,9,10
 391 603 391 603 345 630 c 128,-1,11
 299 657 299 657 281 657 c 0,12,13
 248 657 248 657 210 636 c 2,14,-1
 182 620 l 1,15,-1
 146 663 l 1,16,17
 209 747 209 747 289 747 c 0,0,1
357 427 m 128,-1,19
 324 427 324 427 269 383 c 1,20,-1
 269 73 l 1,21,-1
 334 53 l 1,22,-1
 334 0 l 1,23,-1
 30 0 l 1,24,-1
 30 53 l 1,25,-1
 115 73 l 1,26,-1
 115 409 l 1,27,-1
 30 409 l 1,28,-1
 30 462 l 1,29,-1
 190 500 l 1,30,-1
 269 500 l 1,31,-1
 269 451 l 1,32,33
 333 515 333 515 420 515 c 0,34,35
 539 515 539 515 578 420 c 0,36,37
 589 392 589 392 589 358 c 2,38,-1
 589 73 l 1,39,-1
 674 53 l 1,40,-1
 674 0 l 1,41,-1
 370 0 l 1,42,-1
 370 53 l 1,43,-1
 435 73 l 1,44,-1
 435 330 l 2,45,46
 435 383 435 383 426 399 c 128,-1,47
 417 415 417 415 403.5 421 c 128,-1,18
 390 427 390 427 357 427 c 128,-1,19
EndSplineSet
EndChar

StartChar: ograve
Encoding: 242 242 180
Width: 605
Flags: W
LayerCount: 2
Fore
SplineSet
359 594 m 1,0,-1
 298 564 l 1,1,-1
 139 715 l 1,2,3
 183 755 183 755 257 767 c 1,4,-1
 359 594 l 1,0,-1
33 251.5 m 128,-1,6
 33 367 33 367 110.5 441 c 128,-1,7
 188 515 188 515 302.5 515 c 128,-1,8
 417 515 417 515 494.5 441 c 128,-1,9
 572 367 572 367 572 251.5 c 128,-1,10
 572 136 572 136 495 60.5 c 128,-1,11
 418 -15 418 -15 303 -15 c 0,12,13
 187 -15 187 -15 110 60.5 c 128,-1,5
 33 136 33 136 33 251.5 c 128,-1,6
194 274 m 0,14,15
 194 50 194 50 303 50 c 128,-1,16
 412 50 412 50 412 250 c 0,17,18
 412 393 412 393 352 436 c 0,19,20
 331 450 331 450 303 450 c 0,21,22
 249 450 249 450 221.5 396 c 128,-1,23
 194 342 194 342 194 274 c 0,14,15
EndSplineSet
EndChar

StartChar: oacute
Encoding: 243 243 181
Width: 605
Flags: W
LayerCount: 2
Fore
SplineSet
367 767 m 1,0,1
 441 753 441 753 485 715 c 1,2,-1
 326 564 l 1,3,-1
 266 591 l 1,4,-1
 367 767 l 1,0,1
33 251.5 m 128,-1,6
 33 367 33 367 110.5 441 c 128,-1,7
 188 515 188 515 302.5 515 c 128,-1,8
 417 515 417 515 494.5 441 c 128,-1,9
 572 367 572 367 572 251.5 c 128,-1,10
 572 136 572 136 495 60.5 c 128,-1,11
 418 -15 418 -15 303 -15 c 0,12,13
 187 -15 187 -15 110 60.5 c 128,-1,5
 33 136 33 136 33 251.5 c 128,-1,6
194 274 m 0,14,15
 194 50 194 50 303 50 c 128,-1,16
 412 50 412 50 412 250 c 0,17,18
 412 393 412 393 352 436 c 0,19,20
 331 450 331 450 303 450 c 0,21,22
 249 450 249 450 221.5 396 c 128,-1,23
 194 342 194 342 194 274 c 0,14,15
EndSplineSet
EndChar

StartChar: ocircumflex
Encoding: 244 244 182
Width: 605
Flags: W
LayerCount: 2
Fore
SplineSet
475 586 m 1,0,-1
 407 562 l 1,1,-1
 304 687 l 1,2,-1
 202 562 l 1,3,-1
 134 586 l 1,4,-1
 249 766 l 1,5,-1
 358 766 l 1,6,-1
 475 586 l 1,0,-1
33 251.5 m 128,-1,8
 33 367 33 367 110.5 441 c 128,-1,9
 188 515 188 515 302.5 515 c 128,-1,10
 417 515 417 515 494.5 441 c 128,-1,11
 572 367 572 367 572 251.5 c 128,-1,12
 572 136 572 136 495 60.5 c 128,-1,13
 418 -15 418 -15 303 -15 c 0,14,15
 187 -15 187 -15 110 60.5 c 128,-1,7
 33 136 33 136 33 251.5 c 128,-1,8
194 274 m 0,16,17
 194 50 194 50 303 50 c 128,-1,18
 412 50 412 50 412 250 c 0,19,20
 412 393 412 393 352 436 c 0,21,22
 331 450 331 450 303 450 c 0,23,24
 249 450 249 450 221.5 396 c 128,-1,25
 194 342 194 342 194 274 c 0,16,17
EndSplineSet
EndChar

StartChar: otilde
Encoding: 245 245 183
Width: 605
Flags: W
LayerCount: 2
Fore
SplineSet
237 747 m 0,0,1
 266 747 266 747 312 720 c 128,-1,2
 358 693 358 693 387.5 693 c 128,-1,3
 417 693 417 693 478 737 c 1,4,-1
 515 698 l 1,5,6
 486 646 486 646 432 618 c 0,7,8
 404 603 404 603 375 603 c 0,9,10
 339 603 339 603 293 630 c 128,-1,11
 247 657 247 657 229 657 c 0,12,13
 196 657 196 657 158 636 c 2,14,-1
 130 620 l 1,15,-1
 94 663 l 1,16,17
 157 747 157 747 237 747 c 0,0,1
33 251.5 m 128,-1,19
 33 367 33 367 110.5 441 c 128,-1,20
 188 515 188 515 302.5 515 c 128,-1,21
 417 515 417 515 494.5 441 c 128,-1,22
 572 367 572 367 572 251.5 c 128,-1,23
 572 136 572 136 495 60.5 c 128,-1,24
 418 -15 418 -15 303 -15 c 0,25,26
 187 -15 187 -15 110 60.5 c 128,-1,18
 33 136 33 136 33 251.5 c 128,-1,19
194 274 m 0,27,28
 194 50 194 50 303 50 c 128,-1,29
 412 50 412 50 412 250 c 0,30,31
 412 393 412 393 352 436 c 0,32,33
 331 450 331 450 303 450 c 0,34,35
 249 450 249 450 221.5 396 c 128,-1,36
 194 342 194 342 194 274 c 0,27,28
EndSplineSet
EndChar

StartChar: odieresis
Encoding: 246 246 184
Width: 605
Flags: W
LayerCount: 2
Fore
SplineSet
334 688 m 128,-1,1
 334 722 334 722 357 744.5 c 128,-1,2
 380 767 380 767 414 767 c 128,-1,3
 448 767 448 767 470.5 744.5 c 128,-1,4
 493 722 493 722 493 688 c 128,-1,5
 493 654 493 654 470.5 631 c 128,-1,6
 448 608 448 608 414 608 c 128,-1,7
 380 608 380 608 357 631 c 128,-1,0
 334 654 334 654 334 688 c 128,-1,1
134 688 m 128,-1,9
 134 722 134 722 157 744.5 c 128,-1,10
 180 767 180 767 214 767 c 128,-1,11
 248 767 248 767 270.5 744.5 c 128,-1,12
 293 722 293 722 293 688 c 128,-1,13
 293 654 293 654 270.5 631 c 128,-1,14
 248 608 248 608 214 608 c 128,-1,15
 180 608 180 608 157 631 c 128,-1,8
 134 654 134 654 134 688 c 128,-1,9
33 251.5 m 128,-1,17
 33 367 33 367 110.5 441 c 128,-1,18
 188 515 188 515 302.5 515 c 128,-1,19
 417 515 417 515 494.5 441 c 128,-1,20
 572 367 572 367 572 251.5 c 128,-1,21
 572 136 572 136 495 60.5 c 128,-1,22
 418 -15 418 -15 303 -15 c 0,23,24
 187 -15 187 -15 110 60.5 c 128,-1,16
 33 136 33 136 33 251.5 c 128,-1,17
194 274 m 0,25,26
 194 50 194 50 303 50 c 128,-1,27
 412 50 412 50 412 250 c 0,28,29
 412 393 412 393 352 436 c 0,30,31
 331 450 331 450 303 450 c 0,32,33
 249 450 249 450 221.5 396 c 128,-1,34
 194 342 194 342 194 274 c 0,25,26
EndSplineSet
EndChar

StartChar: divide
Encoding: 247 247 185
Width: 543
Flags: W
LayerCount: 2
Fore
SplineSet
47 400 m 1,0,-1
 496 400 l 1,1,-1
 496 313 l 1,2,-1
 47 313 l 1,3,-1
 47 400 l 1,0,-1
205 527.5 m 128,-1,5
 205 555 205 555 225 575 c 128,-1,6
 245 595 245 595 273 595 c 128,-1,7
 301 595 301 595 320 575 c 128,-1,8
 339 555 339 555 339 527.5 c 128,-1,9
 339 500 339 500 320 479.5 c 128,-1,10
 301 459 301 459 273 459 c 128,-1,11
 245 459 245 459 225 479.5 c 128,-1,4
 205 500 205 500 205 527.5 c 128,-1,5
205 187.5 m 128,-1,13
 205 215 205 215 225 234.5 c 128,-1,14
 245 254 245 254 273 254 c 128,-1,15
 301 254 301 254 320 234.5 c 128,-1,16
 339 215 339 215 339 187.5 c 128,-1,17
 339 160 339 160 320 139.5 c 128,-1,18
 301 119 301 119 273 119 c 128,-1,19
 245 119 245 119 225 139.5 c 128,-1,12
 205 160 205 160 205 187.5 c 128,-1,13
EndSplineSet
EndChar

StartChar: oslash
Encoding: 248 248 186
Width: 605
Flags: W
LayerCount: 2
Fore
SplineSet
299 50 m 0,0,1
 412 50 412 50 412 260 c 0,2,3
 412 314 412 314 398 361 c 1,4,-1
 242 75 l 1,5,6
 267 50 267 50 299 50 c 0,0,1
194 238.5 m 128,-1,8
 194 182 194 182 209 134 c 1,9,-1
 367 421 l 1,10,11
 341 450 341 450 308 450 c 128,-1,12
 275 450 275 450 254.5 435.5 c 128,-1,13
 234 421 234 421 220.5 394.5 c 128,-1,14
 207 368 207 368 200.5 331.5 c 128,-1,7
 194 295 194 295 194 238.5 c 128,-1,8
458 470 m 1,15,16
 572 393 572 393 572 264.5 c 128,-1,17
 572 136 572 136 495 60.5 c 128,-1,18
 418 -15 418 -15 303 -15 c 0,19,20
 250 -15 250 -15 202 2 c 1,21,-1
 162 -71 l 1,22,-1
 97 -71 l 1,23,-1
 151 28 l 1,24,25
 33 104 33 104 33 251 c 0,26,27
 33 367 33 367 110.5 441 c 128,-1,28
 188 515 188 515 303 515 c 0,29,30
 357 515 357 515 408 496 c 1,31,-1
 448 569 l 1,32,-1
 512 569 l 1,33,-1
 458 470 l 1,15,16
EndSplineSet
EndChar

StartChar: ugrave
Encoding: 249 249 187
Width: 667
Flags: W
LayerCount: 2
Fore
SplineSet
374 594 m 1,0,-1
 313 564 l 1,1,-1
 154 715 l 1,2,3
 198 755 198 755 272 767 c 1,4,-1
 374 594 l 1,0,-1
94 142 m 2,5,-1
 94 427 l 1,6,-1
 9 447 l 1,7,-1
 9 500 l 1,8,-1
 248 500 l 1,9,-1
 248 155 l 2,10,11
 248 107 248 107 259.5 86 c 128,-1,12
 271 65 271 65 311 65 c 0,13,14
 379 65 379 65 421 120 c 1,15,-1
 421 427 l 1,16,-1
 356 447 l 1,17,-1
 356 500 l 1,18,-1
 576 500 l 1,19,-1
 576 75 l 1,20,-1
 654 75 l 1,21,-1
 654 32 l 1,22,23
 589 -15 589 -15 532 -15 c 128,-1,24
 475 -15 475 -15 451.5 7.5 c 128,-1,25
 428 30 428 30 421 50 c 1,26,27
 351 -15 351 -15 247 -15 c 0,28,29
 94 -15 94 -15 94 142 c 2,5,-1
EndSplineSet
EndChar

StartChar: uacute
Encoding: 250 250 188
Width: 667
Flags: W
LayerCount: 2
Fore
SplineSet
382 767 m 1,0,1
 456 753 456 753 500 715 c 1,2,-1
 341 564 l 1,3,-1
 281 591 l 1,4,-1
 382 767 l 1,0,1
94 142 m 2,5,-1
 94 427 l 1,6,-1
 9 447 l 1,7,-1
 9 500 l 1,8,-1
 248 500 l 1,9,-1
 248 155 l 2,10,11
 248 107 248 107 259.5 86 c 128,-1,12
 271 65 271 65 311 65 c 0,13,14
 379 65 379 65 421 120 c 1,15,-1
 421 427 l 1,16,-1
 356 447 l 1,17,-1
 356 500 l 1,18,-1
 576 500 l 1,19,-1
 576 75 l 1,20,-1
 654 75 l 1,21,-1
 654 32 l 1,22,23
 589 -15 589 -15 532 -15 c 128,-1,24
 475 -15 475 -15 451.5 7.5 c 128,-1,25
 428 30 428 30 421 50 c 1,26,27
 351 -15 351 -15 247 -15 c 0,28,29
 94 -15 94 -15 94 142 c 2,5,-1
EndSplineSet
EndChar

StartChar: ucircumflex
Encoding: 251 251 189
Width: 667
Flags: W
LayerCount: 2
Fore
SplineSet
490 586 m 1,0,-1
 422 562 l 1,1,-1
 319 687 l 1,2,-1
 217 562 l 1,3,-1
 149 586 l 1,4,-1
 264 766 l 1,5,-1
 373 766 l 1,6,-1
 490 586 l 1,0,-1
94 142 m 2,7,-1
 94 427 l 1,8,-1
 9 447 l 1,9,-1
 9 500 l 1,10,-1
 248 500 l 1,11,-1
 248 155 l 2,12,13
 248 107 248 107 259.5 86 c 128,-1,14
 271 65 271 65 311 65 c 0,15,16
 379 65 379 65 421 120 c 1,17,-1
 421 427 l 1,18,-1
 356 447 l 1,19,-1
 356 500 l 1,20,-1
 576 500 l 1,21,-1
 576 75 l 1,22,-1
 654 75 l 1,23,-1
 654 32 l 1,24,25
 589 -15 589 -15 532 -15 c 128,-1,26
 475 -15 475 -15 451.5 7.5 c 128,-1,27
 428 30 428 30 421 50 c 1,28,29
 351 -15 351 -15 247 -15 c 0,30,31
 94 -15 94 -15 94 142 c 2,7,-1
EndSplineSet
EndChar

StartChar: udieresis
Encoding: 252 252 190
Width: 667
Flags: W
LayerCount: 2
Fore
SplineSet
339 688 m 128,-1,1
 339 722 339 722 362 744.5 c 128,-1,2
 385 767 385 767 419 767 c 128,-1,3
 453 767 453 767 475.5 744.5 c 128,-1,4
 498 722 498 722 498 688 c 128,-1,5
 498 654 498 654 475.5 631 c 128,-1,6
 453 608 453 608 419 608 c 128,-1,7
 385 608 385 608 362 631 c 128,-1,0
 339 654 339 654 339 688 c 128,-1,1
139 688 m 128,-1,9
 139 722 139 722 162 744.5 c 128,-1,10
 185 767 185 767 219 767 c 128,-1,11
 253 767 253 767 275.5 744.5 c 128,-1,12
 298 722 298 722 298 688 c 128,-1,13
 298 654 298 654 275.5 631 c 128,-1,14
 253 608 253 608 219 608 c 128,-1,15
 185 608 185 608 162 631 c 128,-1,8
 139 654 139 654 139 688 c 128,-1,9
94 142 m 2,16,-1
 94 427 l 1,17,-1
 9 447 l 1,18,-1
 9 500 l 1,19,-1
 248 500 l 1,20,-1
 248 155 l 2,21,22
 248 107 248 107 259.5 86 c 128,-1,23
 271 65 271 65 311 65 c 0,24,25
 379 65 379 65 421 120 c 1,26,-1
 421 427 l 1,27,-1
 356 447 l 1,28,-1
 356 500 l 1,29,-1
 576 500 l 1,30,-1
 576 75 l 1,31,-1
 654 75 l 1,32,-1
 654 32 l 1,33,34
 589 -15 589 -15 532 -15 c 128,-1,35
 475 -15 475 -15 451.5 7.5 c 128,-1,36
 428 30 428 30 421 50 c 1,37,38
 351 -15 351 -15 247 -15 c 0,39,40
 94 -15 94 -15 94 142 c 2,16,-1
EndSplineSet
EndChar

StartChar: yacute
Encoding: 253 253 191
Width: 613
Flags: W
LayerCount: 2
Fore
SplineSet
390 767 m 1,0,1
 464 753 464 753 508 715 c 1,2,-1
 349 564 l 1,3,-1
 289 591 l 1,4,-1
 390 767 l 1,0,1
-5 500 m 1,5,-1
 304 500 l 1,6,-1
 304 447 l 1,7,-1
 238 435 l 1,8,-1
 367 178 l 1,9,-1
 461 428 l 1,10,-1
 385 447 l 1,11,-1
 385 500 l 1,12,-1
 617 500 l 1,13,-1
 617 447 l 1,14,-1
 534 424 l 1,15,-1
 255 -299 l 1,16,-1
 237 -299 l 2,17,18
 207 -299 207 -299 180.5 -286 c 128,-1,19
 154 -273 154 -273 143 -254 c 1,20,-1
 288 -23 l 1,21,-1
 70 426 l 1,22,-1
 -5 447 l 1,23,-1
 -5 500 l 1,5,-1
EndSplineSet
EndChar

StartChar: thorn
Encoding: 254 254 192
Width: 593
Flags: W
LayerCount: 2
Fore
SplineSet
269 50 m 0,0,1
 391 50 391 50 391 264 c 0,2,3
 391 430 391 430 297 430 c 0,4,5
 262 430 262 430 228 414 c 1,6,-1
 228 54 l 1,7,8
 244 50 244 50 269 50 c 0,0,1
294 -15 m 0,9,10
 250 -15 250 -15 228 -11 c 1,11,-1
 228 -227 l 1,12,-1
 333 -247 l 1,13,-1
 333 -300 l 1,14,-1
 -14 -300 l 1,15,-1
 -14 -247 l 1,16,-1
 71 -227 l 1,17,-1
 71 710 l 1,18,-1
 -14 710 l 1,19,-1
 -14 763 l 1,20,-1
 146 801 l 1,21,-1
 228 801 l 1,22,-1
 228 480 l 1,23,24
 286 515 286 515 339 515 c 0,25,26
 438 515 438 515 497.5 452.5 c 128,-1,27
 557 390 557 390 557 259.5 c 128,-1,28
 557 129 557 129 479.5 57 c 128,-1,29
 402 -15 402 -15 294 -15 c 0,9,10
EndSplineSet
EndChar

StartChar: ydieresis
Encoding: 255 255 193
Width: 613
Flags: W
LayerCount: 2
Fore
SplineSet
347 688 m 128,-1,1
 347 722 347 722 370 744.5 c 128,-1,2
 393 767 393 767 427 767 c 128,-1,3
 461 767 461 767 483.5 744.5 c 128,-1,4
 506 722 506 722 506 688 c 128,-1,5
 506 654 506 654 483.5 631 c 128,-1,6
 461 608 461 608 427 608 c 128,-1,7
 393 608 393 608 370 631 c 128,-1,0
 347 654 347 654 347 688 c 128,-1,1
147 688 m 128,-1,9
 147 722 147 722 170 744.5 c 128,-1,10
 193 767 193 767 227 767 c 128,-1,11
 261 767 261 767 283.5 744.5 c 128,-1,12
 306 722 306 722 306 688 c 128,-1,13
 306 654 306 654 283.5 631 c 128,-1,14
 261 608 261 608 227 608 c 128,-1,15
 193 608 193 608 170 631 c 128,-1,8
 147 654 147 654 147 688 c 128,-1,9
-5 500 m 1,16,-1
 304 500 l 1,17,-1
 304 447 l 1,18,-1
 238 435 l 1,19,-1
 367 178 l 1,20,-1
 461 428 l 1,21,-1
 385 447 l 1,22,-1
 385 500 l 1,23,-1
 617 500 l 1,24,-1
 617 447 l 1,25,-1
 534 424 l 1,26,-1
 255 -299 l 1,27,-1
 237 -299 l 2,28,29
 207 -299 207 -299 180.5 -286 c 128,-1,30
 154 -273 154 -273 143 -254 c 1,31,-1
 288 -23 l 1,32,-1
 70 426 l 1,33,-1
 -5 447 l 1,34,-1
 -5 500 l 1,16,-1
EndSplineSet
EndChar

StartChar: dotlessi
Encoding: 305 305 194
Width: 371
Flags: W
LayerCount: 2
Fore
SplineSet
356 0 m 1,0,-1
 30 0 l 1,1,-1
 30 53 l 1,2,-1
 115 73 l 1,3,-1
 115 409 l 1,4,-1
 30 409 l 1,5,-1
 30 462 l 1,6,-1
 190 500 l 1,7,-1
 271 500 l 1,8,-1
 271 73 l 1,9,-1
 356 53 l 1,10,-1
 356 0 l 1,0,-1
EndSplineSet
EndChar

StartChar: OE
Encoding: 338 338 195
Width: 1089
Flags: W
LayerCount: 2
Fore
SplineSet
388 54 m 0,0,1
 478 54 478 54 536 135.5 c 128,-1,2
 594 217 594 217 594 347 c 128,-1,3
 594 477 594 477 538.5 561.5 c 128,-1,4
 483 646 483 646 391.5 646 c 128,-1,5
 300 646 300 646 255 565 c 128,-1,6
 210 484 210 484 210 350 c 0,7,8
 210 145 210 145 311 76 c 0,9,10
 344 54 344 54 388 54 c 0,0,1
584 700 m 1,11,-1
 1023 700 l 1,12,-1
 1023 495 l 1,13,-1
 967 495 l 1,14,-1
 929 623 l 1,15,-1
 724 623 l 1,16,-1
 724 388 l 1,17,-1
 933 408 l 1,18,-1
 933 309 l 1,19,-1
 724 327 l 1,20,-1
 724 77 l 1,21,-1
 928 77 l 1,22,-1
 997 216 l 1,23,-1
 1053 216 l 1,24,-1
 1023 0 l 1,25,-1
 584 0 l 1,26,-1
 584 80 l 1,27,28
 506 -15 506 -15 377 -15 c 0,29,30
 208 -15 208 -15 125 86.5 c 128,-1,31
 42 188 42 188 42 349.5 c 128,-1,32
 42 511 42 511 130.5 613 c 128,-1,33
 219 715 219 715 362 715 c 128,-1,34
 505 715 505 715 584 619 c 1,35,-1
 584 700 l 1,11,-1
EndSplineSet
EndChar

StartChar: oe
Encoding: 339 339 196
Width: 917
Flags: W
LayerCount: 2
Fore
SplineSet
663 450 m 128,-1,1
 630 450 630 450 607.5 409.5 c 128,-1,2
 585 369 585 369 580 300 c 1,3,-1
 742 317 l 1,4,5
 744 332 744 332 744 345 c 0,6,7
 744 404 744 404 710 436 c 0,8,0
 696 450 696 450 663 450 c 128,-1,1
193 250 m 128,-1,10
 193 50 193 50 296 50 c 0,11,12
 352 50 352 50 374.5 102.5 c 128,-1,13
 397 155 397 155 397 250 c 128,-1,14
 397 345 397 345 374.5 397.5 c 128,-1,15
 352 450 352 450 296 450 c 0,16,9
 193 450 193 450 193 250 c 128,-1,10
34 250 m 128,-1,18
 34 367 34 367 108 441 c 128,-1,19
 182 515 182 515 300.5 515 c 128,-1,20
 419 515 419 515 490 420 c 1,21,22
 556 515 556 515 670.5 515 c 128,-1,23
 785 515 785 515 836 437.5 c 128,-1,24
 887 360 887 360 887 241 c 1,25,-1
 580 241 l 1,26,27
 594 60 594 60 737 60 c 0,28,29
 790 60 790 60 852 83 c 1,30,-1
 867 26 l 1,31,32
 774 -15 774 -15 692 -15 c 0,33,34
 561 -15 561 -15 493 84 c 1,35,36
 422 -15 422 -15 302 -15 c 128,-1,37
 182 -15 182 -15 108 59 c 128,-1,17
 34 133 34 133 34 250 c 128,-1,18
EndSplineSet
EndChar

StartChar: circumflex
Encoding: 710 710 197
Width: 318
Flags: W
LayerCount: 2
Fore
SplineSet
332 586 m 1,0,-1
 264 562 l 1,1,-1
 161 687 l 1,2,-1
 59 562 l 1,3,-1
 -9 586 l 1,4,-1
 106 766 l 1,5,-1
 215 766 l 1,6,-1
 332 586 l 1,0,-1
EndSplineSet
EndChar

StartChar: caron
Encoding: 711 711 198
Width: 375
Flags: W
LayerCount: 2
Fore
SplineSet
228 591 m 1,0,-1
 120 591 l 1,1,-1
 5 771 l 1,2,-1
 72 795 l 1,3,-1
 174 683 l 1,4,-1
 277 795 l 1,5,-1
 345 771 l 1,6,-1
 228 591 l 1,0,-1
EndSplineSet
EndChar

StartChar: ring
Encoding: 730 730 199
Width: 278
Flags: W
LayerCount: 2
Fore
SplineSet
96 686 m 128,-1,1
 96 669 96 669 109 656 c 128,-1,2
 122 643 122 643 139 643 c 128,-1,3
 156 643 156 643 169 656 c 128,-1,4
 182 669 182 669 182 686 c 128,-1,5
 182 703 182 703 169 716 c 128,-1,6
 156 729 156 729 139 729 c 128,-1,7
 122 729 122 729 109 716 c 128,-1,0
 96 703 96 703 96 686 c 128,-1,1
20 685.5 m 128,-1,9
 20 710 20 710 29.5 732 c 128,-1,10
 39 754 39 754 55 770 c 128,-1,11
 71 786 71 786 92.5 795.5 c 128,-1,12
 114 805 114 805 139 805 c 0,13,14
 188 805 188 805 223 770 c 128,-1,15
 258 735 258 735 258 698 c 128,-1,16
 258 661 258 661 248.5 639.5 c 128,-1,17
 239 618 239 618 223 601.5 c 128,-1,18
 207 585 207 585 185.5 575.5 c 128,-1,19
 164 566 164 566 139 566 c 128,-1,20
 114 566 114 566 92.5 575.5 c 128,-1,21
 71 585 71 585 55 601.5 c 128,-1,22
 39 618 39 618 29.5 639.5 c 128,-1,8
 20 661 20 661 20 685.5 c 128,-1,9
EndSplineSet
EndChar

StartChar: tilde
Encoding: 732 732 200
Width: 488
Flags: W
LayerCount: 2
Fore
SplineSet
167 745 m 0,0,1
 196 745 196 745 242 718 c 128,-1,2
 288 691 288 691 317.5 691 c 128,-1,3
 347 691 347 691 408 735 c 1,4,-1
 445 696 l 1,5,6
 416 644 416 644 362 616 c 0,7,8
 334 601 334 601 305 601 c 0,9,10
 269 601 269 601 223 628 c 128,-1,11
 177 655 177 655 159 655 c 0,12,13
 126 655 126 655 88 634 c 2,14,-1
 60 618 l 1,15,-1
 24 661 l 1,16,17
 87 745 87 745 167 745 c 0,0,1
EndSplineSet
EndChar

StartChar: endash
Encoding: 8211 8211 201
Width: 616
Flags: W
LayerCount: 2
Fore
SplineSet
563 231 m 1,0,-1
 53 231 l 1,1,-1
 53 315 l 1,2,-1
 563 315 l 1,3,-1
 563 231 l 1,0,-1
EndSplineSet
EndChar

StartChar: emdash
Encoding: 8212 8212 202
Width: 1116
Flags: W
LayerCount: 2
Fore
SplineSet
1063 231 m 1,0,-1
 53 231 l 1,1,-1
 53 314 l 1,2,-1
 1063 314 l 1,3,-1
 1063 231 l 1,0,-1
EndSplineSet
EndChar

StartChar: quoteleft
Encoding: 8216 8216 203
Width: 261
Flags: W
LayerCount: 2
Fore
SplineSet
129 428 m 0,0,1
 36 428 36 428 36 526 c 0,2,3
 36 583 36 583 84 647 c 128,-1,4
 132 711 132 711 186 746 c 1,5,-1
 233 704 l 1,6,7
 172 642 172 642 140 574 c 1,8,-1
 221 523 l 1,9,10
 221 483 221 483 194 456 c 0,11,12
 166 428 166 428 129 428 c 0,0,1
EndSplineSet
EndChar

StartChar: quoteright
Encoding: 8217 8217 204
Width: 260
Flags: W
LayerCount: 2
Fore
SplineSet
141 737 m 0,0,1
 234 737 234 737 234 639 c 0,2,3
 234 582 234 582 186 518 c 128,-1,4
 138 454 138 454 84 419 c 1,5,-1
 37 461 l 1,6,7
 98 523 98 523 130 591 c 1,8,-1
 49 642 l 1,9,10
 49 682 49 682 76 710 c 1,11,12
 104 737 104 737 141 737 c 0,0,1
EndSplineSet
EndChar

StartChar: quotesinglbase
Encoding: 8218 8218 205
Width: 265
Flags: W
LayerCount: 2
Fore
SplineSet
129 141 m 0,0,1
 222 141 222 141 222 43 c 0,2,3
 222 -14 222 -14 174 -78 c 128,-1,4
 126 -142 126 -142 72 -177 c 1,5,-1
 25 -135 l 1,6,7
 86 -73 86 -73 118 -5 c 1,8,-1
 37 46 l 1,9,10
 37 86 37 86 64 114 c 1,11,12
 92 141 92 141 129 141 c 0,0,1
EndSplineSet
EndChar

StartChar: quotedblleft
Encoding: 8220 8220 206
Width: 466
Flags: W
LayerCount: 2
Fore
SplineSet
335 430 m 0,0,1
 242 430 242 430 242 528 c 0,2,3
 242 585 242 585 290 649 c 128,-1,4
 338 713 338 713 392 748 c 1,5,-1
 439 706 l 1,6,7
 378 644 378 644 346 576 c 1,8,-1
 427 525 l 1,9,10
 427 485 427 485 400 458 c 0,11,12
 372 430 372 430 335 430 c 0,0,1
130 430 m 0,13,14
 37 430 37 430 37 528 c 0,15,16
 37 585 37 585 85 649 c 128,-1,17
 133 713 133 713 187 748 c 1,18,-1
 234 706 l 1,19,20
 173 644 173 644 141 576 c 1,21,-1
 222 525 l 1,22,23
 222 485 222 485 194 458 c 1,24,25
 167 430 167 430 130 430 c 0,13,14
EndSplineSet
EndChar

StartChar: quotedblright
Encoding: 8221 8221 207
Width: 465
Flags: W
LayerCount: 2
Fore
SplineSet
346 737 m 0,0,1
 439 737 439 737 439 639 c 0,2,3
 439 582 439 582 391 518 c 128,-1,4
 343 454 343 454 289 419 c 1,5,-1
 242 461 l 1,6,7
 303 523 303 523 335 591 c 1,8,-1
 254 642 l 1,9,10
 254 682 254 682 282 710 c 0,11,12
 309 737 309 737 346 737 c 0,0,1
141 737 m 0,13,14
 234 737 234 737 234 639 c 0,15,16
 234 582 234 582 186 518 c 128,-1,17
 138 454 138 454 84 419 c 1,18,-1
 37 461 l 1,19,20
 98 523 98 523 130 591 c 1,21,-1
 49 642 l 1,22,23
 49 682 49 682 76 710 c 1,24,25
 104 737 104 737 141 737 c 0,13,14
EndSplineSet
EndChar

StartChar: quotedblbase
Encoding: 8222 8222 208
Width: 469
Flags: W
LayerCount: 2
Fore
SplineSet
334 141 m 0,0,1
 427 141 427 141 427 43 c 0,2,3
 427 -14 427 -14 379 -78 c 128,-1,4
 331 -142 331 -142 277 -177 c 1,5,-1
 230 -135 l 1,6,7
 291 -73 291 -73 323 -5 c 1,8,-1
 242 46 l 1,9,10
 242 86 242 86 270 114 c 0,11,12
 297 141 297 141 334 141 c 0,0,1
129 141 m 0,13,14
 222 141 222 141 222 43 c 0,15,16
 222 -14 222 -14 174 -78 c 128,-1,17
 126 -142 126 -142 72 -177 c 1,18,-1
 25 -135 l 1,19,20
 86 -73 86 -73 118 -5 c 1,21,-1
 37 46 l 1,22,23
 37 86 37 86 64 114 c 1,24,25
 92 141 92 141 129 141 c 0,13,14
EndSplineSet
EndChar

StartChar: bullet
Encoding: 8226 8226 209
Width: 434
Flags: W
LayerCount: 2
Fore
SplineSet
217 519 m 128,-1,1
 250 519 250 519 279.5 506 c 128,-1,2
 309 493 309 493 331 471 c 128,-1,3
 353 449 353 449 366 419.5 c 128,-1,4
 379 390 379 390 379 357 c 128,-1,5
 379 324 379 324 366 294.5 c 128,-1,6
 353 265 353 265 331 243 c 128,-1,7
 309 221 309 221 279.5 208 c 128,-1,8
 250 195 250 195 217 195 c 128,-1,9
 184 195 184 195 154.5 208 c 128,-1,10
 125 221 125 221 103 243 c 128,-1,11
 81 265 81 265 68 294.5 c 128,-1,12
 55 324 55 324 55 357 c 128,-1,13
 55 390 55 390 68 419.5 c 128,-1,14
 81 449 81 449 103 471 c 128,-1,15
 125 493 125 493 154.5 506 c 128,-1,0
 184 519 184 519 217 519 c 128,-1,1
EndSplineSet
EndChar

StartChar: guilsinglleft
Encoding: 8249 8249 210
Width: 315
Flags: W
LayerCount: 2
Fore
SplineSet
42 286 m 1,0,-1
 205 470 l 1,1,-1
 260 450 l 1,2,-1
 189 270 l 1,3,-1
 260 90 l 1,4,-1
 205 70 l 1,5,-1
 42 254 l 1,6,-1
 42 286 l 1,0,-1
EndSplineSet
EndChar

StartChar: guilsinglright
Encoding: 8250 8250 211
Width: 315
Flags: W
LayerCount: 2
Fore
SplineSet
273 254 m 1,0,-1
 110 70 l 1,1,-1
 55 90 l 1,2,-1
 126 270 l 1,3,-1
 55 450 l 1,4,-1
 110 470 l 1,5,-1
 273 286 l 1,6,-1
 273 254 l 1,0,-1
EndSplineSet
EndChar

StartChar: fraction
Encoding: 8260 8260 212
Width: 409
Flags: W
LayerCount: 2
Fore
SplineSet
73 0 m 1,0,-1
 -18 0 l 1,1,-1
 339 715 l 1,2,-1
 429 715 l 1,3,-1
 73 0 l 1,0,-1
EndSplineSet
EndChar

StartChar: foursuperior
Encoding: 8308 8308 213
Width: 374
Flags: W
LayerCount: 2
Fore
SplineSet
194 422 m 1,0,-1
 194 553 l 1,1,-1
 95 422 l 1,2,-1
 194 422 l 1,0,-1
294 710 m 1,3,-1
 294 417 l 1,4,-1
 340 417 l 1,5,-1
 340 371 l 1,6,-1
 294 371 l 1,7,-1
 294 286 l 1,8,-1
 194 286 l 1,9,-1
 194 371 l 1,10,-1
 16 371 l 1,11,-1
 16 405 l 1,12,-1
 242 710 l 1,13,-1
 294 710 l 1,3,-1
EndSplineSet
EndChar

StartChar: Euro
Encoding: 8364 8364 214
Width: 717
Flags: W
LayerCount: 2
Fore
SplineSet
43 235 m 1,0,-1
 43 292 l 1,1,-1
 106 295 l 1,2,3
 104 323 104 323 104 350 c 2,4,-1
 104 377 l 1,5,-1
 43 377 l 1,6,-1
 43 434 l 1,7,-1
 111 438 l 1,8,9
 134 573 134 573 225.5 644 c 128,-1,10
 317 715 317 715 472 715 c 0,11,12
 562 715 562 715 651 676 c 1,13,-1
 651 491 l 1,14,-1
 594 491 l 1,15,-1
 551 632 l 1,16,17
 518 638 518 638 482 638 c 0,18,19
 391 638 391 638 341 592.5 c 128,-1,20
 291 547 291 547 276 447 c 1,21,-1
 528 462 l 1,22,-1
 499 377 l 1,23,-1
 270 377 l 1,24,-1
 270 326 l 2,25,26
 270 315 270 315 271 304 c 1,27,-1
 477 316 l 1,28,-1
 449 235 l 1,29,-1
 278 235 l 1,30,31
 310 62 310 62 465 62 c 0,32,33
 499 62 499 62 534 68 c 1,34,-1
 607 218 l 1,35,-1
 663 218 l 1,36,-1
 636 34 l 1,37,38
 554 -15 554 -15 449 -15 c 0,39,40
 173 -15 173 -15 114 235 c 1,41,-1
 43 235 l 1,0,-1
EndSplineSet
EndChar

StartChar: minus
Encoding: 8722 8722 215
Width: 580
Flags: W
LayerCount: 2
Fore
SplineSet
65 400 m 1,0,-1
 515 400 l 1,1,-1
 515 313 l 1,2,-1
 65 313 l 1,3,-1
 65 400 l 1,0,-1
EndSplineSet
EndChar

StartChar: foundryicon
Encoding: 65539 -1 216
Width: 1056
Flags: W
LayerCount: 2
Fore
SplineSet
431 242 m 1,0,1
 431 258 431 258 420 258 c 128,-1,2
 409 258 409 258 406 242 c 1,3,-1
 431 242 l 1,0,1
518.5 204 m 128,-1,5
 527 204 527 204 531 207 c 1,6,-1
 531 222 l 1,7,-1
 523 222 l 2,8,9
 510 222 510 222 510 213 c 128,-1,4
 510 204 510 204 518.5 204 c 128,-1,5
936 247 m 128,-1,11
 936 232 936 232 947 232 c 128,-1,12
 958 232 958 232 958 247 c 128,-1,13
 958 262 958 262 947 262 c 128,-1,10
 936 262 936 262 936 247 c 128,-1,11
749 206 m 128,-1,15
 763 206 763 206 763 231 c 128,-1,16
 763 256 763 256 749 256 c 128,-1,17
 735 256 735 256 735 231 c 128,-1,14
 735 206 735 206 749 206 c 128,-1,15
672 180 m 128,-1,19
 651 180 651 180 651 199.5 c 128,-1,20
 651 219 651 219 672 219 c 128,-1,21
 693 219 693 219 693 199.5 c 128,-1,18
 693 180 693 180 672 180 c 128,-1,19
589 285 m 1,22,-1
 577 285 l 1,23,-1
 577 316 l 1,24,-1
 624 316 l 1,25,-1
 624 212 l 1,26,-1
 638 212 l 1,27,-1
 638 184 l 1,28,29
 629 180 629 180 616 180 c 0,30,31
 589 180 589 180 589 208 c 2,32,-1
 589 285 l 1,22,-1
363 251 m 1,33,-1
 329 251 l 1,34,-1
 329 212 l 1,35,-1
 346 212 l 1,36,-1
 346 182 l 1,37,-1
 284 182 l 1,38,-1
 284 212 l 1,39,-1
 294 212 l 1,40,-1
 294 251 l 1,41,-1
 282 251 l 1,42,-1
 282 282 l 1,43,-1
 316 282 l 1,44,-1
 326 266 l 1,45,46
 333 284 333 284 345 284 c 128,-1,47
 357 284 357 284 363 282 c 1,48,-1
 363 251 l 1,33,-1
892 251 m 1,49,-1
 858 251 l 1,50,-1
 858 212 l 1,51,-1
 875 212 l 1,52,-1
 875 182 l 1,53,-1
 813 182 l 1,54,-1
 813 212 l 1,55,-1
 822 212 l 1,56,-1
 822 251 l 1,57,-1
 811 251 l 1,58,-1
 811 282 l 1,59,-1
 845 282 l 1,60,-1
 855 266 l 1,61,62
 862 284 862 284 874 284 c 128,-1,63
 886 284 886 284 892 282 c 1,64,-1
 892 251 l 1,49,-1
464 247 m 128,-1,66
 464 234 464 234 462 224 c 1,67,-1
 407 224 l 1,68,69
 411 212 411 212 432 212 c 2,70,-1
 461 212 l 1,71,-1
 461 186 l 1,72,73
 447 179 447 179 424 179 c 0,74,75
 371 179 371 179 371 231.5 c 128,-1,76
 371 284 371 284 420 284 c 0,77,78
 440 284 440 284 452 272 c 128,-1,65
 464 260 464 260 464 247 c 128,-1,66
520 284 m 0,79,80
 566 284 566 284 566 246 c 2,81,-1
 566 212 l 1,82,-1
 577 212 l 1,83,-1
 577 185 l 1,84,85
 569 180 569 180 555 180 c 128,-1,86
 541 180 541 180 535 187 c 1,87,88
 526 179 526 179 510 179 c 0,89,90
 476 179 476 179 476 209.5 c 128,-1,91
 476 240 476 240 515 240 c 2,92,-1
 531 240 l 1,93,-1
 531 241 l 2,94,95
 531 251 531 251 509 251 c 2,96,-1
 484 251 l 1,97,-1
 484 277 l 1,98,99
 505 284 505 284 520 284 c 0,79,80
749 284 m 128,-1,101
 799 284 799 284 799 231.5 c 128,-1,102
 799 179 799 179 749 179 c 128,-1,103
 699 179 699 179 699 231.5 c 128,-1,100
 699 284 699 284 749 284 c 128,-1,101
118 285 m 0,104,105
 89 285 89 285 89 248.5 c 128,-1,106
 89 212 89 212 126 212 c 2,107,-1
 158 212 l 1,108,-1
 158 187 l 1,109,110
 140 179 140 179 113 179 c 128,-1,111
 86 179 86 179 68.5 196.5 c 128,-1,112
 51 214 51 214 51 245 c 0,113,114
 51 316 51 316 119 316 c 0,115,116
 135 316 135 316 158 309 c 1,117,-1
 158 269 l 1,118,-1
 127 269 l 1,119,-1
 127 284 l 1,120,121
 124 285 124 285 118 285 c 0,104,105
176 171 m 1,122,-1
 193 171 l 2,123,124
 209 171 209 171 214 182 c 1,125,-1
 200 182 l 1,126,-1
 176 251 l 1,127,-1
 166 251 l 1,128,-1
 166 282 l 1,129,-1
 204 282 l 1,130,-1
 218 233 l 1,131,-1
 223 209 l 1,132,-1
 234 251 l 1,133,-1
 225 251 l 1,134,-1
 225 282 l 1,135,-1
 268 282 l 1,136,-1
 268 251 l 1,137,-1
 245 175 l 1,138,139
 235 138 235 138 200 138 c 0,140,141
 183 138 183 138 176 145 c 1,142,-1
 176 171 l 1,122,-1
993 284 m 128,-1,144
 1001 284 1001 284 1007 282 c 1,145,-1
 1007 251 l 1,146,-1
 991 251 l 1,147,148
 992 249 992 249 992 240.5 c 128,-1,149
 992 232 992 232 981 221.5 c 128,-1,150
 970 211 970 211 954 211 c 128,-1,151
 938 211 938 211 935 212 c 1,152,-1
 935 197 l 1,153,-1
 953 197 l 2,154,155
 992 197 992 197 992 161 c 0,156,157
 992 150 992 150 986 138 c 1,158,-1
 959 138 l 1,159,-1
 959 167 l 1,160,-1
 913 167 l 1,161,162
 903 175 903 175 903 191 c 128,-1,163
 903 207 903 207 917 219 c 1,164,165
 903 227 903 227 903 245 c 0,166,167
 903 284 903 284 946 284 c 0,168,169
 964 284 964 284 977 274 c 1,170,143
 985 284 985 284 993 284 c 128,-1,144
EndSplineSet
EndChar

StartChar: grave.case
Encoding: 65540 -1 217
Width: 252
Flags: W
LayerCount: 2
Fore
SplineSet
216 776 m 1,0,-1
 177 728 l 1,1,-1
 -22 809 l 1,2,3
 -4 854 -4 854 46 890 c 0,4,5
 60 900 60 900 73 904 c 1,6,-1
 216 776 l 1,0,-1
EndSplineSet
EndChar

StartChar: acute.case
Encoding: 65541 -1 218
Width: 252
Flags: W
LayerCount: 2
Fore
SplineSet
136 904 m 1,0,1
 175 892 175 892 214 839 c 0,2,3
 225 824 225 824 231 809 c 1,4,-1
 27 728 l 1,5,-1
 -12 776 l 1,6,-1
 136 904 l 1,0,1
EndSplineSet
EndChar

StartChar: circumflex.case
Encoding: 65542 -1 219
Width: 342
Flags: W
LayerCount: 2
Fore
SplineSet
355 767 m 1,0,-1
 287 743 l 1,1,-1
 174 806 l 1,2,-1
 62 743 l 1,3,-1
 -5 767 l 1,4,-1
 120 888 l 1,5,-1
 229 888 l 1,6,-1
 355 767 l 1,0,-1
EndSplineSet
EndChar

StartChar: caron.case
Encoding: 65543 -1 220
Width: 380
Flags: W
LayerCount: 2
Fore
SplineSet
229 752 m 1,0,-1
 120 752 l 1,1,-1
 -5 874 l 1,2,-1
 62 898 l 1,3,-1
 174 834 l 1,4,-1
 287 898 l 1,5,-1
 355 874 l 1,6,-1
 229 752 l 1,0,-1
EndSplineSet
EndChar

StartChar: dieresis.case
Encoding: 65544 -1 221
Width: 432
Flags: W
LayerCount: 2
Fore
SplineSet
242 820 m 128,-1,1
 242 854 242 854 265 876.5 c 128,-1,2
 288 899 288 899 322 899 c 128,-1,3
 356 899 356 899 378.5 876.5 c 128,-1,4
 401 854 401 854 401 820 c 128,-1,5
 401 786 401 786 378.5 763 c 128,-1,6
 356 740 356 740 322 740 c 128,-1,7
 288 740 288 740 265 763 c 128,-1,0
 242 786 242 786 242 820 c 128,-1,1
102 899 m 128,-1,9
 136 899 136 899 158.5 876.5 c 128,-1,10
 181 854 181 854 181 820 c 128,-1,11
 181 786 181 786 158.5 763 c 128,-1,12
 136 740 136 740 102 740 c 128,-1,13
 68 740 68 740 45 763 c 128,-1,14
 22 786 22 786 22 820 c 128,-1,15
 22 854 22 854 45 876.5 c 128,-1,8
 68 899 68 899 102 899 c 128,-1,9
EndSplineSet
EndChar

StartChar: tilde.case
Encoding: 65545 -1 222
Width: 469
Flags: W
LayerCount: 2
Fore
SplineSet
151 886 m 0,0,1
 180 886 180 886 226 859 c 128,-1,2
 272 832 272 832 301.5 832 c 128,-1,3
 331 832 331 832 392 876 c 1,4,-1
 429 837 l 1,5,6
 400 785 400 785 346 756 c 0,7,8
 318 742 318 742 289 742 c 0,9,10
 253 742 253 742 207 769 c 128,-1,11
 161 796 161 796 143 796 c 0,12,13
 110 796 110 796 72 775 c 2,14,-1
 44 759 l 1,15,-1
 8 802 l 1,16,17
 71 886 71 886 151 886 c 0,0,1
EndSplineSet
EndChar

StartChar: ring.case
Encoding: 65546 -1 223
Width: 278
Flags: W
LayerCount: 2
Fore
SplineSet
96 812 m 128,-1,1
 96 795 96 795 109 782.5 c 128,-1,2
 122 770 122 770 139 770 c 128,-1,3
 156 770 156 770 169 782.5 c 128,-1,4
 182 795 182 795 182 812 c 128,-1,5
 182 829 182 829 169 842 c 128,-1,6
 156 855 156 855 139 855 c 128,-1,7
 122 855 122 855 109 842 c 128,-1,0
 96 829 96 829 96 812 c 128,-1,1
20 812.5 m 128,-1,9
 20 837 20 837 29.5 858.5 c 128,-1,10
 39 880 39 880 55 896.5 c 128,-1,11
 71 913 71 913 92.5 922.5 c 128,-1,12
 114 932 114 932 139 932 c 0,13,14
 189 932 189 932 223.5 896 c 128,-1,15
 258 860 258 860 258 824 c 128,-1,16
 258 788 258 788 248.5 766 c 128,-1,17
 239 744 239 744 223 728 c 128,-1,18
 207 712 207 712 185.5 702.5 c 128,-1,19
 164 693 164 693 139 693 c 128,-1,20
 114 693 114 693 92.5 702.5 c 128,-1,21
 71 712 71 712 55 728 c 128,-1,22
 39 744 39 744 29.5 766 c 128,-1,8
 20 788 20 788 20 812.5 c 128,-1,9
EndSplineSet
EndChar

